<svg xmlns="http://www.w3.org/2000/svg"><defs><symbol id="arrow-down-white"><rect width="100%" height="100%" fill="#fff"/><title>Course listing/icons/arrow/forward/Prim1</title><g><title>background</title><path fill="none" d="M-1-1h582v402H-1z"/></g><g class="currentLayer"><title>Layer 1</title><g transform="rotate(90 8.361 8.956)" fill-rule="evenodd" fill="none"><path d="M6.995 2.827l4.632 4.632H-.64v2.993h12.266l-4.632 4.634 2.134 2.12 8.232-8.25L9.13.706z" fill="#FFF"/><path d="M-.328 11.178V4.695h4.081v6.483z"/><path d="M2.38 8.813v-.229h2.136v.229z"/><rect width="8.809" height="6.979" x="-13.199" y="-1.663" transform="rotate(-90)" ry=".648"/><rect width="3.547" height="1.182" x="-11.445" y="-.976" transform="rotate(-90)" ry=".591"/></g></g></symbol><symbol id="arrow-down"><rect width="100%" height="100%" fill="none"/><title>Course listing/icons/arrow/forward/Prim1</title><g><title>background</title><path fill="none" d="M-1-1h582v402H-1z"/></g><g class="currentLayer"><title>Layer 1</title><g transform="rotate(90 8.361 8.956)" fill-rule="evenodd" fill="none"><path d="M6.995 2.827l4.632 4.632H-.64v2.993h12.266l-4.632 4.634 2.134 2.12 8.232-8.25L9.13.706z" fill="#25368D"/><path d="M-.328 11.178V4.695h4.081v6.483z"/><path d="M2.38 8.813v-.229h2.136v.229z"/><rect width="8.809" height="6.979" x="-13.199" y="-1.663" transform="rotate(-90)" ry=".648"/><rect width="3.547" height="1.182" x="-11.445" y="-.976" transform="rotate(-90)" ry=".591"/></g></g></symbol><symbol id="arrow-left-yellow"><rect width="100%" height="100%" fill="none"/><title>Course listing/icons/arrow/forward/Prim1</title><g><title>background</title><path fill="none" d="M-1-1h582v402H-1z"/></g><g class="currentLayer"><title>Layer 1</title><path d="M10.366 14.379L5.734 9.747H18V6.754H5.734l4.632-4.634L8.232 0 0 8.25l8.232 8.25z" fill="#25368D" fill-rule="evenodd"/></g></symbol><symbol id="arrow-left"><rect width="100%" height="100%" fill="none"/><title>Course listing/icons/arrow/forward/Prim1</title><g><title>background</title><path fill="none" d="M-1-1h582v402H-1z"/></g><g class="currentLayer"><title>Layer 1</title><path d="M10.366 14.379L5.734 9.747H18V6.754H5.734l4.632-4.634L8.232 0 0 8.25l8.232 8.25z" fill="#25368D" fill-rule="evenodd"/></g></symbol><symbol id="arrow-right"><rect width="100%" height="100%" fill="none"/><title>Course listing/icons/arrow/forward/Prim1</title><g><title>background</title><path fill="none" d="M-1-1h582v402H-1z"/></g><g class="currentLayer"><title>Layer 1</title><path d="M7.632 2.121l4.632 4.632H-.002v2.993h12.266L7.632 14.38l2.134 2.12 8.232-8.25L9.766 0z" fill="#25368D" fill-rule="evenodd"/></g></symbol><symbol id="arrow-top-white"><rect width="100%" height="100%" fill="none"/><title>Course listing/icons/arrow/forward/Prim1</title><g><title>background</title><path fill="none" d="M-1-1h582v402H-1z"/></g><g class="currentLayer"><title>Layer 1</title><path d="M2.232 10.323L6.864 5.69v12.265h2.994V5.691l4.633 4.632 2.12-2.135-8.25-8.232-8.25 8.232z" fill="#FFF" fill-rule="evenodd" class="selected"/></g></symbol><symbol id="arrow-top"><rect width="100%" height="100%" fill="none"/><title>Course listing/icons/arrow/forward/Prim1</title><g><title>background</title><path fill="none" d="M-1-1h582v402H-1z"/></g><g class="currentLayer"><title>Layer 1</title><path d="M2.232 10.323L6.864 5.69v12.265h2.994V5.691l4.633 4.632 2.12-2.135-8.25-8.232-8.25 8.232z" fill="#25368D" fill-rule="evenodd" class="selected"/></g></symbol><symbol id="check" viewBox="0 0 16 12"><title>iconmonstr-check-mark-1</title><path d="M12.853 0l-7.15 7.121-3.35-3.085L0 6.324l5.703 5.374 9.504-9.41L12.853 0" fill="#25368D" fill-rule="evenodd"/></symbol><symbol id="chevron-down"><rect width="100%" height="100%" fill="none"/><g><title>background</title><path fill="none" d="M-1-1h582v402H-1z"/></g><g class="currentLayer"><path d="M14.572-.002L9.94 4.63 8.412 6.105 6.947 4.63 2.313-.002.193 2.133l8.25 8.232 8.25-8.232z" fill-rule="evenodd"/></g></symbol><symbol id="clock" viewBox="0 0 18 18"><title>Fill 1</title><path d="M9.75 9V4.5h-1.5v6h5.25V9H9.75zM9 0a9 9 0 1 0 0 18A9 9 0 0 0 9 0zm7.5 9c0 4.136-3.364 7.5-7.5 7.5S1.5 13.136 1.5 9 4.864 1.5 9 1.5s7.5 3.364 7.5 7.5z" fill="#344ED3" fill-rule="evenodd"/></symbol><symbol id="dinner" viewBox="0 0 21.20 23.22"><path d="M15.6 6.98a1.2 1.2 0 0 0 1.2-1.2V1.295a1.2 1.2 0 1 0-2.4 0v4.483a1.2 1.2 0 0 0 1.2 1.2z" fill="#fff"/><path d="M19.872.095a1.2 1.2 0 0 0-1.2 1.2v4.656A3.076 3.076 0 0 1 15.6 9.023a3.077 3.077 0 0 1-3.074-3.072V1.295a1.2 1.2 0 1 0-2.4 0v4.656a5.479 5.479 0 0 0 4.274 5.336v10.67a1.2 1.2 0 1 0 2.4 0v-10.67a5.479 5.479 0 0 0 4.272-5.336V1.295a1.2 1.2 0 0 0-1.2-1.2zM5.75.099C5.555.085 3.777-.006 2.24 1.42.883 2.678.195 4.66.195 7.31v4.671a1.2 1.2 0 0 0 1.2 1.2h.912a1.2 1.2 0 0 0 .288-2.365V7.31c0-1.905.43-3.323 1.246-4.102.203-.194.416-.336.62-.44v19.188a1.2 1.2 0 1 0 2.4 0V1.296A1.2 1.2 0 0 0 5.75.099z" fill="#fff"/></symbol><symbol id="facebook" viewBox="0 0 32 32"><title>facebook</title><path fill="#25368d" d="M19 6h5V0h-5c-3.86 0-7 3.14-7 7v3H8v6h4v16h6V16h5l1-6h-6V7c0-.542.458-1 1-1z"/></symbol><symbol id="linkedin" viewBox="0 0 32 32"><title>linkedin2</title><path fill="#25368d" d="M12 12h5.535v2.837h.079c.77-1.381 2.655-2.837 5.464-2.837C28.92 12 30 15.637 30 20.367V30h-5.769v-8.54c0-2.037-.042-4.657-3.001-4.657-3.005 0-3.463 2.218-3.463 4.509V30H12V12zM2 12h6v18H2V12zM8 7a3 3 0 1 1-6 0 3 3 0 0 1 6 0z"/></symbol><symbol id="magnifier" viewBox="0 0 17 19"><title>Course listing/icons/magnifier</title><g fill="none" fill-rule="evenodd"><path fill="#FFF" opacity=".01" d="M0 .922h17v18H0z"/><path d="M9.704.922C13.732.922 17 4.382 17 8.646c0 4.265-3.268 7.726-7.296 7.726-1.401 0-2.712-.409-3.823-1.135l-3.17 3.357a1.011 1.011 0 0 1-1.492 0l-.91-.963a1.162 1.162 0 0 1 0-1.58l3.171-3.356a8.022 8.022 0 0 1-1.072-4.049c0-4.264 3.268-7.724 7.296-7.724zm0 2.394c-2.777 0-5.035 2.39-5.035 5.33a5.531 5.531 0 0 0 .863 2.962c.022.036.047.066.07.1.07.105.131.221.209.32.014.018.033.032.047.05.09.111.181.217.28.32.413.43.909.772 1.445 1.038.647.317 1.36.517 2.12.517 2.778 0 5.036-2.365 5.036-5.307 0-2.94-2.258-5.33-5.035-5.33zm1.631 1.653c1.296.654 2.192 2.057 2.192 3.677 0 .448-.061.882-.187 1.284l-.839-.296c.098-.312.163-.639.163-.988a3.14 3.14 0 0 0-1.701-2.813l.372-.864z" fill="#25368D"/></g></symbol><symbol id="plus" viewBox="0 0 14 15"><title>+</title><path d="M8.52 8.7v5.79H5.04V8.7H0V5.55h5.04V0h3.48v5.55h5.04V8.7z" fill="#344ED3" fill-rule="evenodd"/></symbol><symbol id="tick" viewBox="0 0 17 14"><path d="M15.921 1.981L6 12.001M1.974 6.118L8 11.998" stroke="#1FCF6C" stroke-width="3"/></symbol><symbol id="triangle"><rect width="100%" height="100%" fill="none" class="selected"/><defs><filter id="a" x="0" y=".002" width="57.844" height="59.996" filterUnits="userSpaceOnUse" color-interpolation-filters="sRGB"><feFlood flood-opacity="0" result="BackgroundImageFix"/><feOffset dy="10"/><feBlend in2="BackgroundImageFix" result="effect1_dropShadow"/><feBlend in="SourceGraphic" in2="effect1_dropShadow" result="shape"/></filter></defs><g class="currentLayer"><title>Layer 1</title><path fill-rule="evenodd" clip-rule="evenodd" d="M16.975 8.497c1.333.77 1.333 2.694 0 3.463L3.131 19.956c-1.333.77-3-.193-3-1.732V2.234C.13.693 1.798-.27 3.13.5l13.844 7.996z" fill="#344ED3" filter="url(#a)"/></g></symbol><symbol id="twitter" viewBox="0 0 40 40"><path fill="#25368d" d="M34.632 12.492c.016.324.022.652.022.976 0 9.98-7.594 21.484-21.48 21.484-4.266 0-8.232-1.25-11.574-3.394.592.07 1.192.106 1.8.106 3.54 0 6.794-1.208 9.376-3.23a7.557 7.557 0 0 1-7.052-5.242 7.716 7.716 0 0 0 3.41-.13 7.558 7.558 0 0 1-6.056-7.406v-.094a7.532 7.532 0 0 0 3.42.946 7.55 7.55 0 0 1-3.36-6.286c0-1.382.372-2.68 1.024-3.796a21.431 21.431 0 0 0 15.562 7.89 7.626 7.626 0 0 1-.194-1.722 7.546 7.546 0 0 1 7.548-7.546c2.172 0 4.134.914 5.512 2.382a15.204 15.204 0 0 0 4.794-1.832 7.578 7.578 0 0 1-3.32 4.176A15.102 15.102 0 0 0 38.4 8.586a15.247 15.247 0 0 1-3.768 3.906z"/></symbol><symbol id="x-btn" viewBox="0 0 18 18"><path d="M2 2l14 14M16 2.002L2 16" stroke="#F73F3F" stroke-width="3"/></symbol><symbol id="youtube" viewBox="0 0 32 32"><title>youtube</title><path fill="#25368d" d="M31.681 9.6s-.313-2.206-1.275-3.175C29.187 5.15 27.825 5.144 27.2 5.069c-4.475-.325-11.194-.325-11.194-.325h-.012s-6.719 0-11.194.325c-.625.075-1.987.081-3.206 1.356C.631 7.394.325 9.6.325 9.6s-.319 2.588-.319 5.181v2.425c0 2.587.319 5.181.319 5.181s.313 2.206 1.269 3.175c1.219 1.275 2.819 1.231 3.531 1.369 2.563.244 10.881.319 10.881.319s6.725-.012 11.2-.331c.625-.075 1.988-.081 3.206-1.356.962-.969 1.275-3.175 1.275-3.175s.319-2.587.319-5.181v-2.425c-.006-2.588-.325-5.181-.325-5.181zM12.694 20.15v-8.994l8.644 4.513-8.644 4.481z"/></symbol></defs></svg>