<svg width="83" height="69" viewBox="0 0 83 69" version="1.1" xmlns="http://www.w3.org/2000/svg" xmlns:xlink="http://www.w3.org/1999/xlink">
<g id="Canvas" fill="none">
<path id="&#226;&#128;&#156;" fill-rule="evenodd" clip-rule="evenodd" d="M 37.8 31.4L 37.8 68.6L 0 68.6L 0 45.4C 0 36.7333 1.56665 28.9 4.7 21.9C 7.83335 14.9 13.1333 7.60004 20.6 0L 34.2 10.8C 26.8666 18.5334 22.3333 25.4 20.6 31.4L 37.8 31.4ZM 83 31.4L 83 68.6L 45.2 68.6L 45.2 45.4C 45.2 36.7333 46.7667 28.9 49.9 21.9C 53.0334 14.9 58.3333 7.60004 65.8 0L 79.4 10.8C 72.0666 18.5334 67.5334 25.4 65.8 31.4L 83 31.4Z" fill="#F9DA4A"/>
</g>
</svg>
