<?xml version="1.0" encoding="UTF-8"?>
<svg width="420px" height="85px" viewBox="0 0 420 85" version="1.1" xmlns="http://www.w3.org/2000/svg" xmlns:xlink="http://www.w3.org/1999/xlink">
    <defs></defs>
    <g stroke="none" stroke-width="1" fill="none" fill-rule="evenodd">
        <g transform="translate(-1249.000000, -6095.000000)" fill="#4F68E8" fill-rule="nonzero">
            <g transform="translate(0.000000, 5795.000000)">
                <g>
                    <g transform="translate(1249.000000, 300.000000)">
                        <path fill="#4f68e8" d="M0,72.5046 L0,70.5046 C12.6455523,70.5046 19.0133201,72.0328693 30.371271,76.5761254 C41.5128828,81.0328444 47.6451227,82.5046 59.999,82.5046 C72.3528773,82.5046 78.4851172,81.0328444 89.626354,76.5762754 C100.98468,72.0328693 107.352448,70.5046 119.998,70.5046 C132.642707,70.5046 139.009926,72.0328346 150.367412,76.5761318 C161.508426,81.0328346 167.640373,82.5046 179.994,82.5046 C192.348048,82.5046 198.480207,81.0328328 209.621599,76.5761276 C220.979457,72.0328328 227.346881,70.5046 239.992,70.5046 C252.637964,70.5046 259.005937,72.0328676 270.36426,76.5761212 C281.50625,81.0328427 287.638701,82.5046 299.993,82.5046 C312.348332,82.5046 318.481258,81.0327909 329.6235,76.5761169 C340.982321,72.032816 347.350234,70.5046 359.996,70.5046 C372.642355,70.5046 379.010394,72.0328276 390.369369,76.5761148 C401.511894,81.0328276 407.644688,82.5046 420,82.5046 L420,84.5046 C407.353645,84.5046 400.985606,82.9763724 389.626631,78.4330852 C378.484106,73.9763724 372.351312,72.5046 359.996,72.5046 C347.64128,72.5046 341.508617,73.976359 330.366625,78.4329331 C319.007554,82.9763341 312.639376,84.5046 299.993,84.5046 C287.347646,84.5046 280.979938,82.9763823 269.621865,78.4332288 C258.479625,73.9764074 252.346911,72.5046 239.992,72.5046 C227.637952,72.5046 221.505793,73.9763672 210.364401,78.4330724 C199.006543,82.9763672 192.639119,84.5046 179.994,84.5046 C167.349293,84.5046 160.982074,82.9763654 149.624588,78.4330682 C138.483574,73.9763654 132.351627,72.5046 119.998,72.5046 C107.643511,72.5046 101.511008,73.9764056 90.369521,78.4330746 C79.0114453,82.9763806 72.6439422,84.5046 59.999,84.5046 C47.3540578,84.5046 40.9865547,82.9763806 29.628854,78.4332246 C18.4869924,73.9764056 12.3544893,72.5046 0,72.5046 Z" id="Wave-6"></path>
                        <path fill="#4f68e8" d="M0,58.5036 L0,56.5036 C12.6455523,56.5036 19.0133201,58.0318693 30.371271,62.5751254 C41.5128828,67.0318444 47.6451227,68.5036 59.999,68.5036 C72.3528773,68.5036 78.4851172,67.0318444 89.626354,62.5752754 C100.98468,58.0318693 107.352448,56.5036 119.998,56.5036 C132.642707,56.5036 139.009926,58.0318346 150.367412,62.5751318 C161.508426,67.0318346 167.640373,68.5036 179.994,68.5036 C192.348048,68.5036 198.480207,67.0318328 209.621599,62.5751276 C220.979457,58.0318328 227.346881,56.5036 239.992,56.5036 C252.637964,56.5036 259.005937,58.0318676 270.36426,62.5751212 C281.50625,67.0318427 287.638701,68.5036 299.993,68.5036 C312.348332,68.5036 318.481258,67.0317909 329.6235,62.5751169 C340.982321,58.031816 347.350234,56.5036 359.996,56.5036 C372.642355,56.5036 379.010394,58.0318276 390.369369,62.5751148 C401.511894,67.0318276 407.644688,68.5036 420,68.5036 L420,70.5036 C407.353645,70.5036 400.985606,68.9753724 389.626631,64.4320852 C378.484106,59.9753724 372.351312,58.5036 359.996,58.5036 C347.64128,58.5036 341.508617,59.975359 330.366625,64.4319331 C319.007554,68.9753341 312.639376,70.5036 299.993,70.5036 C287.347646,70.5036 280.979938,68.9753823 269.621865,64.4322288 C258.479625,59.9754074 252.346911,58.5036 239.992,58.5036 C227.637952,58.5036 221.505793,59.9753672 210.364401,64.4320724 C199.006543,68.9753672 192.639119,70.5036 179.994,70.5036 C167.349293,70.5036 160.982074,68.9753654 149.624588,64.4320682 C138.483574,59.9753654 132.351627,58.5036 119.998,58.5036 C107.643511,58.5036 101.511008,59.9754056 90.369521,64.4320746 C79.0114453,68.9753806 72.6439422,70.5036 59.999,70.5036 C47.3540578,70.5036 40.9865547,68.9753806 29.628854,64.4322246 C18.4869924,59.9754056 12.3544893,58.5036 0,58.5036 Z" id="Wave-5"></path>
                        <path fill="#4f68e8" d="M0,44.5027 L0,42.5027 C12.6455523,42.5027 19.0133201,44.0309693 30.371271,48.5742254 C41.5128828,53.0309444 47.6451227,54.5027 59.999,54.5027 C72.3528773,54.5027 78.4851172,53.0309444 89.626354,48.5743754 C100.98468,44.0309693 107.352448,42.5027 119.998,42.5027 C132.642707,42.5027 139.009926,44.0309346 150.367412,48.5742318 C161.508426,53.0309346 167.640373,54.5027 179.994,54.5027 C192.348048,54.5027 198.480207,53.0309328 209.621599,48.5742276 C220.979457,44.0309328 227.346881,42.5027 239.992,42.5027 C252.637964,42.5027 259.005937,44.0309676 270.36426,48.5742212 C281.50625,53.0309427 287.638701,54.5027 299.993,54.5027 C312.348332,54.5027 318.481258,53.0308909 329.6235,48.5742169 C340.982321,44.030916 347.350234,42.5027 359.996,42.5027 C372.642355,42.5027 379.010394,44.0309276 390.369369,48.5742148 C401.511894,53.0309276 407.644688,54.5027 420,54.5027 L420,56.5027 C407.353645,56.5027 400.985606,54.9744724 389.626631,50.4311852 C378.484106,45.9744724 372.351312,44.5027 359.996,44.5027 C347.64128,44.5027 341.508617,45.974459 330.366625,50.4310331 C319.007554,54.9744341 312.639376,56.5027 299.993,56.5027 C287.347646,56.5027 280.979938,54.9744823 269.621865,50.4313288 C258.479625,45.9745074 252.346911,44.5027 239.992,44.5027 C227.637952,44.5027 221.505793,45.9744672 210.364401,50.4311724 C199.006543,54.9744672 192.639119,56.5027 179.994,56.5027 C167.349293,56.5027 160.982074,54.9744654 149.624588,50.4311682 C138.483574,45.9744654 132.351627,44.5027 119.998,44.5027 C107.643511,44.5027 101.511008,45.9745056 90.369521,50.4311746 C79.0114453,54.9744806 72.6439422,56.5027 59.999,56.5027 C47.3540578,56.5027 40.9865547,54.9744806 29.628854,50.4313246 C18.4869924,45.9745056 12.3544893,44.5027 0,44.5027 Z" id="Wave-4"></path>
                        <path fill="#4f68e8" d="M0,30.5017 L0,28.5017 C12.6455523,28.5017 19.0133201,30.0299693 30.371271,34.5732254 C41.5128828,39.0299444 47.6451227,40.5017 59.999,40.5017 C72.3528773,40.5017 78.4851172,39.0299444 89.626354,34.5733754 C100.98468,30.0299693 107.352448,28.5017 119.998,28.5017 C132.642707,28.5017 139.009926,30.0299346 150.367412,34.5732318 C161.508426,39.0299346 167.640373,40.5017 179.994,40.5017 C192.348048,40.5017 198.480207,39.0299328 209.621599,34.5732276 C220.979457,30.0299328 227.346881,28.5017 239.992,28.5017 C252.637964,28.5017 259.005937,30.0299676 270.36426,34.5732212 C281.50625,39.0299427 287.638701,40.5017 299.993,40.5017 C312.348332,40.5017 318.481258,39.0298909 329.6235,34.5732169 C340.982321,30.029916 347.350234,28.5017 359.996,28.5017 C372.642355,28.5017 379.010394,30.0299276 390.369369,34.5732148 C401.511894,39.0299276 407.644688,40.5017 420,40.5017 L420,42.5017 C407.353645,42.5017 400.985606,40.9734724 389.626631,36.4301852 C378.484106,31.9734724 372.351312,30.5017 359.996,30.5017 C347.64128,30.5017 341.508617,31.973459 330.366625,36.4300331 C319.007554,40.9734341 312.639376,42.5017 299.993,42.5017 C287.347646,42.5017 280.979938,40.9734823 269.621865,36.4303288 C258.479625,31.9735074 252.346911,30.5017 239.992,30.5017 C227.637952,30.5017 221.505793,31.9734672 210.364401,36.4301724 C199.006543,40.9734672 192.639119,42.5017 179.994,42.5017 C167.349293,42.5017 160.982074,40.9734654 149.624588,36.4301682 C138.483574,31.9734654 132.351627,30.5017 119.998,30.5017 C107.643511,30.5017 101.511008,31.9735056 90.369521,36.4301746 C79.0114453,40.9734806 72.6439422,42.5017 59.999,42.5017 C47.3540578,42.5017 40.9865547,40.9734806 29.628854,36.4303246 C18.4869924,31.9735056 12.3544893,30.5017 0,30.5017 Z" id="Wave-3"></path>
                        <path fill="#4f68e8" d="M0,16.5007 L0,14.5007 C12.6455523,14.5007 19.0133201,16.0289693 30.371271,20.5722254 C41.5128828,25.0289444 47.6451227,26.5007 59.999,26.5007 C72.3528773,26.5007 78.4851172,25.0289444 89.626354,20.5723754 C100.98468,16.0289693 107.352448,14.5007 119.998,14.5007 C132.642707,14.5007 139.009926,16.0289346 150.367412,20.5722318 C161.508426,25.0289346 167.640373,26.5007 179.994,26.5007 C192.348048,26.5007 198.480207,25.0289328 209.621599,20.5722276 C220.979457,16.0289328 227.346881,14.5007 239.992,14.5007 C252.637964,14.5007 259.005937,16.0289676 270.36426,20.5722212 C281.50625,25.0289427 287.638701,26.5007 299.993,26.5007 C312.348332,26.5007 318.481258,25.0288909 329.6235,20.5722169 C340.982321,16.028916 347.350234,14.5007 359.996,14.5007 C372.642355,14.5007 379.010394,16.0289276 390.369369,20.5722148 C401.511894,25.0289276 407.644688,26.5007 420,26.5007 L420,28.5007 C407.353645,28.5007 400.985606,26.9724724 389.626631,22.4291852 C378.484106,17.9724724 372.351312,16.5007 359.996,16.5007 C347.64128,16.5007 341.508617,17.972459 330.366625,22.4290331 C319.007554,26.9724341 312.639376,28.5007 299.993,28.5007 C287.347646,28.5007 280.979938,26.9724823 269.621865,22.4293288 C258.479625,17.9725074 252.346911,16.5007 239.992,16.5007 C227.637952,16.5007 221.505793,17.9724672 210.364401,22.4291724 C199.006543,26.9724672 192.639119,28.5007 179.994,28.5007 C167.349293,28.5007 160.982074,26.9724654 149.624588,22.4291682 C138.483574,17.9724654 132.351627,16.5007 119.998,16.5007 C107.643511,16.5007 101.511008,17.9725056 90.369521,22.4291746 C79.0114453,26.9724806 72.6439422,28.5007 59.999,28.5007 C47.3540578,28.5007 40.9865547,26.9724806 29.628854,22.4293246 C18.4869924,17.9725056 12.3544893,16.5007 0,16.5007 Z" id="Wave-2"></path>
                        <path fill="#4f68e8" d="M0,2.5002 L0,0.5002 C12.6455523,0.5002 19.0133201,2.02846935 30.371271,6.57172544 C41.5128828,11.0284444 47.6451227,12.5002 59.999,12.5002 C72.3528773,12.5002 78.4851172,11.0284444 89.626354,6.57187545 C100.98468,2.02846935 107.352448,0.5002 119.998,0.5002 C132.642707,0.5002 139.009926,2.02843456 150.367412,6.57173185 C161.508426,11.0284346 167.640373,12.5002 179.994,12.5002 C192.348048,12.5002 198.480207,11.0284328 209.621599,6.57172758 C220.979457,2.02843283 227.346881,0.5002 239.992,0.5002 C252.637964,0.5002 259.005937,2.02846762 270.36426,6.57172117 C281.50625,11.0284427 287.638701,12.5002 299.993,12.5002 C312.348332,12.5002 318.481258,11.0283909 329.6235,6.57171691 C340.982321,2.02841596 347.350234,0.5002 359.996,0.5002 C372.642355,0.5002 379.010394,2.02842763 390.369369,6.57171477 C401.511894,11.0284276 407.644688,12.5002 420,12.5002 L420,14.5002 C407.353645,14.5002 400.985606,12.9719724 389.626631,8.42868523 C378.484106,3.97197237 372.351312,2.5002 359.996,2.5002 C347.64128,2.5002 341.508617,3.97195904 330.366625,8.4285331 C319.007554,12.9719341 312.639376,14.5002 299.993,14.5002 C287.347646,14.5002 280.979938,12.9719823 269.621865,8.42882882 C258.479625,3.97200738 252.346911,2.5002 239.992,2.5002 C227.637952,2.5002 221.505793,3.97196717 210.364401,8.42867242 C199.006543,12.9719672 192.639119,14.5002 179.994,14.5002 C167.349293,14.5002 160.982074,12.9719654 149.624588,8.42866815 C138.483574,3.97196544 132.351627,2.5002 119.998,2.5002 C107.643511,2.5002 101.511008,3.97200565 90.369521,8.42867456 C79.0114453,12.9719806 72.6439422,14.5002 59.999,14.5002 C47.3540578,14.5002 40.9865547,12.9719806 29.628854,8.42882456 C18.4869924,3.97200565 12.3544893,2.5002 0,2.5002 Z" id="Wave-1"></path>
                    </g>
                </g>
            </g>
        </g>
    </g>
</svg>