<svg width="650" height="500" viewBox="0 0 650 500" version="1.1" xmlns="http://www.w3.org/2000/svg" xmlns:xlink="http://www.w3.org/1999/xlink">
<g id="Canvas" fill="none">
<g id="Illustration">
<g id="Home page/Illustations/why us">
<g id="Home page/Illustations/why us_2">
<g id="Asset 1">
<g id="Shape_4" style="mix-blend-mode:multiply" transform="translate(104.044 231.105)">
<path fill-rule="evenodd" clip-rule="evenodd" d="M 296.096 3.18182L 440.394 86.3137C 442.907 87.7651 444.455 90.4428 444.456 93.3405C 444.456 96.2382 442.91 98.9167 440.397 100.369L 172.148 254.903C 164.786 259.145 155.715 259.145 148.353 254.903L 4.05206 171.761C 1.5437 170.308 0 167.633 0 164.738C 0 161.844 1.5437 159.169 4.05206 157.716L 272.302 3.18182C 279.663 -1.06061 288.734 -1.06061 296.096 3.18182ZM 169.146 196.722L 338.212 99.3264L 338.215 99.3232C 340.358 98.0866 341.678 95.8036 341.678 93.3332C 341.678 90.8627 340.358 88.5798 338.215 87.3432L 293.097 61.3564C 287.59 58.1862 280.807 58.1862 275.3 61.3564L 106.234 158.755C 104.089 159.99 102.768 162.274 102.768 164.745C 102.768 167.216 104.089 169.5 106.234 170.735L 151.352 196.722C 156.858 199.892 163.64 199.892 169.146 196.722Z" fill="#1d2c7f"/>
</g>
<path id="Oval" d="M 3.74284 7.4964C 5.80995 7.4964 7.48568 5.81828 7.48568 3.7482C 7.48568 1.67813 5.80995 0 3.74284 0C 1.67573 0 0 1.67813 0 3.7482C 0 5.81828 1.67573 7.4964 3.74284 7.4964Z" transform="matrix(0.373445 -0.927652 0.928279 0.371884 442.355 250.015)" fill="#FFC891"/>
<path id="Shape_5" d="M 26.2548 3.23992C 26.2548 3.23992 21.6441 11.6988 18.8797 16.605C 16.0061 21.7122 2.98963 33.6632 2.98963 33.6632L 0 30.0499C 0 30.0499 9.80502 17.3008 12.5455 11.3541C 14.7468 6.56602 18.0947 0 18.0947 0L 26.2548 3.23992Z" transform="translate(447.232 214.274)" fill="#FFC891"/>
<path id="Shape_6" d="M 6.72667 3.56784L 0.285288 19.3791C -0.642402 21.655 0.767162 24.4664 3.42894 25.6542C 6.09072 26.8419 9.00164 25.9597 9.93261 23.6838L 16.3674 7.86908C 19.1898 0.928057 9.51957 -3.46587 6.72667 3.56784Z" transform="translate(460.359 204.923)" fill="#454563"/>
<path id="Shape_7" d="M 0.0380017 3.21013C -0.177161 4.70851 0.534432 6.1885 1.84066 6.95935C 3.14688 7.7302 4.7902 7.63992 6.00362 6.73066C 7.21705 5.82139 7.76133 4.27241 7.38245 2.80667C 7.00356 1.34093 5.77621 0.247415 4.27323 0.0365126C 2.22612 -0.248894 0.332839 1.16982 0.0380017 3.21013Z" transform="translate(194.061 317.134)" fill="#FFC891"/>
<path id="Shape_8" d="M 0 3.23992C 0 3.23992 4.60652 11.6956 7.36839 16.605C 10.2394 21.7122 23.244 33.6632 23.244 33.6632L 26.2548 30.0467C 26.2548 30.0467 16.4587 17.3008 13.7241 11.3509C 11.5214 6.56283 8.17649 0 8.17649 0L 0 3.23992Z" transform="translate(173.432 287.211)" fill="#FFC891"/>
<path id="Shape_9" d="M 10.1561 3.56499L 16.5944 19.3782C 17.5189 21.6539 16.1093 24.4616 13.4474 25.6527C 10.7855 26.8438 7.87452 25.9582 6.94352 23.6825L 0.508493 7.86926C -2.30745 0.928881 7.36313 -3.46463 10.1561 3.56499Z" transform="translate(169.681 275.99)" fill="white"/>
<path id="Shape_10" d="M 4.84272 1.72598C 4.84272 10.3914 5.51864 12.9184 2.41323 18.8842C -0.692185 24.85 -3.37674 37.4036 11.7231 37.4036C 26.8229 37.4036 27.5084 15.2337 25.3499 5.58161C 23.1914 -4.07049 4.84272 1.72598 4.84272 1.72598Z" transform="translate(147.177 259.158)" fill="#454563"/>
<path id="Shape_11" d="M 0 12.763L 22.4001 0L 26.2548 2.1984L 3.85472 14.9614L 0 12.763Z" transform="translate(143.426 283.47)" fill="#CAD0E6"/>
<path id="Shape_12" d="M 22.5041 0L 22.5041 31.9297L 0 44.8843L 0 12.9546L 22.5041 0Z" transform="translate(147.177 287.211)" fill="#E1E6F0"/>
<path id="Shape_13" d="M 22.5041 0L 22.5041 4.67648L 0 16.8316L 0 12.1521L 22.5041 0Z" transform="translate(167.806 330.225)" fill="#5E64A6"/>
<path id="Shape_14" d="M 22.1237 0L 43.1328 12.7523L 21.0091 26.1825L 0 13.4303L 22.1237 0Z" transform="translate(147.177 317.134)" fill="white"/>
<path id="Shape_15" d="M 4.02786 2.18996L 0 0L 0 36.2327L 26.2548 50.4949L 26.2548 45.5989L 4.02786 33.5267L 4.02786 2.18996Z" transform="translate(143.426 296.562)" fill="#CAD0E6"/>
<path id="Shape_16" d="M 0 0L 26.2543 0L 26.2543 10.4497C 26.2543 14.1264 24.8764 17.6526 22.4239 20.2524C 19.9713 22.8522 16.6449 24.3128 13.1765 24.3128L 13.0778 24.3128C 5.85511 24.3128 0 18.1061 0 10.4497L 0 0Z" transform="matrix(0.995994 -0.0894217 0.0898542 0.995955 155.515 316.486)" fill="#454563"/>
<path id="Shape_17" d="M 29.982 42.5447C 30.4438 47.8457 24.029 51.8395 16.2572 52.3265C 8.48533 52.8135 2.21508 48.604 1.84125 44.3128L 0.0255167 15.5523C -0.276948 10.3201 2.12656 5.31754 6.33066 2.42894C 10.5348 -0.459647 15.9007 -0.795403 20.4073 1.54815C 24.9139 3.89171 27.8764 8.55854 28.1788 13.7907L 29.982 42.5447Z" transform="translate(150.928 275.99)" fill="#5E64A6"/>
<path id="Oval_2" d="M 4.67697 14.9979C 7.25998 14.9979 9.35393 11.6405 9.35393 7.49893C 9.35393 3.35739 7.25998 0 4.67697 0C 2.09395 0 0 3.35739 0 7.49893C 0 11.6405 2.09395 14.9979 4.67697 14.9979Z" transform="matrix(0.0104973 -0.999945 0.999945 0.0104464 159.321 284.328)" fill="white"/>
<path id="Oval_3" d="M 10.291 20.6188C 15.9745 20.6188 20.5819 16.0031 20.5819 10.3094C 20.5819 4.61567 15.9745 0 10.291 0C 4.60743 0 0 4.61567 0 10.3094C 0 16.0031 4.60743 20.6188 10.291 20.6188Z" transform="matrix(0.256872 -0.966445 0.966754 0.255708 154.259 269.273)" fill="#FFC891"/>
<path id="Shape_18" d="M 0.110608 0L 0 10.3459C 0 11.8368 2.04446 13.0665 4.60272 13.0909C 7.16098 13.1153 9.24112 11.9309 9.2661 10.4434L 9.37671 0.0975372L 0.110608 0Z" transform="translate(162.18 268.509)" fill="#FFC891"/>
<path id="Shape_19" d="M 0.123657 3.27015C 0.495429 4.79621 1.57725 5.82761 2.5452 5.57152C 3.51315 5.31542 3.99545 3.87005 3.62703 2.34049C 3.2586 0.810922 2.17343 -0.216974 1.20548 0.0391232C 0.237533 0.29522 -0.244766 1.74059 0.123657 3.27015Z" transform="translate(158.429 261.028)" fill="#FFC891"/>
<path id="Shape_20" d="M 10.5833 11.2702C 10.5833 11.2702 24.3794 14.0877 24.3794 9.39182C 24.3794 4.69591 19.7231 0 13.7163 0C 7.70962 0 0 3.70279 0 13.0851C 0 22.4674 7.45352 24.2728 10.5833 11.2702Z" transform="translate(152.803 247.937)" fill="#454563"/>
<path id="Shape_21" d="M 3.55653 2.21149C 4.01579 3.72457 3.63198 5.21639 2.70364 5.54594C 1.77529 5.87548 0.653401 4.91165 0.194148 3.39857C -0.265104 1.88549 0.1187 0.393669 1.04705 0.0641228C 1.97539 -0.265424 3.10056 0.709042 3.55653 2.21149Z" transform="translate(158.429 262.898)" fill="#FFC891"/>
<path id="Shape_22" d="M 1.77778 0.737527C 2.00821 1.24126 1.81618 1.74036 1.35212 1.84897C 0.888065 1.95757 0.327994 1.63869 0.0975644 1.13265C -0.132865 0.626614 0.0591596 0.129816 0.523218 0.0212141C 0.987277 -0.0873881 1.55055 0.231487 1.77778 0.737527Z" transform="translate(158.429 264.769)" fill="#C27361"/>
<path id="Shape_23" d="M 26.2548 12.763L 3.85473 0L 0 2.1984L 22.4001 14.9614L 26.2548 12.763Z" transform="translate(479.113 212.404)" fill="white"/>
<path id="Shape_24" d="M 0 0L 0 31.9297L 22.5041 44.8843L 22.5041 12.9546L 0 0Z" transform="translate(479.113 214.274)" fill="#E1E6F0"/>
<path id="Shape_25" d="M 0 0L 0 4.67648L 22.5041 16.8316L 22.5041 12.1521L 0 0Z" transform="translate(458.484 259.158)" fill="#5E64A6"/>
<path id="Shape_26" d="M 21.0091 0L 0 12.7523L 22.1237 26.1825L 43.1328 13.4303L 21.0091 0Z" transform="translate(458.484 246.067)" fill="white"/>
<path id="Shape_27" d="M 22.2269 2.18996L 26.2548 0L 26.2548 36.2327L 0 50.4949L 0 45.5989L 22.2269 33.5267L 22.2269 2.18996Z" transform="translate(480.988 223.625)" fill="#CAD0E6"/>
<path id="Shape_28" d="M 13.0841 6.5878e-06L 13.1828 6.5878e-06C 20.402 6.5878e-06 26.2543 6.20674 26.2543 13.8631L 26.2543 24.3128L 0 24.3128L 0 13.8631C -1.64608e-06 10.1841 1.37891 6.65588 3.83303 4.05565C 6.28715 1.45542 9.61519 -0.00357751 13.0841 6.5878e-06Z" transform="matrix(-0.99592 -0.0902409 0.0906772 -0.99588 491.084 267.774)" fill="#454563"/>
<path id="Shape_29" d="M 0.0237178 42.5438C -0.441198 47.8451 5.99223 51.8358 13.745 52.3261C 21.4978 52.8163 27.7899 48.6001 28.1637 44.312L 29.9794 15.5503C 30.4487 7.46536 24.5297 0.515413 16.7591 0.0271408C 8.98848 -0.461132 2.30869 5.69717 1.8394 13.7821L 0.0237178 42.5438Z" transform="translate(465.985 203.053)" fill="#E36F6F"/>
<path id="Oval_4" d="M 7.50136 7.48072C 11.6443 7.48072 15.0027 5.80611 15.0027 3.74036C 15.0027 1.67462 11.6443 0 7.50136 0C 3.35847 0 0 1.67462 0 3.74036C 0 5.80611 3.35847 7.48072 7.50136 7.48072Z" transform="matrix(0.999945 -0.0104464 0.0104973 0.999945 473.448 203.131)" fill="white"/>
<path id="Oval_5" d="M 10.3027 20.5953C 15.9928 20.5953 20.6055 15.9849 20.6055 10.2976C 20.6055 4.61041 15.9928 0 10.3027 0C 4.61269 0 0 4.61041 0 10.2976C 0 15.9849 4.61269 20.5953 10.3027 20.5953Z" transform="matrix(0.732061 -0.681239 0.683012 0.730407 467.35 190.394)" fill="#FFC891"/>
<path id="Shape_30" d="M 9.2661 0L 9.37671 10.3459C 9.37671 11.8368 7.33224 13.0665 4.77399 13.0909C 2.21573 13.1153 0.135584 11.9309 0.110608 10.4434L 0 0.0975372L 9.2661 0Z" transform="translate(477.237 197.442)" fill="#FFC891"/>
<path id="Shape_31" d="M 3.62703 3.27009C 3.25525 4.79963 2.17343 5.82751 1.20548 5.57142C 0.237533 5.31532 -0.244766 3.86998 0.123657 2.34044C 0.49208 0.810907 1.57725 -0.21697 2.5452 0.0391225C 3.51315 0.295215 3.99545 1.74056 3.62703 3.27009Z" transform="translate(486.614 189.961)" fill="#FFC891"/>
<path id="Shape_32" d="M 17.8 18.5801C 18.3771 18.9116 19.4276 18.5205 20.0842 17.9538C 20.4657 17.6062 20.762 17.1817 20.9516 16.711C 21.4577 15.7021 21.8817 14.6573 22.2198 13.5857C 22.898 10.6978 22.3516 7.6697 20.7007 5.16835C 19.0499 2.66701 16.4301 0.897528 13.4182 0.249591C 7.63688 -0.996528 1.6413 2.61921 0.165734 6.74532C -1.34439 10.9775 7.744 16.0249 16.086 10.9775C 16.086 10.9775 17.3162 13.1582 17.2609 14.4474C 17.2056 15.7366 16.905 18.083 17.8 18.5801Z" transform="translate(471.611 178.74)" fill="#454563"/>
<path id="Shape_33" d="M 3.61628 3.28823C 3.232 4.81631 2.14266 5.83502 1.1803 5.56805C 0.217936 5.30107 -0.24988 3.84677 0.134397 2.3222C 0.518674 0.797639 1.60801 -0.224592 2.57038 0.0423824C 3.53274 0.309357 4.00056 1.76366 3.61628 3.28823Z" transform="translate(484.739 191.832)" fill="#FFC891"/>
<path id="Shape_34" d="M 1.80988 1.09635C 1.61739 1.60654 1.07255 1.94514 0.589697 1.85592C 0.106845 1.76669 -0.124793 1.28167 0.0676953 0.77376C 0.260183 0.265855 0.805023 -0.0750357 1.28461 0.0141909C 1.7642 0.103417 1.9991 0.588444 1.80988 1.09635Z" transform="translate(486.614 191.832)" fill="#C27361"/>
<g id="Oval_6" style="mix-blend-mode:multiply" transform="translate(330.961 459.267)">
<path d="M 25.3171 28.0527C 39.2994 28.0527 50.6342 21.7729 50.6342 14.0263C 50.6342 6.27981 39.2994 0 25.3171 0C 11.3349 0 0 6.27981 0 14.0263C 0 21.7729 11.3349 28.0527 25.3171 28.0527Z" fill="#1d2c7f"/>
</g>
<path id="Shape_35" d="M 33.059 0.3996L 1.48301 18.7441C 0.56544 19.277 0.000120473 20.262 1.92528e-08 21.3281C -0.000120435 22.3941 0.564976 23.3793 1.48242 23.9124C 2.39987 24.4455 3.53029 24.4457 4.44786 23.9127L 36.0238 5.56825C 36.9414 5.03533 37.5067 4.05032 37.5068 2.98426C 37.507 1.91821 36.9419 0.933071 36.0244 0.39994C 35.107 -0.133192 33.9765 -0.133321 33.059 0.3996Z" transform="translate(340.338 461.137)" fill="#5E64A6"/>
<path id="Shape_36" d="M 4.35915 0.380321L 34.2226 17.181C 35.581 17.9774 36.0342 19.6875 35.2414 21.0254C 34.4487 22.3632 32.7024 22.8355 31.3156 22.087L 1.45212 5.28317C 0.062905 4.50083 -0.412511 2.76907 0.390245 1.41519C 1.193 0.0613055 2.96994 -0.402021 4.35915 0.380321Z" transform="translate(340.338 461.137)" fill="#5E64A6"/>
<path id="Shape_37" d="M 3.75068 0C 1.67833 0 0 1.14216 0 2.55093L 0 18.0211C 0 19.4298 1.67833 20.572 3.75068 20.572C 5.82303 20.572 7.50136 19.4298 7.50136 18.0211L 7.50136 2.55093C 7.50136 1.14216 5.82303 0 3.75068 0Z" transform="translate(355.34 451.787)" fill="#454563"/>
<path id="Shape_38" d="M 28.2466 18.8547C 28.2466 18.8547 12.305 5.92061 10.2914 12.9779C 7.79986 21.7257 6.09078 32.7416 6.09078 32.7416C 6.11697 36.591 0.973376 35.9494 0.367669 33.8739C 0.367669 33.8739 -1.03692 15.31 1.64456 5.42019C 5.55383 -8.98953 31.8808 9.89195 31.8808 9.89195L 28.2466 18.8547Z" transform="translate(336.587 419.994)" fill="#5E64A6"/>
<path id="Shape_39" d="M 22.1237 0L 43.1328 12.7506L 21.0091 26.1825L 0 13.4285L 22.1237 0Z" transform="translate(334.711 429.344)" fill="#E1E6F0"/>
<path id="Shape_40" d="M 22.5041 12.388L 0 0L 0 4.44696L 22.5041 16.8316L 22.5041 12.388Z" transform="translate(334.711 442.436)" fill="#CAD0E6"/>
<path id="Shape_41" d="M 13.3463 5.99336L 5.67244 0.584532C 3.97743 -0.515651 1.75309 -0.0193673 0.63623 1.70819C -0.480634 3.43574 -0.0904822 5.77656 1.51959 7.00813L 9.1934 12.4137C 10.2929 13.1996 11.7112 13.3098 12.9099 12.7026C 14.1086 12.0954 14.904 10.8638 14.9942 9.47532C 15.0844 8.08682 14.4555 6.75429 13.3463 5.98351L 13.3463 5.99336Z" transform="translate(327.21 444.306)" fill="#454563"/>
<path id="Shape_42" d="M 13.3759 6.03476L 5.75264 0.65967C 4.0632 -0.53155 1.77011 -0.0651603 0.63088 1.70138C -0.508351 3.46792 -0.0623165 5.86566 1.62712 7.05688L 9.25043 12.432C 10.3433 13.2026 11.7463 13.305 12.931 12.7006C 14.1156 12.0962 14.902 10.8769 14.9937 9.50199C 15.0855 8.12705 14.4688 6.80535 13.3759 6.03476Z" transform="translate(310.332 451.787)" fill="#454563"/>
<path id="Shape_43" d="M 28.8946 20.415C 28.8946 20.415 12.4312 7.22461 10.3965 14.4226C 7.88197 23.3327 6.15159 34.5529 6.15159 34.5529C 6.17806 38.4933 0.983623 37.8203 0.371539 35.7063C 0.371539 35.7063 -1.04783 16.798 1.66188 6.72797C 5.6123 -7.95232 37.5068 5.96667 37.5068 5.96667L 28.8946 20.415Z" transform="translate(319.708 425.604)" fill="#5E64A6"/>
<path id="Shape_44" d="M 13.0826 3.70564e-06L 13.1813 3.70564e-06C 20.4013 3.70564e-06 26.2543 6.20674 26.2543 13.8631L 26.2543 24.3128L 0 24.3128L 0 13.8631C -9.25887e-07 10.1847 1.37864 6.65697 3.83237 4.05684C 6.2861 1.45671 9.61372 -0.00268394 13.0826 3.70564e-06Z" transform="matrix(-0.99592 -0.0902409 0.0906772 -0.99588 367.312 451.051)" fill="#5E64A6"/>
<g id="Oval_7" style="mix-blend-mode:multiply" transform="translate(143.426 464.878)">
<path d="M 24.3794 28.0527C 37.8438 28.0527 48.7589 21.7729 48.7589 14.0263C 48.7589 6.27981 37.8438 0 24.3794 0C 10.915 0 0 6.27981 0 14.0263C 0 21.7729 10.915 28.0527 24.3794 28.0527Z" fill="#1d2c7f"/>
</g>
<path id="Shape_45" d="M 4.44795 0.399587L 36.0246 18.7434C 36.9422 19.2769 37.5072 20.2625 37.5068 21.3288C 37.5064 22.3951 36.9407 23.3802 36.0227 23.913C 35.1047 24.4458 33.9739 24.4454 33.0564 23.9119L 1.48304 5.56806C 0.565452 5.03515 0.00012049 4.05018 1.92576e-08 2.98416C -0.000120451 1.91814 0.564989 0.933039 1.48246 0.399926C 2.39992 -0.133187 3.53037 -0.133317 4.44795 0.399587Z" transform="translate(150.928 464.878)" fill="#5E64A6"/>
<path id="Shape_46" d="M 31.2591 0.379355L 1.38162 17.1935C 0.0430928 17.9986 -0.396354 19.695 0.389571 21.023C 1.1755 22.351 2.9021 22.8296 4.28738 22.1034L 34.178 5.28613C 35.0773 4.78021 35.6314 3.84511 35.6315 2.83307C 35.6316 1.82102 35.0778 0.885797 34.1786 0.379677C 33.2794 -0.126444 32.1715 -0.126567 31.2723 0.379355L 31.2591 0.379355Z" transform="translate(150.928 464.878)" fill="#5E64A6"/>
<path id="Shape_47" d="M 3.75068 0C 5.82002 0 7.50136 1.14216 7.50136 2.55093L 7.50136 18.0211C 7.50136 19.4298 5.82002 20.572 3.75068 20.572C 1.68134 20.572 0 19.4298 0 18.0211L 0 2.55093C 0 1.14216 1.67833 0 3.75068 0Z" transform="translate(164.056 457.397)" fill="#454563"/>
<path id="Shape_48" d="M 3.63461 18.8655C 3.63461 18.8655 19.5778 5.91879 21.5916 12.9838C 24.0801 21.7294 25.7927 32.7423 25.7927 32.7423C 25.7665 36.5907 30.9073 35.9493 31.5131 33.8744C 31.5131 33.8744 32.9178 15.3154 30.2361 5.42812C 26.3264 -8.99384 0 9.88587 0 9.88587L 3.63461 18.8655Z" transform="translate(158.429 425.604)" fill="#454563"/>
<path id="Shape_49" d="M 21.0075 0L 0 12.7506L 22.1254 26.1825L 43.1328 13.4285L 21.0075 0Z" transform="translate(149.053 434.955)" fill="#E1E6F0"/>
<path id="Shape_50" d="M 0 12.388L 20.6288 0L 20.6288 4.44696L 0 16.8316L 0 12.388Z" transform="translate(171.557 448.046)" fill="#CAD0E6"/>
<path id="Shape_51" d="M 1.63283 6.01075L 9.29221 0.612796C 10.988 -0.522414 13.2412 -0.0365123 14.3679 1.70735C 15.4945 3.45121 15.0828 5.81555 13.4404 7.03331L 5.78101 12.428C 4.08444 13.6245 1.7805 13.1578 0.635009 11.3858C -0.510479 9.61369 -0.0637386 7.20722 1.63283 6.01075Z" transform="translate(182.809 448.046)" fill="#788ACB"/>
<path id="Shape_52" d="M 1.56972 6.03072L 9.26525 0.615168C 10.969 -0.524436 13.2329 -0.0366536 14.3649 1.71396C 15.4969 3.46457 15.0832 5.83806 13.433 7.06053L 5.73747 12.4761C 4.03371 13.6157 1.76985 13.1279 0.637855 11.3773C -0.494139 9.62669 -0.0804607 7.2532 1.56972 6.03072Z" transform="translate(201.562 455.527)" fill="#788ACB"/>
<path id="Shape_53" d="M 8.96289 20.415C 8.96289 20.415 25.0723 7.22461 27.107 14.4226C 29.6182 23.3327 31.3519 34.5529 31.3519 34.5529C 31.3255 38.4933 36.5232 37.8203 37.1353 35.7063C 37.1353 35.7063 38.5547 16.798 35.8449 6.72797C 31.8945 -7.95232 0 5.96667 0 5.96667L 8.96289 20.415Z" transform="translate(169.681 431.215)" fill="#454563"/>
<path id="Shape_54" d="M 0 0L 26.2543 0L 26.2543 10.4497C 26.2543 18.1061 20.3991 24.3128 13.1765 24.3128L 13.0778 24.3128C 5.85511 24.3128 0 18.1061 0 10.4497L 0 0L 0 0Z" transform="matrix(0.99592 -0.0902409 0.0906772 0.99588 157.381 430.579)" fill="#5E64A6"/>
<path id="Shape_55" fill-rule="evenodd" clip-rule="evenodd" d="M 296.102 3.17963L 440.405 86.3066C 442.912 87.7597 444.455 90.4343 444.456 93.3276C 444.456 96.2209 442.915 98.8962 440.408 100.351L 172.15 254.903C 164.788 259.145 155.717 259.145 148.355 254.903L 4.04944 171.776C 1.54254 170.322 0 167.647 0 164.754C 0 161.86 1.54254 159.185 4.04944 157.732L 272.307 3.17963C 279.67 -1.05988 288.74 -1.05988 296.102 3.17963ZM 169.148 196.726L 338.219 99.3207L 338.223 99.3207C 340.374 98.0854 341.7 95.7973 341.7 93.3205C 341.7 90.8437 340.374 88.5556 338.223 87.3203L 293.104 61.3307C 287.597 58.1569 280.812 58.1569 275.306 61.3307L 106.235 158.755C 104.09 159.99 102.768 162.274 102.768 164.746C 102.768 167.217 104.09 169.501 106.235 170.736L 151.354 196.726C 156.859 199.9 163.643 199.9 169.148 196.726Z" transform="translate(104.044 208.663)" fill="#CAD0E6"/>
<path id="Shape_56" fill-rule="evenodd" clip-rule="evenodd" d="M 296.102 3.18201L 440.405 86.3175C 442.912 87.7706 444.455 90.4452 444.456 93.3383C 444.456 96.2316 442.915 98.9066 440.408 100.361L 172.15 254.905C 164.787 259.145 155.718 259.145 148.355 254.905L 4.04944 171.769C 1.54254 170.316 0 167.641 0 164.748C 0 161.855 1.54254 159.18 4.04944 157.726L 272.307 3.18201C 279.669 -1.06067 288.74 -1.06067 296.102 3.18201ZM 169.148 196.731L 338.219 99.3278L 338.223 99.3278C 340.366 98.0912 341.686 95.808 341.686 93.3375C 341.686 90.8668 340.366 88.5839 338.223 87.3473L 293.104 61.3593C 287.597 58.1854 280.812 58.1854 275.306 61.3593L 106.235 158.759C 104.09 159.995 102.768 162.279 102.768 164.751C 102.768 167.223 104.09 169.507 106.235 170.743L 151.354 196.731C 156.859 199.905 163.643 199.905 169.148 196.731Z" transform="translate(104.044 203.053)" fill="white"/>
<path id="Shape_57" d="M 14.0295 0.676414L 42.2688 17.4963C 42.8034 17.814 43.1328 18.402 43.1328 19.0384C 43.1328 19.6748 42.8034 20.2628 42.2688 20.5805L 34.0081 25.5051C 32.4916 26.4083 30.6231 26.4083 29.1066 25.5051L 0.86402 8.68524C 0.329437 8.36753 0 7.77955 0 7.14314C 0 6.50672 0.329437 5.91874 0.86402 5.60103L 9.13126 0.676414C 10.647 -0.225471 12.5138 -0.225471 14.0295 0.676414Z" transform="translate(435.979 242.326)" fill="#454563"/>
<path id="Shape_58" d="M 14.0227 0.66694L 42.269 17.4909C 42.8036 17.8096 43.1328 18.3981 43.1328 19.035C 43.1328 19.6719 42.8036 20.2605 42.269 20.5792L 34.0063 25.505C 32.4894 26.4084 30.6205 26.4084 29.1036 25.505L 0.863795 8.69454C 0.329237 8.37583 0 7.78727 0 7.15038C 0 6.51349 0.329237 5.92494 0.863795 5.60623L 9.13308 0.680426C 10.6443 -0.221968 12.5068 -0.227105 14.0227 0.66694Z" transform="translate(435.979 240.456)" fill="#5E64A6"/>
<path id="Shape_59" d="M 29.1 0.677361L 0.863824 17.4966C 0.329363 17.8143 0 18.4023 0 19.0387C 0 19.6751 0.329363 20.263 0.863824 20.5807L 9.13245 25.5052C 10.6486 26.4083 12.5167 26.4083 14.0329 25.5052L 42.269 8.68589C 42.8035 8.3682 43.1329 7.78024 43.1329 7.14385C 43.1329 6.50745 42.8035 5.9195 42.269 5.6018L 34.0004 0.677361C 32.4842 -0.225787 30.6162 -0.225787 29.1 0.677361Z" transform="translate(302.83 397.552)" fill="#454563"/>
<path id="Shape_60" d="M 29.1001 0.677274L 0.863403 17.4944C 0.329087 17.813 0 18.4013 0 19.0379C 0 19.6745 0.329087 20.2629 0.863403 20.5814L 9.1322 25.5052C 10.6484 26.4083 12.5165 26.4083 14.0327 25.5052L 42.2694 8.68815C 42.8038 8.36956 43.1329 7.78124 43.1329 7.14461C 43.1329 6.50798 42.8038 5.91966 42.2694 5.60108L 34.0007 0.677274C 32.4844 -0.225758 30.6164 -0.225758 29.1001 0.677274Z" transform="translate(302.83 397.552)" fill="#5E64A6"/>
<path id="Shape_61" d="M 4.20116 0.38802L 43.7993 23.6369C 45.7083 24.7593 46.8839 26.8319 46.8835 29.0745L 46.8835 58.8871C 46.8798 59.8963 46.3496 60.8277 45.4908 61.3335C 44.6321 61.8393 43.5739 61.8437 42.7113 61.3448L 3.08748 38.0927C 1.1772 36.9727 9.06713e-05 34.9008 1.44062e-06 32.6583L 1.44062e-06 2.84248C -0.00101281 1.82478 0.53359 0.884339 1.40131 0.377385C 2.26904 -0.12957 3.33718 -0.125512 4.20116 0.38802Z" transform="translate(409.725 204.923)" fill="#5E64A6"/>
<path id="Shape_62" d="M 4.17485 0.373534L 43.7973 23.6282C 45.7081 24.7505 46.8846 26.8239 46.8835 29.0673L 46.8835 58.8873C 46.8806 59.897 46.3499 60.8291 45.4902 61.3347C 44.6304 61.8403 43.5711 61.8432 42.7087 61.3424L 3.08939 38.0877C 1.17792 36.9674 8.92857e-05 34.895 0 32.6519L 0 2.83188C 0.00181281 1.82157 0.531992 0.888479 1.39195 0.382094C 2.25191 -0.12429 3.31189 -0.127551 4.17485 0.373534Z" transform="translate(409.725 206.793)" fill="#92A5EB"/>
<path id="Shape_63" d="M 8.31852 0L 16.8781 4.7413L 8.5562 9.3509L 0 4.6096L 8.31852 0Z" transform="translate(424.728 257.288)" fill="#E1E6F0"/>
<path id="Shape_64" d="M 0 0L 9.37671 4.25548L 9.37671 5.61054L 0 1.35218L 0 0Z" transform="translate(424.728 261.028)" fill="#E1EAFA"/>
<path id="Shape_65" d="M 0 26.1825L 0 0.808421L 1.31637 0L 1.31637 23.7607L 9.37671 18.8242L 9.37671 20.441L 0 26.1825Z" transform="translate(430.354 244.197)" fill="#5E64A6"/>
<path id="Shape_66" d="M 1.28799 0L 9.37671 4.83995L 8.09188 5.61054L 0 0.770589L 1.28799 0Z" transform="translate(422.853 240.456)" fill="#5E64A6"/>
<path id="Shape_67" d="M 0 0L 9.37671 4.67756L 9.37671 28.0527L 0 23.3751L 0 0Z" transform="translate(422.853 240.456)" fill="#92A5EB"/>
<path id="Shape_68" d="M 8.44069 0L 16.8781 4.67545L 8.44069 9.3509L 0 4.67545L 8.44069 0Z" transform="translate(207.189 401.292)" fill="#E1E6F0"/>
<path id="Shape_69" d="M 8.08871 23.4984L 8.08871 0.773839L 9.37671 0L 9.37671 24.2887L 0 29.9229L 0 28.3587L 8.08871 23.4984Z" transform="translate(216.565 384.46)" fill="#5E64A6"/>
<path id="Shape_70" d="M 1.28483 0L 9.37671 4.8404L 8.08871 5.61054L 0 0.770139L 1.28483 0Z" transform="translate(216.565 378.85)" fill="#CAD0E6"/>
<path id="Shape_71" d="M 0 0L 9.37671 4.61585L 9.37671 26.1825L 0 21.5698L 0 0Z" transform="translate(216.565 380.72)" fill="#92A5EB"/>
<path id="Shape_72" d="M 0 0L 0 1.36597L 9.37671 5.61054L 9.37671 4.24457L 0 0Z" transform="translate(207.189 406.902)" fill="#92A5EB"/>
<path id="Shape_73" d="M 4.18626 0.38095L 43.7952 23.6303C 45.708 24.7516 46.8857 26.8266 46.8835 29.0714L 46.8835 58.8847C 46.8817 59.8948 46.3517 60.8277 45.4921 61.3339C 44.6324 61.8402 43.5728 61.8435 42.7101 61.3425L 3.08833 38.0866C 1.18098 36.9677 0.00418814 34.9007 0 32.6618L 0 2.83547C 0.0003294 1.82195 0.532537 0.885624 1.39609 0.379301C 2.25964 -0.127022 3.32329 -0.126394 4.18626 0.38095Z" transform="translate(197.812 345.187)" fill="#5E64A6"/>
<path id="Shape_74" d="M 46.8835 28.5945C 46.8834 26.388 45.7057 24.3493 43.7944 23.2472L 4.17456 0.367459C 3.31166 -0.125477 2.25176 -0.122269 1.39186 0.37588C 0.531956 0.874029 0.00181269 1.79195 0 2.78582L 0 29.0281L 46.8835 56.1054L 46.8835 28.5945Z" transform="translate(195.936 347.057)" fill="#454563"/>
<path id="Shape_75" d="M 3.08617 8.47156L 42.7087 31.4244C 43.5716 31.919 44.6316 31.9157 45.4916 31.4159C 46.3515 30.9161 46.8817 29.9951 46.8835 28.9979L 46.8835 27.1515L 0 0L 0 3.11924C 0.00532858 5.32752 1.18088 7.36628 3.08617 8.47156Z" transform="translate(195.936 375.109)" fill="#92A5EB"/>
<path id="Shape_76" d="M 2.0114 0.182896L 21.0242 11.4549C 21.9406 11.9997 22.5046 13.0049 22.5041 14.0923L 22.5041 28.5475C 22.5051 29.039 22.25 29.4936 21.8353 29.7392C 21.4207 29.9849 20.9098 29.984 20.4959 29.7371L 1.48309 18.4651C 0.566467 17.9217 0.00129018 16.9178 0 15.831L 0 1.37578C 0.00117663 0.884331 0.256933 0.430652 0.671364 0.184868C 1.0858 -0.0609164 1.59628 -0.0616678 2.0114 0.182896Z" transform="translate(207.189 358.278)" fill="#F9E566"/>
<path id="Shape_77" d="M 8.43903 0L 0 4.67545L 8.43903 9.3509L 16.8781 4.67545L 8.43903 0Z" transform="translate(300.955 397.552)" fill="#E1E6F0"/>
<path id="Shape_78" d="M 1.28756 23.4991L 1.28756 0.773754L 0 0L 0 24.2893L 9.37671 29.9229L 9.37671 28.3589L 1.28756 23.4991Z" transform="translate(300.955 378.85)" fill="#5E64A6"/>
<path id="Shape_79" d="M 8.08915 0L 0 4.83995L 1.28756 5.61054L 9.37671 0.770589L 8.08915 0Z" transform="translate(300.955 373.239)" fill="#CAD0E6"/>
<path id="Shape_80" d="M 9.37671 0L 0 4.61272L 0 26.1825L 9.37671 21.5698L 9.37671 0Z" transform="translate(300.955 375.109)" fill="#92A5EB"/>
<path id="Shape_81" d="M 9.37671 0L 9.37671 1.36597L 0 5.61054L 0 4.24457L 9.37671 0Z" transform="translate(308.457 401.292)" fill="#92A5EB"/>
<path id="Shape_82" d="M 42.7023 0.377276L 3.08618 23.6285C 1.17546 24.7492 -0.00123513 26.8217 9.72929e-07 29.0643L 9.72929e-07 58.8841C 0.00181379 59.8944 0.531993 60.8275 1.39195 61.3338C 2.25191 61.8402 3.31189 61.8435 4.17485 61.3424L 43.7974 38.0879C 45.7076 36.9652 46.8839 34.892 46.8835 32.6489L 46.8835 2.82907C 46.8807 1.81793 46.3488 0.884724 45.4872 0.37951C 44.6256 -0.125704 43.5646 -0.126555 42.7023 0.377276Z" transform="translate(280.327 341.446)" fill="#5E64A6"/>
<path id="Shape_83" d="M 9.96909e-08 28.6016C -0.00039537 26.3942 1.17584 24.3541 3.08596 23.2492L 42.709 0.365272C 43.5721 -0.125713 44.6309 -0.121463 45.4901 0.376436C 46.3493 0.874335 46.8798 1.79106 46.8835 2.78443L 46.8835 29.0192L 9.96909e-08 56.1054L 9.96909e-08 28.6016Z" transform="translate(282.202 341.446)" fill="#454563"/>
<path id="Shape_84" d="M 43.8008 8.48399L 4.17456 31.4268C 3.31141 31.9191 2.25263 31.9148 1.39344 31.4157C 0.534255 30.9165 0.00376994 29.9974 0 29.0015L 0 27.1559L 46.8835 0L 46.8835 3.11788C 46.8839 5.33013 45.7092 7.375 43.8008 8.48399Z" transform="translate(282.202 369.499)" fill="#92A5EB"/>
<path id="Shape_85" d="M 11.9475 0.122581L 0.878281 7.16493C 0.339083 7.50026 0.00400505 8.12795 2.61617e-07 8.81019L 2.61617e-07 17.843C -0.000227864 18.1504 0.14875 18.4344 0.390562 18.5876C 0.632373 18.7408 0.930084 18.7398 1.17104 18.585L 12.2667 11.5426C 12.7995 11.2028 13.1276 10.5758 13.1274 9.89735L 13.1274 0.864561C 13.1295 0.554159 12.9793 0.266697 12.7347 0.112835C 12.49 -0.0410272 12.189 -0.0373003 11.9475 0.122581Z" transform="translate(302.83 362.018)" fill="#788ACB"/>
<path id="Shape_86" d="M 20.488 0.168789L 1.48249 10.7398C 0.565508 11.2497 0.000446629 12.1919 0 13.2118L 0 26.7687C 0.00622376 27.2271 0.262494 27.6485 0.674575 27.878C 1.08666 28.1075 1.59371 28.1111 2.00929 27.8876L 21.0216 17.3133C 21.9396 16.8044 22.505 15.8615 22.5041 14.8413L 22.5041 1.28444C 22.498 0.824604 22.2403 0.40203 21.8263 0.172936C 21.4124 -0.056157 20.9036 -0.0577337 20.488 0.168789Z" transform="translate(289.703 358.278)" fill="white"/>
<path id="Shape_87" d="M 29.0972 0.681577L 0.864225 17.5013C 0.329516 17.819 0 18.4069 0 19.0433C 0 19.6798 0.329516 20.2677 0.864225 20.5854L 9.13343 25.51C 10.6462 26.4067 12.507 26.4067 14.0198 25.51L 42.2691 8.69031C 42.8036 8.37168 43.1328 7.78327 43.1328 7.14654C 43.1328 6.50981 42.8036 5.9214 42.2691 5.60277L 33.9999 0.681577C 32.4844 -0.227192 30.6126 -0.227192 29.0972 0.681577Z" transform="translate(173.432 311.523)" fill="#454563"/>
<path id="Shape_88" d="M 29.0969 0.677487L 0.864216 17.4999C 0.329512 17.8176 0 18.4057 0 19.0422C 0 19.6787 0.329512 20.2668 0.864216 20.5845L 9.13333 25.5099C 10.6461 26.4067 12.5069 26.4067 14.0196 25.5099L 42.2686 8.6875C 42.8033 8.36975 43.1328 7.78168 43.1328 7.14517C 43.1328 6.50866 42.8033 5.92059 42.2686 5.60284L 33.9995 0.677487C 32.4826 -0.225829 30.6138 -0.225829 29.0969 0.677487Z" transform="translate(173.432 311.523)" fill="#5E64A6"/>
<path id="Shape_89" d="M 42.7002 0.379111L 3.08854 23.6346C 1.1776 24.7548 8.92613e-05 26.827 0 29.0698L 0 58.8867C 0.00376916 59.8961 0.534146 60.8275 1.39316 61.3334C 2.25217 61.8394 3.31073 61.8437 4.1737 61.3448L 43.7982 38.0926C 45.7079 36.9699 46.8839 34.897 46.8835 32.6541L 46.8835 2.83719C 46.8837 1.82398 46.3523 0.887602 45.4895 0.380635C 44.6267 -0.126333 43.5635 -0.126914 42.7002 0.379111Z" transform="translate(195.936 277.86)" fill="#5E64A6"/>
<path id="Shape_90" d="M 42.709 0.373588L 3.08918 23.6316C 1.18128 24.7524 0.00436371 26.8212 0 29.0617L 0 58.886C 0.00376994 59.8956 0.534255 60.8273 1.39344 61.3334C 2.25263 61.8394 3.31141 61.8437 4.17456 61.3447L 43.7944 38.0834C 45.7042 36.9646 46.8818 34.8946 46.8835 32.6534L 46.8835 2.83228C 46.8817 1.82184 46.3516 0.888607 45.4917 0.382149C 44.6318 -0.124308 43.5719 -0.127569 42.709 0.373588Z" transform="translate(197.812 277.86)" fill="#92A5EB"/>
<path id="Shape_91" d="M 8.55954 0L 0 4.7413L 8.31852 9.3509L 16.8781 4.6096L 8.55954 0Z" transform="translate(212.814 328.355)" fill="#E1E6F0"/>
<path id="Shape_92" d="M 9.37671 0L 0 4.25548L 0 5.61054L 9.37671 1.35506L 9.37671 0Z" transform="translate(220.316 333.965)" fill="#E1EAFA"/>
<path id="Shape_93" d="M 9.37671 26.1825L 9.37671 0.808315L 8.05709 0L 8.05709 23.7576L 0 18.8217L 0 20.4383L 9.37671 26.1825Z" transform="translate(212.814 315.263)" fill="#5E64A6"/>
<path id="Shape_94" d="M 8.08915 0L 0 4.83995L 1.28756 5.61054L 9.37671 0.770589L 8.08915 0Z" transform="translate(220.316 311.523)" fill="#5E64A6"/>
<path id="Shape_95" d="M 9.37671 0L 0 4.67703L 0 28.0527L 9.37671 23.3725L 9.37671 0Z" transform="translate(222.191 311.523)" fill="#92A5EB"/>
<path id="Shape_96" d="M 0.0669378 4.44368C 0.456475 6.47217 2.42135 7.80172 4.45563 7.41331C 6.48991 7.0249 7.82326 5.06562 7.43377 3.03712C 7.04428 1.00862 5.07943 -0.320967 3.04514 0.0673969C 2.06821 0.253901 1.2056 0.819755 0.647078 1.64047C 0.0885533 2.46119 -0.12013 3.46954 0.0669378 4.44368Z" transform="translate(182.809 322.744)" fill="#FFC891"/>
<path id="Shape_97" d="M 0 2.07565C 0 2.07565 2.05469 13.0059 5.5026 17.5108C 8.95051 22.0158 28.51 33.6632 28.51 33.6632L 30.0055 29.1814C 30.0055 29.1814 13.6606 17.3224 11.4238 12.4539C 9.18697 7.58538 8.06856 0 8.06856 0L 0 2.07565Z" transform="translate(154.679 296.562)" fill="#FFC891"/>
<path id="Shape_98" d="M 9.40897 4.24869L 13.0311 20.4617C 13.5515 22.7983 11.91 25.2685 9.36139 25.9862C 6.8128 26.7039 4.32369 25.392 3.80326 23.0587L 0.181114 6.84571C -1.40097 -0.271061 7.8596 -2.95153 9.40897 4.24869Z" transform="translate(150.928 283.47)" fill="white"/>
<path id="Shape_99" d="M 7.43386 4.44368C 7.04435 6.47217 5.07962 7.80172 3.0455 7.41331C 1.01138 7.0249 -0.321871 5.06562 0.0675914 3.03712C 0.457054 1.00862 2.42175 -0.320967 4.45588 0.0673969C 5.43317 0.253083 6.29627 0.818753 6.85491 1.63969C 7.41354 2.46064 7.62183 3.46944 7.43386 4.44368Z" transform="translate(458.484 255.418)" fill="#FFC891"/>
<path id="Shape_100" d="M 30.0055 2.07235C 30.0055 2.07235 27.9508 13.0059 24.5029 17.5108C 21.0549 22.0158 1.49548 33.6632 1.49548 33.6632L 0 29.1814C 0 29.1814 16.3257 17.3224 18.5721 12.4539C 20.8185 7.58538 21.9241 0 21.9241 0L 30.0055 2.07235Z" transform="translate(462.234 227.365)" fill="#FFC891"/>
<path id="Shape_101" d="M 3.71836 4.24869L 0.0962654 20.4617C -0.42415 22.7983 1.21739 25.2685 3.76594 25.9862C 6.31449 26.7039 8.80356 25.392 9.32695 23.0587L 12.9461 6.84571C 14.5281 -0.271061 5.27961 -2.95153 3.71836 4.24869Z" transform="translate(480.988 216.144)" fill="#454563"/>
<path id="Oval_8" d="M 3.74839 7.48531C 5.81857 7.48531 7.49678 5.80967 7.49678 3.74266C 7.49678 1.67564 5.81857 0 3.74839 0C 1.67821 0 0 1.67564 0 3.74266C 0 5.80967 1.67821 7.48531 3.74839 7.48531Z" transform="matrix(0.865418 -0.501051 0.502877 0.864358 327.71 403.675)" fill="#FFC891"/>
<path id="Shape_102" d="M 33.7561 3.28695C 33.7561 3.28695 28.596 17.0986 21.151 18.6174C 15.2536 19.8221 0 7.73323 0 7.73323L 2.71517 3.90871C 2.71517 3.90871 15.0835 12.9114 20.1303 9.77988C 24.7167 6.93335 25.7607 0 25.7607 0L 33.7561 3.28695Z" transform="translate(332.836 401.292)" fill="#FFC891"/>
<path id="Shape_103" d="M 6.72095 3.56566L 0.285295 19.3784C -0.642515 21.6546 0.767232 24.4663 3.43264 25.6541C 6.09804 26.842 9.00606 25.9597 9.93387 23.6835L 16.3695 7.87075C 19.1857 0.929057 9.51422 -3.46529 6.72095 3.56566Z" transform="translate(353.465 390.071)" fill="#454563"/>
<path id="Shape_104" d="M 0.0237893 42.5108C -0.441274 47.8301 5.97534 51.8377 13.7494 52.3264C 21.5235 52.815 27.7987 48.591 28.1727 44.285L 29.9889 15.4252C 30.3594 7.37634 24.4595 0.512932 16.7525 0.0272174C 9.04556 -0.458497 2.39716 5.61407 1.83691 13.651L 0.0237893 42.5108Z" transform="translate(340.338 386.33)" fill="white"/>
<path id="Oval_9" d="M 7.50136 7.48072C 11.6442 7.48072 15.0027 5.80611 15.0027 3.74036C 15.0027 1.67462 11.6442 0 7.50136 0C 3.35847 0 0 1.67462 0 3.74036C 0 5.80611 3.35847 7.48072 7.50136 7.48072Z" transform="matrix(0.999945 -0.0104464 0.0104973 0.999945 349.676 386.409)" fill="white"/>
<path id="Oval_10" d="M 10.3084 20.5839C 16.0016 20.5839 20.6169 15.976 20.6169 10.2919C 20.6169 4.60786 16.0016 0 10.3084 0C 4.61525 0 0 4.60786 0 10.2919C 0 15.976 4.61525 20.5839 10.3084 20.5839Z" transform="matrix(0.873935 -0.486042 0.487849 0.872928 344.123 370.2)" fill="#FFC891"/>
<path id="Shape_105" d="M 9.26253 0L 9.37671 10.3458C 9.37671 11.8333 7.32867 13.0629 4.77042 13.0908C 2.21216 13.1186 0.132016 11.9308 0.110608 10.4399L 0 0.094053L 9.26253 0Z" transform="translate(353.465 380.72)" fill="#FFC891"/>
<path id="Shape_106" d="M 2.96983 10.2359C 4.68434 12.4113 2.57417 15.0485 3.41494 17.5428C 4.6052 21.0867 11.6907 24.2386 16.5738 21.2494C 21.3117 18.3532 20.649 11.5511 20.5303 10.6211C 20.4116 9.69117 19.7753 4.94498 15.7594 2.1152C 10.395 -1.66116 2.04993 0.0925022 0.414556 3.66626C -0.17706 5.05327 -0.133657 6.6321 0.533253 7.984C 1.24543 9.276 2.14884 9.19297 2.96983 10.2359Z" transform="translate(349.714 358.278)" fill="#454563"/>
<path id="Shape_107" d="M 3.46175 2.05668C 4.01341 3.55026 3.75193 5.09423 2.87502 5.50812C 1.99811 5.922 0.840589 5.04385 0.288933 3.55386C -0.262722 2.06388 -0.0012441 0.516309 0.875665 0.102424C 1.75257 -0.31146 2.91009 0.566695 3.46175 2.05668Z" transform="translate(351.59 373.239)" fill="#FFC891"/>
<path id="Shape_108" d="M 1.72999 0.686257C 2.00707 1.18392 1.87631 1.70037 1.43734 1.83652C 0.998379 1.97267 0.422431 1.68393 0.145353 1.18392C -0.131725 0.68391 -0.000968753 0.169812 0.437997 0.0336584C 0.876963 -0.102495 1.45602 0.186244 1.72999 0.686257Z" transform="translate(351.59 375.109)" fill="#C27361"/>
<path id="Shape_109" d="M 0 0L 0 42.6454L 3.75068 44.8843L 3.75068 2.23894L 0 0Z" transform="translate(355.34 416.253)" fill="#CAD0E6"/>
<path id="Shape_110" d="M 0 12.763L 22.4001 0L 26.2548 2.1984L 3.85472 14.9614L 0 12.763Z" transform="translate(355.34 405.032)" fill="#CAD0E6"/>
<path id="Shape_111" d="M 22.5041 0L 22.5041 41.5627L 0 54.2352L 0 12.6693L 22.5041 0Z" transform="translate(359.091 406.902)" fill="white"/>
<path id="Oval_11" d="M 3.74206 7.49796C 5.80874 7.49796 7.48412 5.81948 7.48412 3.74898C 7.48412 1.67848 5.80874 0 3.74206 0C 1.67538 0 0 1.67848 0 3.74898C 0 5.81948 1.67538 7.49796 3.74206 7.49796Z" transform="matrix(0.232282 -0.972649 0.972903 0.231215 307.691 419.026)" fill="#FFC891"/>
<path id="Shape_112" d="M 35.6315 3.33256C 35.6315 3.33256 32.2212 18.122 24.1482 20.393C 18.5511 21.9607 0 12.7124 0 12.7124L 2.61392 8.83096C 2.61392 8.83096 19.5755 14.9439 23.1078 10.2836C 26.5823 5.72845 27.9246 0 27.9246 0L 35.6315 3.33256Z" transform="translate(312.207 406.902)" fill="#FFC891"/>
<path id="Shape_113" d="M 6.72747 3.56762L 0.283925 19.3786C -0.640328 21.6544 0.765716 24.4658 3.43032 25.6535C 6.09492 26.8412 9.00205 25.9625 9.92958 23.6832L 16.3666 7.87221C 19.1918 0.927882 9.51989 -3.46596 6.72747 3.56762Z" transform="translate(336.587 395.681)" fill="white"/>
<g id="Oval_12" style="mix-blend-mode:multiply" transform="translate(452.858 395.681)">
<path d="M 25.3171 28.0527C 39.2994 28.0527 50.6342 21.7729 50.6342 14.0264C 50.6342 6.27981 39.2994 0 25.3171 0C 11.3349 0 0 6.27981 0 14.0264C 0 21.7729 11.3349 28.0527 25.3171 28.0527Z" fill="#1d2c7f"/>
</g>
<path id="Shape_114" d="M 33.095 0.374803L 1.48525 18.7379C 0.0651425 19.5626 -0.421596 21.3893 0.398087 22.8181C 1.21777 24.2468 3.03348 24.7365 4.45358 23.9118L 36.0667 5.55207C 37.4552 4.71162 37.9185 2.90693 37.1081 1.49513C 36.2978 0.083322 34.5126 -0.415042 33.095 0.374803Z" transform="translate(460.359 395.681)" fill="#5E64A6"/>
<path id="Shape_115" d="M 4.35124 0.378669L 34.1807 17.1656C 35.0783 17.6706 35.6314 18.604 35.6315 19.6142C 35.6316 20.6244 35.0788 21.558 34.1813 22.0632C 33.2837 22.5684 32.1779 22.5685 31.2802 22.0635L 1.4508 5.27658C 0.553158 4.77157 0.000117847 3.83816 1.88318e-08 2.82795C -0.00011781 1.81773 0.552705 0.884197 1.45022 0.378991C 2.34774 -0.126215 3.45361 -0.126338 4.35124 0.378669Z" transform="translate(460.359 397.552)" fill="#5E64A6"/>
<path id="Shape_116" d="M 3.75068 0C 1.67833 0 0 1.14216 0 2.55093L 0 18.0211C 0 19.4298 1.67833 20.572 3.75068 20.572C 5.82303 20.572 7.50137 19.4298 7.50137 18.0211L 7.50137 2.55093C 7.50137 1.14216 5.82003 0 3.75068 0Z" transform="translate(473.487 390.071)" fill="#454563"/>
<path id="Shape_117" d="M 28.2495 18.8569C 28.2495 18.8569 12.303 5.90883 10.2925 12.9746C 7.80066 21.7211 6.08813 32.7351 6.08813 32.7351C 6.11433 36.6031 0.973475 35.9424 0.367706 33.8673C 0.367706 33.8673 -1.03702 15.3064 1.64473 5.42131C 5.5544 -8.98931 31.8808 9.88914 31.8808 9.88914L 28.2495 18.8569Z" transform="translate(456.609 356.407)" fill="#5E64A6"/>
<path id="Shape_118" d="M 22.1237 0L 43.1329 12.754L 21.0091 26.1825L 0 13.4319L 22.1237 0Z" transform="translate(454.734 365.758)" fill="#E1E6F0"/>
<path id="Shape_119" d="M 22.5041 12.3871L 0 0L 0 4.44453L 22.5041 16.8316L 22.5041 12.3871Z" transform="translate(454.734 378.85)" fill="#CAD0E6"/>
<path id="Shape_120" d="M 13.4403 6.05906L 5.7803 0.661969C 4.08274 -0.533401 1.77862 -0.0653872 0.633913 1.70731C -0.510795 3.48 -0.0626159 5.88609 1.63495 7.08146L 9.29177 12.4786C 10.9877 13.6136 13.2411 13.1278 14.3678 11.3842C 15.4946 9.6406 15.0828 7.27663 13.4403 6.05906Z" transform="translate(447.232 380.72)" fill="#454563"/>
<path id="Shape_121" d="M 13.4402 6.05886L 5.78009 0.661606C 4.68193 -0.111685 3.27214 -0.214444 2.08175 0.392039C 0.891369 0.998522 0.10125 2.22211 0.00902502 3.60188C -0.0831998 4.98165 0.536481 6.308 1.63464 7.08129L 9.29165 12.4785C 10.9876 13.6136 13.241 13.1278 14.3678 11.3841C 15.4946 9.6405 15.0828 7.27646 13.4402 6.05886Z" transform="translate(430.354 390.071)" fill="#454563"/>
<path id="Shape_122" d="M 28.5435 20.415C 28.5435 20.415 12.4334 7.22461 10.3986 14.4226C 7.88062 23.336 6.15347 34.5529 6.15347 34.5529C 6.17994 38.4933 0.985266 37.8203 0.369846 35.7063C 0.369846 35.7063 -1.04628 16.798 1.66355 6.72797C 5.61084 -7.95232 37.5068 5.96667 37.5068 5.96667L 28.5435 20.415Z" transform="translate(437.856 362.018)" fill="#5E64A6"/>
<path id="Shape_123" d="M 13.0937 1.02934e-05L 13.1924 1.02934e-05C 20.4088 0.0093257 26.2543 6.21333 26.2543 13.8631L 26.2543 24.3128L 0 24.3128L 0 13.8631C -2.57366e-06 10.1835 1.38001 6.65478 3.83602 4.05445C 6.29202 1.45413 9.62249 -0.00447054 13.0937 1.02934e-05Z" transform="matrix(-0.99592 -0.0902408 0.0906772 -0.99588 487.334 387.465)" fill="#5E64A6"/>
<path id="Shape_124" d="M 29.1023 0.676327L 0.863468 17.4941C 0.329112 17.8126 0 18.401 0 19.0376C 0 19.6743 0.329112 20.2626 0.863468 20.5812L 9.12962 25.5052C 10.646 26.4083 12.5142 26.4083 14.0305 25.5052L 42.2694 8.6875C 42.8037 8.3689 43.1329 7.78056 43.1329 7.1439C 43.1329 6.50725 42.8037 5.91891 42.2694 5.60031L 34 0.676327C 32.4845 -0.225442 30.6179 -0.225442 29.1023 0.676327Z" transform="translate(422.853 333.965)" fill="#454563"/>
<path id="Shape_125" d="M 29.1023 0.681526L 0.863468 17.4947C 0.329112 17.8132 0 18.4015 0 19.0382C 0 19.6748 0.329112 20.2631 0.863468 20.5816L 9.12962 25.5053C 10.646 26.4083 12.5142 26.4083 14.0305 25.5053L 42.2694 8.68875C 42.8037 8.37018 43.1329 7.78188 43.1329 7.14527C 43.1329 6.50866 42.8037 5.92036 42.2694 5.60179L 34 0.681526C 32.4863 -0.227175 30.616 -0.227175 29.1023 0.681526Z" transform="translate(422.853 333.965)" fill="#5E64A6"/>
<path id="Shape_126" d="M 8.44069 0L 0 4.67387L 8.44069 9.3509L 16.8781 4.67387L 8.44069 0Z" transform="translate(420.977 333.965)" fill="#E1E6F0"/>
<path id="Shape_127" d="M 1.28756 23.4984L 1.28756 0.773839L 0 0L 0 24.2887L 9.3767 29.9229L 9.3767 28.362L 1.28756 23.4984Z" transform="translate(419.102 315.263)" fill="#5E64A6"/>
<path id="Shape_128" d="M 8.08914 0L 0 4.83995L 1.28756 5.61054L 9.3767 0.767309L 8.08914 0Z" transform="translate(419.102 311.523)" fill="#CAD0E6"/>
<path id="Shape_129" d="M 9.37671 0L 0 4.61585L 0 26.1825L 9.37671 21.5698L 9.37671 0Z" transform="translate(420.977 311.523)" fill="#92A5EB"/>
<path id="Shape_130" d="M 9.37671 0L 9.37671 1.36597L 0 5.61054L 0 4.24744L 9.37671 0Z" transform="translate(430.354 337.706)" fill="#92A5EB"/>
<path id="Shape_131" d="M 42.709 0.37352L 3.08918 23.6273C 1.17833 24.7481 0.000751983 26.8201 0 29.0629L 0 58.8851C 0.00098594 59.8956 0.531237 60.8291 1.39165 61.3351C 2.25206 61.8411 3.31242 61.843 4.17456 61.3401L 43.7944 38.0863C 45.7057 36.966 46.8834 34.8936 46.8835 32.6507L 46.8835 2.83177C 46.8817 1.8215 46.3516 0.888445 45.4917 0.38208C 44.6318 -0.124286 43.5719 -0.127546 42.709 0.37352Z" transform="translate(400.348 275.99)" fill="#5E64A6"/>
<path id="Shape_132" d="M 0.0032112 28.6016C 0.00197518 26.3948 1.17859 24.3553 3.08918 23.2525L 42.709 0.365272C 43.5721 -0.125713 44.6309 -0.121463 45.4901 0.376436C 46.3493 0.874335 46.8798 1.79106 46.8835 2.78443L 46.8835 29.0192L 0 56.1054L 0.0032112 28.6016Z" transform="translate(402.224 277.86)" fill="#454563"/>
<path id="Shape_133" d="M 43.7944 8.47629L 4.17456 31.4244C 3.31166 31.9189 2.25176 31.9157 1.39186 31.416C 0.531956 30.9163 0.00181269 29.9955 0 28.9985L 0 27.1621L 46.8835 0L 46.8835 3.1186C 46.8792 5.32923 45.7023 7.3704 43.7944 8.47629Z" transform="translate(402.224 307.783)" fill="#92A5EB"/>
<path id="Shape_134" d="M 11.9716 0.105976L 0.880048 7.1534C 0.337967 7.48854 0.00173604 8.11881 2.62144e-07 8.80307L 2.62144e-07 17.8424C -0.000228323 18.15 0.149049 18.4342 0.391348 18.5875C 0.633646 18.7408 0.931955 18.7398 1.1734 18.5849L 12.2649 11.5407C 12.7989 11.1991 13.1274 10.5707 13.1274 9.89101L 13.1274 0.851717C 13.1251 0.549484 12.9787 0.270802 12.7418 0.117934C 12.5048 -0.0349334 12.2123 -0.0394751 11.9716 0.105976Z" transform="translate(422.853 298.432)" fill="#788ACB"/>
<path id="Oval_13" d="M 3.74206 7.49796C 5.80875 7.49796 7.48413 5.81949 7.48413 3.74898C 7.48413 1.67848 5.80875 0 3.74206 0C 1.67538 0 0 1.67848 0 3.74898C 0 5.81949 1.67538 7.49796 3.74206 7.49796Z" transform="matrix(0.232282 -0.972649 0.972903 0.231215 448.342 344.219)" fill="#FFC891"/>
<path id="Shape_135" d="M 33.7561 3.28427C 33.7561 3.28427 28.5988 17.0983 21.153 18.6174C 15.2551 19.8222 0 7.73456 0 7.73456L 2.7121 3.90615C 2.7121 3.90615 15.085 12.9136 20.1323 9.77832C 24.7191 6.93131 25.7633 0 25.7633 0L 33.7561 3.28427Z" transform="translate(452.858 335.835)" fill="#FFC891"/>
<path id="Shape_136" d="M 6.72095 3.56761L 0.285295 19.3785C -0.642515 21.6578 0.767232 24.4657 3.43264 25.6534C 6.09804 26.8411 9.00606 25.9624 9.93387 23.6865L 16.3695 7.87218C 19.1857 0.927879 9.51422 -3.46594 6.72095 3.56761Z" transform="translate(473.487 326.485)" fill="#454563"/>
<path id="Shape_137" d="M 0.0234186 42.5467C -0.438366 47.8485 5.99206 51.8395 13.7482 52.3265C 21.5043 52.8135 27.7902 48.6035 28.1672 44.3151L 29.9797 15.5511C 30.2833 10.3206 27.8821 5.31899 23.6805 2.43021C 19.4789 -0.458579 14.1154 -0.795621 9.61019 1.54604C 5.10504 3.8877 2.14273 8.55231 1.83914 13.7828L 0.0234186 42.5467Z" transform="translate(462.234 322.744)" fill="#454563"/>
<path id="Oval_14" d="M 7.50136 7.48072C 11.6443 7.48072 15.0027 5.80611 15.0027 3.74036C 15.0027 1.67462 11.6443 0 7.50136 0C 3.35847 0 0 1.67462 0 3.74036C 0 5.80611 3.35847 7.48072 7.50136 7.48072Z" transform="matrix(0.999945 -0.0104464 0.0104973 0.999945 469.697 322.823)" fill="white"/>
<path id="Oval_15" d="M 10.3143 20.5721C 16.0108 20.5721 20.6287 15.9668 20.6287 10.286C 20.6287 4.60521 16.0108 0 10.3143 0C 4.61789 0 0 4.60521 0 10.286C 0 15.9668 4.61789 20.5721 10.3143 20.5721Z" transform="matrix(0.99924 -0.0389906 0.0391804 0.999232 467.465 300.712)" fill="#FFC891"/>
<path id="Shape_138" d="M 9.2661 0L 9.37671 10.3458C 9.37671 11.8367 7.33224 13.0629 4.77399 13.0908C 2.21573 13.1186 0.135584 11.9308 0.110608 10.4399L 0 0.094053L 9.2661 0Z" transform="translate(473.487 315.263)" fill="#FFC891"/>
<path id="Shape_139" d="M 0 0L 0 42.6452L 3.75068 44.8843L 3.75068 2.23581L 0 0Z" transform="translate(475.362 352.667)" fill="#CAD0E6"/>
<path id="Shape_140" d="M 0 12.7663L 22.4001 0L 26.2548 2.1984L 3.85473 14.9614L 0 12.7663Z" transform="translate(475.362 339.576)" fill="#CAD0E6"/>
<path id="Shape_141" d="M 22.5041 0L 22.5041 41.5659L 0 54.2352L 0 12.6693L 22.5041 0Z" transform="translate(479.113 341.446)" fill="white"/>
<path id="Shape_142" d="M 5.36733 7.11477C 3.50007 8.00399 1.26337 7.21711 0.369133 5.35639C -0.525107 3.49566 0.261086 1.26433 2.12598 0.370205C 3.99088 -0.523924 6.22965 0.257072 7.12881 2.11544C 7.56212 3.011 7.61989 4.04177 7.28935 4.97989C 6.9588 5.91802 6.26717 6.68625 5.36733 7.11477Z" transform="translate(430.354 348.927)" fill="#FFC891"/>
<path id="Shape_143" d="M 35.6315 3.33584C 35.6315 3.33584 32.2212 18.1253 24.145 20.393C 18.5511 21.9607 0 12.7156 0 12.7156L 2.61392 8.83093C 2.61392 8.83093 19.5755 14.9373 23.1239 10.2836C 26.6016 5.72844 27.9407 0 27.9407 0L 35.6315 3.33584Z" transform="translate(432.229 341.446)" fill="#FFC891"/>
<path id="Shape_144" d="M 6.72096 3.56629L 0.285295 19.3781C -0.642516 21.6575 0.767232 24.4656 3.43264 25.6534C 6.09805 26.8412 9.00606 25.9624 9.93387 23.6864L 16.3695 7.87112C 19.1858 0.926413 9.51423 -3.46423 6.72096 3.56629Z" transform="translate(454.734 332.095)" fill="#454563"/>
<path id="Shape_145" d="M 2.97003 10.2323C 4.68136 12.4049 2.57105 15.0458 3.41188 17.5406C 4.60552 21.0852 11.6882 24.2377 16.5749 21.2513C 21.3132 18.3512 20.6471 11.5478 20.5317 10.621C 20.4163 9.69415 19.7766 4.94373 15.7572 2.11674C 10.3924 -1.66034 2.04677 0.0903356 0.414585 3.66477C -0.177072 5.05204 -0.133667 6.63118 0.533289 7.98333C 1.24222 9.26893 2.14569 9.18589 2.97003 10.2323Z" transform="translate(469.736 294.691)" fill="#788ACB"/>
<path id="Oval_16" d="M 2.81301 5.61054C 4.3666 5.61054 5.62603 4.35458 5.62603 2.80527C 5.62603 1.25596 4.3666 0 2.81301 0C 1.25943 0 0 1.25596 0 2.80527C 0 4.35458 1.25943 5.61054 2.81301 5.61054Z" transform="translate(467.861 298.432)" fill="#788ACB"/>
<path id="Oval_17" d="M 2.80654 5.62348C 4.35655 5.62348 5.61308 4.36462 5.61308 2.81174C 5.61308 1.25886 4.35655 0 2.80654 0C 1.25653 0 0 1.25886 0 2.81174C 0 4.36462 1.25653 5.62348 2.80654 5.62348Z" transform="matrix(0.23024 -0.973134 0.973384 0.229182 471.041 297.713)" fill="#788ACB"/>
<path id="Oval_18" d="M 2.80654 5.62348C 4.35655 5.62348 5.61308 4.36462 5.61308 2.81174C 5.61308 1.25886 4.35655 0 2.80654 0C 1.25653 0 0 1.25886 0 2.81174C 0 4.36462 1.25653 5.62348 2.80654 5.62348Z" transform="matrix(0.23024 -0.973134 0.973384 0.229181 476.667 297.713)" fill="#788ACB"/>
<path id="Oval_19" d="M 2.81301 5.61054C 4.36659 5.61054 5.62602 4.35458 5.62602 2.80527C 5.62602 1.25596 4.36659 0 2.81301 0C 1.25943 0 0 1.25596 0 2.80527C 0 4.35458 1.25943 5.61054 2.81301 5.61054Z" transform="translate(480.988 294.691)" fill="#788ACB"/>
<path id="Oval_20" d="M 2.80654 5.62348C 4.35655 5.62348 5.61308 4.36462 5.61308 2.81174C 5.61308 1.25886 4.35655 0 2.80654 0C 1.25653 0 0 1.25886 0 2.81174C 0 4.36462 1.25653 5.62348 2.80654 5.62348Z" transform="matrix(0.23024 -0.973134 0.973384 0.229182 484.169 303.324)" fill="#788ACB"/>
<path id="Oval_21" d="M 2.81201 5.61254C 4.36504 5.61254 5.62402 4.35613 5.62402 2.80627C 5.62402 1.25641 4.36504 0 2.81201 0C 1.25898 0 0 1.25641 0 2.80627C 0 4.35613 1.25898 5.61254 2.81201 5.61254Z" transform="matrix(0.924208 -0.38189 0.383478 0.92355 487.627 303.46)" fill="#788ACB"/>
<path id="Oval_22" d="M 2.81301 5.61054C 4.36659 5.61054 5.62602 4.35458 5.62602 2.80527C 5.62602 1.25596 4.36659 0 2.81301 0C 1.25943 0 0 1.25596 0 2.80527C 0 4.35458 1.25943 5.61054 2.81301 5.61054Z" transform="translate(486.614 309.653)" fill="#788ACB"/>
<path id="Oval_23" d="M 2.8096 5.61737C 4.3613 5.61737 5.61919 4.35988 5.61919 2.80869C 5.61919 1.25749 4.3613 0 2.8096 0C 1.2579 0 0 1.25749 0 2.80869C 0 4.35988 1.2579 5.61737 2.8096 5.61737Z" transform="matrix(0.707966 -0.706247 0.707966 0.706247 481.699 316.199)" fill="#788ACB"/>
<path id="Shape_146" d="M 3.46175 2.05368C 4.01341 3.54842 3.75193 5.09358 2.87502 5.50778C 1.99811 5.92199 0.840589 5.04676 0.288933 3.55202C -0.262722 2.05728 -0.0012441 0.512121 0.875665 0.101518C 1.75257 -0.309084 2.90691 0.562546 3.46175 2.05368Z" transform="translate(471.611 311.523)" fill="#FFC891"/>
<path id="Shape_147" d="M 1.73058 0.685571C 2.00798 1.18227 1.87395 1.6977 1.4376 1.83593C 1.00125 1.97417 0.418415 1.6813 0.144138 1.18461C -0.130139 0.687914 -0.00235075 0.172476 0.437116 0.0342446C 0.876582 -0.103987 1.45319 0.188876 1.73058 0.685571Z" transform="translate(471.611 311.523)" fill="#C27361"/>
<path id="Shape_148" d="M 2.13404 7.11477C 4.00129 8.00399 6.23799 7.21711 7.13223 5.35639C 8.02647 3.49566 7.24028 1.26433 5.37538 0.370205C 3.51049 -0.523924 1.27172 0.257072 0.372558 2.11544C -0.0607526 3.011 -0.118522 4.04177 0.212021 4.97989C 0.542563 5.91802 1.2342 6.68625 2.13404 7.11477Z" transform="translate(190.31 405.032)" fill="#FFC891"/>
<path id="Shape_149" d="M 0 3.29496C 0 3.29496 5.16015 17.0995 12.6018 18.6175C 18.5025 19.8215 33.7561 7.72924 33.7561 7.72924L 31.041 3.9067C 31.041 3.9067 18.6693 12.9047 13.6225 9.77483C 9.0361 6.92977 7.99207 0 7.99207 0L 0 3.29496Z" transform="translate(162.18 405.032)" fill="#FFC891"/>
<path id="Shape_150" d="M 10.1561 3.56497L 16.5944 19.3788C 17.5189 21.6546 16.1093 24.4659 13.4474 25.6535C 10.7855 26.8412 7.87452 25.9625 6.94352 23.6832L 0.508493 7.87284C -2.30745 0.928761 7.36313 -3.46493 10.1561 3.56497Z" transform="translate(156.554 393.811)" fill="#454563"/>
<path id="Oval_24" d="M 11.2262 22.4938C 17.4263 22.4938 22.4524 17.4584 22.4524 11.2469C 22.4524 5.03542 17.4263 0 11.2262 0C 5.02614 0 0 5.03542 0 11.2469C 0 17.4584 5.02614 22.4938 11.2262 22.4938Z" transform="matrix(0.233643 -0.972323 0.97258 0.23257 159.871 385.279)" fill="#FFC891"/>
<path id="Shape_151" d="M 41.0357 65.2311C 34.6653 44.297 36.823 19.9789 36.823 12.3149C 36.823 4.65092 28.2693 0 21.854 0C 15.4387 0 7.15431 3.55794 7.15431 10.9462C 7.15431 18.3345 0.0208803 45.9315 0.0208803 45.9315C 0.0208803 45.9315 -0.886428 51.1831 9.26068 58.4401C 19.4078 65.6971 43.8346 74.4344 41.0357 65.2311Z" transform="translate(147.177 393.811)" fill="#E36F6F"/>
<path id="Shape_152" d="M 11.252 2.13836L 8.66479 11.4968C 8.29287 12.8425 6.07752 13.457 3.68754 12.8671C 1.29756 12.2772 -0.316248 10.7164 0.0524369 9.35842L 2.6397 0L 11.252 2.13836Z" transform="translate(164.056 384.46)" fill="#FFC891"/>
<path id="Shape_153" d="M 11.8017 4.64558e-06C 13.6621 -0.00163597 15.4964 0.431293 17.1534 1.26314C 18.7347 3.9359 19.1653 7.11881 18.3496 10.1051C 16.8399 9.58142 15.1636 10.1691 14.3313 11.5136C 13.4991 12.8582 13.7385 14.5922 14.9052 15.67C 11.277 18.9255 5.97692 19.6301 1.59963 17.439C -0.523323 13.8502 -0.533828 9.41959 1.57208 5.82115C 3.67799 2.22271 7.57921 0.00517653 11.8017 0.00644921L 11.8017 4.64558e-06Z" transform="translate(160.304 363.888)" fill="#454563"/>
<path id="Shape_154" d="M 22.0139 3.83884C 22.0139 3.83884 30.7067 12.6004 23.2014 22.6435C 15.6961 32.6866 0.473627 27.1631 0.0154558 18.889C -0.442715 10.615 9.44692 9.94994 8.25318 2.90587C 7.05944 -4.13821 22.0139 3.83884 22.0139 3.83884Z" transform="translate(152.803 376.979)" fill="#454563"/>
<path id="Shape_155" d="M 0.432572 2.05507C -0.393504 3.54857 -0.00199894 5.09214 1.31346 5.50749C 2.62892 5.92284 4.3672 5.04501 5.19328 3.55151C 6.01935 2.05802 5.62785 0.514445 4.3163 0.10204C 3.00476 -0.310365 1.26256 0.564522 0.432572 2.05507Z" transform="translate(173.432 373.239)" fill="#FFC891"/>
<path id="Shape_156" d="M 0.14424 0.685837C -0.130958 1.18421 -0.00100341 1.69791 0.437274 1.83592C 0.875551 1.97393 1.45652 1.68258 1.73172 1.18421C 2.00692 0.685837 1.87441 0.172132 1.43869 0.0341216C 1.00296 -0.103889 0.419437 0.189383 0.14424 0.685837Z" transform="translate(175.307 375.109)" fill="#C27361"/>
<path id="Shape_157" d="M 2.13404 7.11477C 4.00129 8.00399 6.23799 7.21711 7.13223 5.35639C 8.02647 3.49566 7.24028 1.26433 5.37538 0.370205C 3.51049 -0.523924 1.27172 0.257072 0.372558 2.11544C -0.0607526 3.011 -0.118522 4.04177 0.212021 4.97989C 0.542563 5.91802 1.2342 6.68625 2.13404 7.11477Z" transform="translate(209.064 416.253)" fill="#FFC891"/>
<path id="Shape_158" d="M 0 3.33807C 0 3.33807 3.4106 18.1228 11.4843 20.3931C 17.0787 21.9603 35.6315 12.7149 35.6315 12.7149L 33.0045 8.82813C 33.0045 8.82813 16.0414 14.9326 12.4927 10.2803C 9.01786 5.72662 7.67546 0 7.67546 0L 0 3.33807Z" transform="translate(177.183 410.643)" fill="#FFC891"/>
<path id="Shape_159" d="M 10.1571 3.56762L 16.5928 19.3786C 17.5206 21.6544 16.1108 24.4658 13.4454 25.6535C 10.78 26.8412 7.87194 25.9625 6.94412 23.6832L 0.508413 7.87221C -2.30783 0.927882 7.36705 -3.46596 10.1571 3.56762Z" transform="translate(173.432 401.292)" fill="#FF8C8C"/>
<path id="Shape_160" d="M 3.75068 0L 3.75068 42.6454L 0 44.8843L 0 2.23894L 3.75068 0Z" transform="translate(167.806 421.864)" fill="#CAD0E6"/>
<path id="Shape_161" d="M 26.2548 12.763L 3.85752 0L 0 2.1984L 22.3973 14.9614L 26.2548 12.763Z" transform="translate(145.302 408.772)" fill="#CAD0E6"/>
<path id="Shape_162" d="M 0 0L 0 41.5627L 22.5041 54.2352L 22.5041 12.6693L 0 0Z" transform="translate(145.302 410.643)" fill="white"/>
</g>
</g>
</g>
</g>
</g>
</svg>
