<?xml version="1.0" encoding="UTF-8"?>
<svg width="564px" height="523px" viewBox="0 0 564 523" version="1.1" xmlns="http://www.w3.org/2000/svg" xmlns:xlink="http://www.w3.org/1999/xlink">
    <!-- Generator: Sketch 49.3 (51167) - http://www.bohemiancoding.com/sketch -->
    <title>Home page/Illustations/Passing the test</title>
    <desc>Created with Sketch.</desc>
    <defs>
        <radialGradient cx="50.0069784%" cy="50.0035952%" fx="50.0069784%" fy="50.0035952%" r="70.63142%" gradientTransform="translate(0.500070,0.500036),scale(0.578522,1.000000),translate(-0.500070,-0.500036)" id="radialGradient-1">
            <stop stop-color="#56B9FF" offset="0%"></stop>
            <stop stop-color="#54B6FD" stop-opacity="0.7611" offset="23.89%"></stop>
            <stop stop-color="#4EACF6" stop-opacity="0.5765" offset="42.35%"></stop>
            <stop stop-color="#439CEA" stop-opacity="0.4099" offset="59.01%"></stop>
            <stop stop-color="#3484D9" stop-opacity="0.2542" offset="74.58%"></stop>
            <stop stop-color="#2167C4" stop-opacity="0.1071" offset="89.29%"></stop>
            <stop stop-color="#104CB1" stop-opacity="0" offset="100%"></stop>
        </radialGradient>
        <linearGradient x1="49.981458%" y1="102.951142%" x2="49.981458%" y2="-2.00168716%" id="linearGradient-2">
            <stop stop-color="#56B9FF" stop-opacity="0" offset="0%"></stop>
            <stop stop-color="#5BBAFF" stop-opacity="0.1266" offset="10.09%"></stop>
            <stop stop-color="#68BDFF" stop-opacity="0.2692" offset="21.46%"></stop>
            <stop stop-color="#7FC2FF" stop-opacity="0.4195" offset="33.44%"></stop>
            <stop stop-color="#9EC9FF" stop-opacity="0.5742" offset="45.77%"></stop>
            <stop stop-color="#A4CAFF" stop-opacity="0.6" offset="47.83%"></stop>
            <stop stop-color="#A2C5FF" stop-opacity="0.685" offset="58.91%"></stop>
            <stop stop-color="#9AB8FF" stop-opacity="0.7807" offset="71.4%"></stop>
            <stop stop-color="#8EA1FF" stop-opacity="0.8817" offset="84.56%"></stop>
            <stop stop-color="#7E82FF" stop-opacity="0.9855" offset="98.11%"></stop>
            <stop stop-color="#7B7DFF" offset="100%"></stop>
        </linearGradient>
        <linearGradient x1="-0.0692424242%" y1="49.9969416%" x2="100.010303%" y2="49.9969416%" id="linearGradient-3">
            <stop stop-color="#C7DAF1" offset="1.131811%"></stop>
            <stop stop-color="#94A2FD" offset="100%"></stop>
        </linearGradient>
        <linearGradient x1="-15.6515152%" y1="73.6614754%" x2="115.616364%" y2="26.3189617%" id="linearGradient-4">
            <stop stop-color="#94A2FD" offset="0%"></stop>
            <stop stop-color="#C7DAF1" offset="98.87%"></stop>
        </linearGradient>
        <linearGradient x1="0.00603806607%" y1="49.9953092%" x2="99.9915992%" y2="49.9953092%" id="linearGradient-5">
            <stop stop-color="#C7DAF1" offset="1.131811%"></stop>
            <stop stop-color="#94A2FD" offset="100%"></stop>
        </linearGradient>
        <linearGradient x1="100.065674%" y1="50.0155738%" x2="0.0690017513%" y2="50.0155738%" id="linearGradient-6">
            <stop stop-color="#B19BFF" stop-opacity="0" offset="0%"></stop>
            <stop stop-color="#AFACFE" stop-opacity="0.3953" offset="14.35%"></stop>
            <stop stop-color="#ADC1FD" stop-opacity="0.8" offset="29.04%"></stop>
            <stop stop-color="#BECEFA" stop-opacity="0.8344" offset="41.25%"></stop>
            <stop stop-color="#DAE1F5" stop-opacity="0.8991" offset="64.21%"></stop>
            <stop stop-color="#EAEDF2" stop-opacity="0.9565" offset="84.55%"></stop>
            <stop stop-color="#F0F1F1" offset="100%"></stop>
        </linearGradient>
        <linearGradient x1="100.066258%" y1="50%" x2="0.0805725971%" y2="50%" id="linearGradient-7">
            <stop stop-color="#B19BFF" stop-opacity="0" offset="0%"></stop>
            <stop stop-color="#AFACFE" stop-opacity="0.3953" offset="14.35%"></stop>
            <stop stop-color="#ADC1FD" stop-opacity="0.8" offset="29.04%"></stop>
            <stop stop-color="#BECEFA" stop-opacity="0.8344" offset="41.25%"></stop>
            <stop stop-color="#DAE1F5" stop-opacity="0.8991" offset="64.21%"></stop>
            <stop stop-color="#EAEDF2" stop-opacity="0.9565" offset="84.55%"></stop>
            <stop stop-color="#F0F1F1" offset="100%"></stop>
        </linearGradient>
        <linearGradient x1="99.8868106%" y1="50.0194853%" x2="-0.145323741%" y2="50.0194853%" id="linearGradient-8">
            <stop stop-color="#B19BFF" stop-opacity="0" offset="0%"></stop>
            <stop stop-color="#AFACFE" stop-opacity="0.3953" offset="14.35%"></stop>
            <stop stop-color="#ADC1FD" stop-opacity="0.8" offset="29.04%"></stop>
            <stop stop-color="#BECEFA" stop-opacity="0.8344" offset="41.25%"></stop>
            <stop stop-color="#DAE1F5" stop-opacity="0.8991" offset="64.21%"></stop>
            <stop stop-color="#EAEDF2" stop-opacity="0.9565" offset="84.55%"></stop>
            <stop stop-color="#F0F1F1" offset="100%"></stop>
        </linearGradient>
        <linearGradient x1="100.068615%" y1="50.1572093%" x2="0.121230769%" y2="50.1572093%" id="linearGradient-9">
            <stop stop-color="#B19BFF" stop-opacity="0" offset="0%"></stop>
            <stop stop-color="#AFACFE" stop-opacity="0.3953" offset="14.35%"></stop>
            <stop stop-color="#ADC1FD" stop-opacity="0.8" offset="29.04%"></stop>
            <stop stop-color="#BECEFA" stop-opacity="0.8344" offset="41.25%"></stop>
            <stop stop-color="#DAE1F5" stop-opacity="0.8991" offset="64.21%"></stop>
            <stop stop-color="#EAEDF2" stop-opacity="0.9565" offset="84.55%"></stop>
            <stop stop-color="#F0F1F1" offset="100%"></stop>
        </linearGradient>
        <linearGradient x1="100.010903%" y1="50.0106383%" x2="0.067120954%" y2="50.0106383%" id="linearGradient-10">
            <stop stop-color="#B19BFF" stop-opacity="0" offset="0%"></stop>
            <stop stop-color="#AFACFE" stop-opacity="0.3953" offset="14.35%"></stop>
            <stop stop-color="#ADC1FD" stop-opacity="0.8" offset="29.04%"></stop>
            <stop stop-color="#BECEFA" stop-opacity="0.8344" offset="41.25%"></stop>
            <stop stop-color="#DAE1F5" stop-opacity="0.8991" offset="64.21%"></stop>
            <stop stop-color="#EAEDF2" stop-opacity="0.9565" offset="84.55%"></stop>
            <stop stop-color="#F0F1F1" offset="100%"></stop>
        </linearGradient>
        <linearGradient x1="100.021569%" y1="49.8473538%" x2="0.0702317291%" y2="49.8473538%" id="linearGradient-11">
            <stop stop-color="#B19BFF" stop-opacity="0" offset="0%"></stop>
            <stop stop-color="#AFACFE" stop-opacity="0.3953" offset="14.35%"></stop>
            <stop stop-color="#ADC1FD" stop-opacity="0.8" offset="29.04%"></stop>
            <stop stop-color="#BECEFA" stop-opacity="0.8344" offset="41.25%"></stop>
            <stop stop-color="#DAE1F5" stop-opacity="0.8991" offset="64.21%"></stop>
            <stop stop-color="#EAEDF2" stop-opacity="0.9565" offset="84.55%"></stop>
            <stop stop-color="#F0F1F1" offset="100%"></stop>
        </linearGradient>
        <linearGradient x1="100.003778%" y1="50.1142857%" x2="0.0992443325%" y2="50.1142857%" id="linearGradient-12">
            <stop stop-color="#B19BFF" stop-opacity="0" offset="0%"></stop>
            <stop stop-color="#AFACFE" stop-opacity="0.3953" offset="14.35%"></stop>
            <stop stop-color="#ADC1FD" stop-opacity="0.8" offset="29.04%"></stop>
            <stop stop-color="#BECEFA" stop-opacity="0.8344" offset="41.25%"></stop>
            <stop stop-color="#DAE1F5" stop-opacity="0.8991" offset="64.21%"></stop>
            <stop stop-color="#EAEDF2" stop-opacity="0.9565" offset="84.55%"></stop>
            <stop stop-color="#F0F1F1" offset="100%"></stop>
        </linearGradient>
        <linearGradient x1="99.9599147%" y1="50.0838284%" x2="0.0840085288%" y2="50.0838284%" id="linearGradient-13">
            <stop stop-color="#B19BFF" stop-opacity="0" offset="0%"></stop>
            <stop stop-color="#AFACFE" stop-opacity="0.3953" offset="14.35%"></stop>
            <stop stop-color="#ADC1FD" stop-opacity="0.8" offset="29.04%"></stop>
            <stop stop-color="#BECEFA" stop-opacity="0.8344" offset="41.25%"></stop>
            <stop stop-color="#DAE1F5" stop-opacity="0.8991" offset="64.21%"></stop>
            <stop stop-color="#EAEDF2" stop-opacity="0.9565" offset="84.55%"></stop>
            <stop stop-color="#F0F1F1" offset="100%"></stop>
        </linearGradient>
        <linearGradient x1="99.9236994%" y1="50.0649123%" x2="0.113872832%" y2="50.0649123%" id="linearGradient-14">
            <stop stop-color="#B19BFF" stop-opacity="0" offset="0%"></stop>
            <stop stop-color="#AFACFE" stop-opacity="0.3953" offset="14.35%"></stop>
            <stop stop-color="#ADC1FD" stop-opacity="0.8" offset="29.04%"></stop>
            <stop stop-color="#BECEFA" stop-opacity="0.8344" offset="41.25%"></stop>
            <stop stop-color="#DAE1F5" stop-opacity="0.8991" offset="64.21%"></stop>
            <stop stop-color="#EAEDF2" stop-opacity="0.9565" offset="84.55%"></stop>
            <stop stop-color="#F0F1F1" offset="100%"></stop>
        </linearGradient>
        <linearGradient x1="50.0344887%" y1="88.4618128%" x2="50.0344887%" y2="4.87474592%" id="linearGradient-15">
            <stop stop-color="#B19BFF" stop-opacity="0" offset="0%"></stop>
            <stop stop-color="#AFACFE" stop-opacity="0.3953" offset="14.35%"></stop>
            <stop stop-color="#ADC1FD" stop-opacity="0.8" offset="29.04%"></stop>
            <stop stop-color="#BECEFA" stop-opacity="0.8344" offset="41.25%"></stop>
            <stop stop-color="#DAE1F5" stop-opacity="0.8991" offset="64.21%"></stop>
            <stop stop-color="#EAEDF2" stop-opacity="0.9565" offset="84.55%"></stop>
            <stop stop-color="#F0F1F1" offset="100%"></stop>
        </linearGradient>
        <linearGradient x1="214.3392%" y1="-93.9847826%" x2="70.5896%" y2="31.3076087%" id="linearGradient-16">
            <stop stop-color="#B19BFF" stop-opacity="0" offset="0%"></stop>
            <stop stop-color="#AFACFE" stop-opacity="0.3953" offset="14.35%"></stop>
            <stop stop-color="#ADC1FD" stop-opacity="0.8" offset="29.04%"></stop>
            <stop stop-color="#BECEFA" stop-opacity="0.8344" offset="41.25%"></stop>
            <stop stop-color="#DAE1F5" stop-opacity="0.8991" offset="64.21%"></stop>
            <stop stop-color="#EAEDF2" stop-opacity="0.9565" offset="84.55%"></stop>
            <stop stop-color="#F0F1F1" offset="100%"></stop>
        </linearGradient>
        <linearGradient x1="111.869369%" y1="-9.37852349%" x2="30.9292793%" y2="67.9825503%" id="linearGradient-17">
            <stop stop-color="#B19BFF" stop-opacity="0" offset="0%"></stop>
            <stop stop-color="#AFACFE" stop-opacity="0.3953" offset="14.35%"></stop>
            <stop stop-color="#ADC1FD" stop-opacity="0.8" offset="29.04%"></stop>
            <stop stop-color="#BECEFA" stop-opacity="0.8344" offset="41.25%"></stop>
            <stop stop-color="#DAE1F5" stop-opacity="0.8991" offset="64.21%"></stop>
            <stop stop-color="#EAEDF2" stop-opacity="0.9565" offset="84.55%"></stop>
            <stop stop-color="#F0F1F1" offset="100%"></stop>
        </linearGradient>
        <linearGradient x1="148.012987%" y1="-38.9009091%" x2="31.3324675%" y2="65.8890909%" id="linearGradient-18">
            <stop stop-color="#B19BFF" stop-opacity="0" offset="0%"></stop>
            <stop stop-color="#AFACFE" stop-opacity="0.3953" offset="14.35%"></stop>
            <stop stop-color="#ADC1FD" stop-opacity="0.8" offset="29.04%"></stop>
            <stop stop-color="#BECEFA" stop-opacity="0.8344" offset="41.25%"></stop>
            <stop stop-color="#DAE1F5" stop-opacity="0.8991" offset="64.21%"></stop>
            <stop stop-color="#EAEDF2" stop-opacity="0.9565" offset="84.55%"></stop>
            <stop stop-color="#F0F1F1" offset="100%"></stop>
        </linearGradient>
        <linearGradient x1="258.907407%" y1="-118.875%" x2="37.0839506%" y2="61.2328125%" id="linearGradient-19">
            <stop stop-color="#B19BFF" stop-opacity="0" offset="0%"></stop>
            <stop stop-color="#AFACFE" stop-opacity="0.3953" offset="14.35%"></stop>
            <stop stop-color="#ADC1FD" stop-opacity="0.8" offset="29.04%"></stop>
            <stop stop-color="#BECEFA" stop-opacity="0.8344" offset="41.25%"></stop>
            <stop stop-color="#DAE1F5" stop-opacity="0.8991" offset="64.21%"></stop>
            <stop stop-color="#EAEDF2" stop-opacity="0.9565" offset="84.55%"></stop>
            <stop stop-color="#F0F1F1" offset="100%"></stop>
        </linearGradient>
        <linearGradient x1="108.617816%" y1="-5.22833333%" x2="5.34885057%" y2="90.8283333%" id="linearGradient-20">
            <stop stop-color="#B19BFF" stop-opacity="0" offset="0%"></stop>
            <stop stop-color="#AFACFE" stop-opacity="0.3953" offset="14.35%"></stop>
            <stop stop-color="#ADC1FD" stop-opacity="0.8" offset="29.04%"></stop>
            <stop stop-color="#BECEFA" stop-opacity="0.8344" offset="41.25%"></stop>
            <stop stop-color="#DAE1F5" stop-opacity="0.8991" offset="64.21%"></stop>
            <stop stop-color="#EAEDF2" stop-opacity="0.9565" offset="84.55%"></stop>
            <stop stop-color="#F0F1F1" offset="100%"></stop>
        </linearGradient>
        <linearGradient x1="108.617816%" y1="-5.50166667%" x2="5.34885057%" y2="90.5558333%" id="linearGradient-21">
            <stop stop-color="#B19BFF" stop-opacity="0" offset="0%"></stop>
            <stop stop-color="#AFACFE" stop-opacity="0.3953" offset="14.35%"></stop>
            <stop stop-color="#ADC1FD" stop-opacity="0.8" offset="29.04%"></stop>
            <stop stop-color="#BECEFA" stop-opacity="0.8344" offset="41.25%"></stop>
            <stop stop-color="#DAE1F5" stop-opacity="0.8991" offset="64.21%"></stop>
            <stop stop-color="#EAEDF2" stop-opacity="0.9565" offset="84.55%"></stop>
            <stop stop-color="#F0F1F1" offset="100%"></stop>
        </linearGradient>
        <linearGradient x1="16.9118519%" y1="99.970199%" x2="86.0476543%" y2="-4.63300688%" id="linearGradient-22">
            <stop stop-color="#B19BFF" stop-opacity="0" offset="0%"></stop>
            <stop stop-color="#AFACFE" stop-opacity="0.3953" offset="14.35%"></stop>
            <stop stop-color="#ADC1FD" stop-opacity="0.8" offset="29.04%"></stop>
            <stop stop-color="#BECEFA" stop-opacity="0.8344" offset="41.25%"></stop>
            <stop stop-color="#DAE1F5" stop-opacity="0.8991" offset="64.21%"></stop>
            <stop stop-color="#EAEDF2" stop-opacity="0.9565" offset="84.55%"></stop>
            <stop stop-color="#F0F1F1" offset="100%"></stop>
        </linearGradient>
    </defs>
    <g id="Symbols" stroke="none" stroke-width="1" fill="none" fill-rule="evenodd">
        <g id="Home-page/section/Test" transform="translate(-969.000000, -88.000000)">
            <g id="Home-page/Illustations/Passing-the-test">
                <g transform="translate(905.000000, 88.000000)">
                    <g>
                        <g id="XMLID_2630_" opacity="0.5" transform="translate(0.000000, 122.536503)" fill="url(#radialGradient-1)" fill-rule="nonzero">
                            <path d="M344.843454,0.577591583 L0.674651811,200.328014 L347.060167,400.078436 L691.228969,200.328014 L344.843454,0.577591583 Z M367.974373,14.247259 L390.719777,27.3393349 L367.781616,40.6239413 L344.843454,53.9085477 L321.905292,67.1931541 L299.159889,80.3814953 L299.256267,80.3814953 L276.510864,67.2894194 L299.159889,54.1973435 L321.905292,67.2894194 L322.194429,67.0968889 L299.449025,54.004813 L322.09805,40.9127371 L344.843454,54.004813 L345.132591,53.8122825 L322.387187,40.7202066 L345.036212,27.6281307 L367.781616,40.7202066 L368.070752,40.5276761 L345.325348,27.4356002 L367.685237,14.1509938 L367.974373,14.247259 Z M47.1292479,226.800962 L24.0947075,213.516355 L1.34930362,200.424279 L23.9983287,187.332203 L46.7437326,200.424279 L47.0328691,200.231749 L24.2874652,187.139673 L46.9364903,174.047597 L69.6818942,187.139673 L69.9710306,186.947142 L47.2256267,173.855066 L69.8746518,160.762991 L92.6200557,173.855066 L92.9091922,173.662536 L70.1637883,160.57046 L92.8128134,147.478384 L92.6200557,147.382119 L92.8128134,147.478384 L115.558217,160.57046 L115.847354,160.37793 L93.1019499,147.285854 L115.750975,134.193778 L115.558217,134.097512 L115.847354,133.904982 L115.558217,134.097512 L115.750975,134.193778 L138.496379,147.285854 L138.785515,147.093323 L115.943733,133.808717 L138.592758,120.716641 L161.338162,133.808717 L161.627298,133.616186 L138.785515,120.52411 L161.43454,107.432034 L161.241783,107.335769 L161.530919,107.143239 L161.241783,107.239504 L161.43454,107.335769 L184.179944,120.427845 L184.469081,120.235314 L161.723677,107.143239 L184.372702,94.0511627 L184.179944,93.9548975 L184.276323,93.9548975 L184.179944,93.9548975 L184.372702,94.0511627 L207.118106,107.143239 L207.407242,106.950708 L184.661838,93.8586322 L207.310864,80.6702911 L207.214485,80.5740258 L207.407242,80.6702911 L230.152646,93.762367 L230.441783,93.5698364 L207.696379,80.4777605 L230.345404,67.3856847 L230.152646,67.2894194 L230.249025,67.2894194 L230.152646,67.2894194 L230.345404,67.3856847 L253.090808,80.4777605 L253.379944,80.28523 L230.63454,67.1931541 L253.283565,54.1010783 L253.090808,54.004813 L253.187187,54.1010783 L275.932591,67.1931541 L276.221727,67.0006236 L253.476323,54.004813 L276.125348,40.8164719 L298.870752,53.9085477 L299.159889,53.7160172 L276.414485,40.6239413 L299.06351,27.5318654 L298.967131,27.4356002 L299.06351,27.4356002 L298.967131,27.4356002 L299.159889,27.5318654 L321.905292,40.6239413 L322.194429,40.4314108 L299.449025,27.3393349 L322.09805,14.1509938 L344.843454,27.2430697 L345.132591,27.0505391 L322.387187,13.9584633 L345.036212,0.866387374 L367.781616,14.0547285 L344.843454,27.3393349 L321.905292,40.6239413 L298.967131,53.9085477 L276.028969,67.1931541 L253.090808,80.4777605 L230.152646,93.762367 L207.214485,107.143239 L184.276323,120.427845 L161.338162,133.808717 L138.4,147.093323 L115.461838,160.37793 L92.5236769,173.758801 L69.5855153,187.043408 L46.6473538,200.328014 L24.2874652,213.61262 L46.9364903,200.520545 L69.6818942,213.61262 L69.9710306,213.42009 L47.2256267,200.328014 L69.8746518,187.235938 L92.6200557,200.328014 L92.9091922,200.135483 L70.1637883,187.043408 L92.8128134,173.951332 L115.558217,187.043408 L115.847354,186.850877 L93.1019499,173.758801 L115.750975,160.666725 L138.496379,173.758801 L138.785515,173.566271 L116.040111,160.474195 L138.689136,147.382119 L161.43454,160.474195 L161.723677,160.281664 L138.978273,147.189588 L161.627298,134.097512 L184.372702,147.189588 L184.661838,146.997058 L161.916435,133.808717 L184.56546,120.716641 L207.310864,133.808717 L207.6,133.616186 L184.854596,120.52411 L207.503621,107.432034 L230.249025,120.52411 L230.538162,120.33158 L207.792758,107.239504 L230.441783,94.147428 L253.187187,107.239504 L253.476323,107.046973 L230.730919,93.9548975 L253.379944,80.8628216 L276.125348,93.9548975 L276.414485,93.762367 L253.669081,80.6702911 L276.318106,67.5782152 L299.06351,80.6702911 L276.125348,93.9548975 L253.187187,107.239504 L230.249025,120.52411 L207.310864,133.808717 L184.372702,147.093323 L161.43454,160.37793 L138.496379,173.662536 L115.654596,187.043408 L92.7164345,200.328014 L69.778273,213.61262 L47.4183844,226.897227 L70.0674095,213.805151 L92.8128134,226.897227 L93.1019499,226.704696 L70.356546,213.61262 L93.005571,200.520545 L115.750975,213.61262 L116.040111,213.42009 L93.2947075,200.328014 L115.943733,187.235938 L138.689136,200.328014 L138.978273,200.135483 L116.232869,187.043408 L138.881894,173.951332 L161.627298,187.043408 L161.916435,186.850877 L139.171031,173.758801 L161.820056,160.666725 L184.56546,173.758801 L184.854596,173.566271 L162.109192,160.474195 L184.758217,147.382119 L207.503621,160.474195 L207.792758,160.281664 L185.047354,147.189588 L207.696379,134.097512 L230.441783,147.189588 L230.730919,146.997058 L207.889136,133.808717 L230.538162,120.716641 L253.283565,133.808717 L253.572702,133.616186 L230.827298,120.52411 L253.476323,107.432034 L276.221727,120.52411 L276.510864,120.33158 L253.76546,107.239504 L276.414485,94.147428 L299.159889,107.239504 L299.449025,107.046973 L276.703621,93.9548975 L299.352646,80.8628216 L322.09805,93.9548975 L322.387187,93.762367 L299.641783,80.6702911 L322.290808,67.5782152 L345.036212,80.6702911 L345.325348,80.4777605 L322.579944,67.3856847 L345.228969,54.2936088 L367.974373,67.3856847 L368.26351,67.1931541 L345.518106,54.1010783 L368.167131,41.0090024 L390.912535,54.1010783 L391.201671,53.9085477 L368.456267,40.8164719 L390.816156,27.5318654 L391.105292,27.724396 L413.850696,40.9127371 L390.912535,54.1973435 L367.974373,67.4819499 L345.036212,80.5740258 L322.09805,93.8586322 L299.159889,107.143239 L276.221727,120.427845 L253.379944,133.808717 L230.441783,147.093323 L207.503621,160.37793 L184.56546,173.662536 L161.627298,186.947142 L138.689136,200.231749 L115.750975,213.516355 L92.8128134,226.800962 L70.4529248,240.085568 L93.1019499,226.993492 L115.36546,239.796772 L115.269081,239.893037 L93.005571,253.081379 L70.1637883,239.893037 L47.1292479,226.800962 Z M116.329248,213.61262 L138.978273,200.520545 L161.241783,213.323825 L161.145404,213.42009 L138.689136,226.512166 L116.329248,213.61262 Z M138.303621,226.704696 L138.207242,226.800962 L115.654596,239.796772 L93.3910864,226.993492 L116.040111,213.901416 L138.303621,226.704696 Z M139.267409,200.328014 L161.916435,187.235938 L184.179944,200.039218 L184.083565,200.135483 L161.627298,213.227559 L139.267409,200.328014 Z M162.205571,187.043408 L184.854596,173.951332 L207.118106,186.754612 L207.021727,186.850877 L184.56546,199.942953 L162.205571,187.043408 Z M185.143733,173.758801 L207.792758,160.666725 L230.056267,173.470005 L229.959889,173.566271 L207.503621,186.658347 L185.143733,173.758801 Z M208.081894,160.37793 L230.730919,147.285854 L252.994429,160.089134 L252.89805,160.185399 L230.345404,173.277475 L208.081894,160.37793 Z M231.020056,147.093323 L253.669081,134.001247 L275.932591,146.804527 L275.836212,146.900793 L253.379944,159.992868 L231.020056,147.093323 Z M253.958217,133.808717 L276.607242,120.716641 L298.870752,133.519921 L298.774373,133.616186 L276.318106,146.708262 L253.958217,133.808717 Z M276.8,120.52411 L299.449025,107.432034 L321.712535,120.235314 L321.616156,120.33158 L299.159889,133.423656 L276.8,120.52411 Z M299.738162,107.143239 L322.387187,94.0511627 L344.650696,106.854443 L344.554318,106.950708 L322.09805,120.042784 L299.738162,107.143239 Z M322.676323,93.8586322 L345.325348,80.7665563 L367.588858,93.5698364 L367.492479,93.6661017 L345.036212,106.758178 L322.676323,93.8586322 Z M345.614485,80.5740258 L368.26351,67.4819499 L390.527019,80.28523 L390.430641,80.3814953 L367.877994,93.3773059 L345.614485,80.5740258 Z M368.552646,67.2894194 L391.201671,54.1973435 L413.465181,67.0006236 L413.368802,67.0968889 L390.912535,80.1889648 L368.552646,67.2894194 Z M392.647354,373.316693 L370.094708,386.505034 L347.349304,373.412958 L369.998329,360.320882 L392.647354,373.316693 Z M415.778273,360.128352 L415.681894,360.032087 L393.032869,373.220428 L370.191086,360.032087 L392.840111,346.940011 L415.585515,360.032087 L415.778273,360.128352 L415.874652,360.032087 L415.778273,360.128352 Z M438.523677,346.74748 L415.874652,359.839556 L393.129248,346.74748 L415.778273,333.655404 L438.523677,346.74748 Z M461.461838,333.462874 L438.812813,346.55495 L416.067409,333.462874 L438.716435,320.370798 L461.461838,333.462874 Z M484.496379,320.178267 L484.4,320.082002 L461.750975,333.174078 L439.005571,320.082002 L461.654596,306.989926 L484.4,320.082002 L484.496379,320.178267 Z M484.592758,320.178267 L484.785515,320.082002 L484.592758,320.178267 Z M507.43454,306.893661 L507.241783,306.797396 L484.592758,319.889472 L461.847354,306.797396 L484.496379,293.70532 L507.241783,306.797396 L507.43454,306.893661 L507.723677,306.701131 L507.43454,306.893661 Z M530.372702,293.609055 L530.276323,293.512789 L507.627298,306.604865 L484.785515,293.512789 L507.43454,280.420713 L530.179944,293.512789 L530.372702,293.609055 Z M530.469081,293.512789 L530.661838,293.416524 L530.469081,293.512789 Z M553.310864,280.228183 L553.214485,280.131918 L530.56546,293.223994 L507.820056,280.131918 L530.469081,267.039842 L553.214485,280.131918 L553.310864,280.228183 L553.6,280.035652 L553.310864,280.228183 Z M576.249025,266.943577 L576.152646,266.847311 L553.503621,279.939387 L530.758217,266.847311 L553.407242,253.755235 L576.152646,266.847311 L576.249025,266.943577 Z M598.994429,253.562705 L576.345404,266.751046 L553.6,253.65897 L576.249025,240.566894 L598.994429,253.562705 Z M622.125348,240.374364 L622.028969,240.278098 L599.379944,253.370174 L576.63454,240.278098 L599.283565,227.186023 L622.028969,240.278098 L622.125348,240.374364 L622.414485,240.181833 L622.125348,240.374364 Z M644.870752,226.993492 L622.221727,240.085568 L599.476323,226.993492 L622.125348,213.901416 L644.870752,226.993492 Z M667.808914,213.61262 L645.159889,226.704696 L622.414485,213.61262 L645.06351,200.520545 L667.808914,213.61262 Z M668.09805,213.516355 L645.352646,200.424279 L667.712535,187.139673 L644.774373,200.328014 L621.836212,213.61262 L598.89805,226.897227 L575.959889,240.181833 L553.021727,253.46644 L530.083565,266.847311 L507.145404,280.131918 L484.207242,293.416524 L461.269081,306.701131 L438.330919,319.985737 L415.392758,333.270343 L392.454596,346.55495 L369.612813,360.032087 L346.674652,373.316693 L324.314763,386.601299 L346.963788,373.509224 L369.709192,386.601299 L347.060167,399.693375 L324.025627,386.408769 L300.991086,373.124163 L277.956546,359.839556 L254.825627,346.55495 L231.791086,333.270343 L208.756546,319.985737 L185.722006,306.701131 L162.687465,293.416524 L139.652925,280.131918 L116.618384,266.847311 L93.583844,253.562705 L93.3910864,253.46644 L115.943733,240.374364 L138.689136,253.46644 L138.978273,253.273909 L116.425627,240.278098 L116.522006,240.181833 L116.329248,240.085568 L138.785515,226.993492 L161.530919,240.085568 L161.820056,239.893037 L139.267409,226.897227 L139.363788,226.800962 L139.171031,226.704696 L161.627298,213.61262 L184.372702,226.704696 L184.661838,226.512166 L161.916435,213.516355 L162.012813,213.42009 L161.820056,213.323825 L184.276323,200.231749 L207.021727,213.323825 L207.310864,213.131294 L184.854596,200.231749 L184.950975,200.135483 L184.758217,200.039218 L207.214485,186.947142 L229.959889,200.039218 L230.249025,199.846688 L207.696379,186.850877 L207.792758,186.754612 L207.6,186.658347 L230.056267,173.566271 L252.801671,186.658347 L253.090808,186.465816 L230.538162,173.470005 L230.63454,173.37374 L230.441783,173.277475 L252.89805,160.185399 L275.643454,173.277475 L275.932591,173.084944 L253.379944,160.089134 L253.476323,159.992868 L253.283565,159.896603 L275.739833,146.804527 L298.485237,159.896603 L298.774373,159.704073 L276.607242,146.997058 L276.703621,146.900793 L276.510864,146.804527 L298.967131,133.712451 L321.712535,146.804527 L322.001671,146.611997 L299.449025,133.616186 L299.545404,133.519921 L299.352646,133.423656 L321.808914,120.33158 L344.554318,133.423656 L344.843454,133.231125 L322.290808,120.235314 L322.387187,120.139049 L322.194429,120.042784 L344.650696,106.950708 L367.3961,120.042784 L367.685237,119.850253 L345.132591,106.854443 L345.228969,106.758178 L345.036212,106.661912 L367.492479,93.5698364 L390.237883,106.661912 L390.527019,106.469382 L367.974373,93.4735712 L368.070752,93.3773059 L367.877994,93.2810406 L390.334262,80.1889648 L413.079666,93.2810406 L413.368802,93.0885101 L390.816156,80.0926995 L390.912535,79.9964342 L390.719777,79.900169 L413.176045,66.8080931 L435.921448,79.900169 L436.210585,79.7076384 L413.657939,66.7118278 L413.754318,66.6155626 L413.56156,66.5192973 L435.728691,53.3309562 L413.272423,66.423032 L391.008914,53.6197519 L413.368802,40.3351455 L413.657939,40.5276761 L436.403343,53.6197519 L436.692479,53.8122825 L459.437883,66.9043583 L436.499721,80.1889648 L413.56156,93.4735712 L390.623398,106.758178 L367.685237,120.042784 L345.325348,133.808717 L322.387187,147.093323 L299.449025,160.37793 L276.510864,173.662536 L253.572702,186.947142 L230.63454,200.231749 L207.696379,213.516355 L184.758217,226.800962 L161.916435,240.278098 L138.978273,253.562705 L116.618384,266.847311 L139.267409,253.755235 L162.012813,266.847311 L162.30195,266.654781 L139.556546,253.562705 L162.205571,240.470629 L184.950975,253.562705 L185.240111,253.370174 L162.494708,240.278098 L185.143733,227.186023 L207.889136,240.278098 L208.178273,240.085568 L185.432869,226.993492 L208.081894,213.901416 L230.827298,226.993492 L231.116435,226.800962 L208.371031,213.708886 L231.020056,200.61681 L253.76546,213.708886 L254.054596,213.516355 L231.309192,200.328014 L253.958217,187.235938 L276.703621,200.328014 L276.992758,200.135483 L254.247354,187.043408 L276.896379,173.951332 L299.641783,187.043408 L299.930919,186.850877 L277.185515,173.758801 L299.83454,160.666725 L322.579944,173.758801 L322.869081,173.566271 L300.123677,160.474195 L322.772702,147.382119 L345.518106,160.474195 L345.807242,160.281664 L323.061838,147.189588 L345.710864,134.097512 L368.456267,147.189588 L368.745404,146.997058 L345.903621,133.808717 L368.552646,120.716641 L391.29805,133.808717 L391.587187,133.616186 L368.841783,120.52411 L391.490808,107.432034 L414.236212,120.52411 L414.525348,120.33158 L391.779944,107.239504 L414.428969,94.147428 L437.174373,107.239504 L437.46351,107.046973 L414.718106,93.9548975 L437.367131,80.8628216 L460.112535,93.9548975 L460.401671,93.762367 L437.656267,80.6702911 L460.016156,67.3856847 L460.305292,67.5782152 L483.050696,80.7665563 L460.112535,94.0511627 L437.174373,107.335769 L414.236212,120.620376 L391.29805,133.808717 L368.359889,147.093323 L345.421727,160.37793 L322.483565,173.662536 L299.545404,186.947142 L276.607242,200.231749 L253.669081,213.516355 L230.730919,226.800962 L207.792758,240.085568 L185.047354,253.562705 L162.109192,266.847311 L139.749304,280.228183 L162.398329,267.136107 L185.143733,280.228183 L185.432869,280.035652 L162.687465,266.943577 L185.33649,253.851501 L208.081894,266.943577 L208.371031,266.751046 L185.625627,253.65897 L208.274652,240.566894 L231.020056,253.65897 L231.309192,253.46644 L208.563788,240.374364 L231.212813,227.282288 L253.958217,240.374364 L254.247354,240.181833 L231.50195,227.089757 L254.150975,213.997681 L276.896379,227.089757 L277.185515,226.897227 L254.440111,213.805151 L277.089136,200.713075 L299.83454,213.805151 L300.123677,213.61262 L277.378273,200.520545 L300.027298,187.428469 L322.772702,200.520545 L323.061838,200.328014 L300.316435,187.235938 L322.96546,174.143862 L345.710864,187.235938 L346,187.043408 L323.254596,173.951332 L345.903621,160.859256 L368.649025,173.951332 L368.938162,173.758801 L346.192758,160.666725 L368.841783,147.574649 L391.587187,160.666725 L391.876323,160.474195 L369.130919,147.382119 L391.779944,134.290043 L414.525348,147.382119 L414.814485,147.189588 L391.876323,133.808717 L414.525348,120.716641 L437.270752,133.808717 L437.559889,133.616186 L414.814485,120.52411 L437.46351,107.432034 L460.208914,120.52411 L460.49805,120.33158 L437.752646,107.239504 L460.401671,94.147428 L483.147075,107.239504 L483.436212,107.046973 L460.690808,93.8586322 L483.050696,80.5740258 L483.339833,80.7665563 L506.085237,93.8586322 L483.147075,107.143239 L460.208914,120.427845 L437.367131,133.808717 L414.428969,147.093323 L391.490808,160.37793 L368.552646,173.662536 L345.614485,186.947142 L322.676323,200.231749 L299.738162,213.61262 L276.8,226.897227 L253.861838,240.181833 L230.923677,253.46644 L207.985515,266.751046 L185.047354,280.035652 L162.687465,293.320259 L185.33649,280.228183 L208.081894,293.320259 L208.371031,293.127728 L185.625627,280.035652 L208.274652,266.943577 L231.020056,280.035652 L231.309192,279.843122 L208.563788,266.751046 L231.212813,253.65897 L253.958217,266.751046 L254.247354,266.558515 L231.50195,253.46644 L254.150975,240.374364 L276.896379,253.46644 L277.185515,253.273909 L254.440111,240.181833 L277.089136,227.089757 L299.83454,240.181833 L300.123677,239.989303 L277.378273,226.897227 L300.027298,213.805151 L322.772702,226.897227 L323.061838,226.704696 L300.316435,213.61262 L322.96546,200.520545 L345.710864,213.61262 L346,213.42009 L323.254596,200.328014 L345.903621,187.235938 L368.649025,200.328014 L368.938162,200.135483 L346.192758,187.043408 L368.841783,173.951332 L391.587187,187.043408 L391.876323,186.850877 L369.130919,173.758801 L391.779944,160.666725 L414.525348,173.758801 L414.814485,173.566271 L392.069081,160.474195 L414.718106,147.382119 L437.46351,160.474195 L437.752646,160.281664 L415.007242,147.189588 L437.656267,134.097512 L460.401671,147.189588 L460.690808,146.997058 L437.945404,133.808717 L460.594429,120.716641 L483.339833,133.808717 L483.628969,133.616186 L460.883565,120.52411 L483.532591,107.432034 L506.277994,120.52411 L506.567131,120.33158 L483.821727,107.239504 L506.181616,93.9548975 L506.470752,94.147428 L529.216156,107.335769 L506.277994,120.620376 L483.339833,133.808717 L460.401671,147.093323 L437.46351,160.37793 L414.525348,173.662536 L391.587187,186.947142 L368.649025,200.231749 L345.710864,213.516355 L322.869081,226.993492 L299.930919,240.278098 L276.992758,253.562705 L254.054596,266.847311 L231.116435,280.131918 L208.178273,293.416524 L185.818384,306.701131 L208.467409,293.609055 L231.212813,306.701131 L231.50195,306.5086 L208.756546,293.416524 L231.405571,280.324448 L254.150975,293.416524 L254.440111,293.223994 L231.694708,280.131918 L254.343733,267.039842 L277.089136,280.131918 L277.378273,279.939387 L254.632869,266.847311 L277.281894,253.755235 L300.027298,266.847311 L300.316435,266.654781 L277.571031,253.562705 L300.220056,240.470629 L322.96546,253.562705 L323.254596,253.370174 L300.509192,240.278098 L323.158217,227.186023 L345.903621,240.278098 L346.192758,240.085568 L323.447354,226.993492 L346.096379,213.901416 L368.841783,226.993492 L369.130919,226.800962 L346.385515,213.708886 L369.03454,200.61681 L391.779944,213.708886 L392.069081,213.516355 L369.323677,200.424279 L391.972702,187.332203 L414.718106,200.424279 L415.007242,200.231749 L392.261838,187.043408 L414.910864,173.951332 L437.656267,187.043408 L437.945404,186.850877 L415.2,173.758801 L437.849025,160.666725 L460.594429,173.758801 L460.883565,173.566271 L438.138162,160.474195 L460.690808,147.285854 L483.436212,160.37793 L483.725348,160.185399 L460.979944,147.093323 L483.628969,134.001247 L506.374373,147.093323 L506.66351,146.900793 L483.918106,133.808717 L506.567131,120.716641 L529.312535,133.808717 L529.601671,133.616186 L506.856267,120.52411 L529.216156,107.239504 L529.505292,107.432034 L552.250696,120.52411 L529.312535,133.808717 L506.374373,147.093323 L483.436212,160.37793 L460.49805,173.662536 L437.559889,186.947142 L414.621727,200.231749 L391.683565,213.516355 L368.745404,226.800962 L345.807242,240.085568 L322.869081,253.370174 L299.930919,266.654781 L276.992758,279.939387 L254.054596,293.223994 L231.309192,306.797396 L208.949304,320.082002 L231.598329,306.989926 L254.343733,320.082002 L254.632869,319.889472 L231.887465,306.797396 L254.53649,293.70532 L277.281894,306.797396 L277.571031,306.604865 L254.825627,293.512789 L277.474652,280.420713 L300.220056,293.512789 L300.509192,293.320259 L277.763788,280.228183 L300.412813,267.136107 L323.158217,280.228183 L323.447354,280.035652 L300.70195,266.847311 L323.350975,253.755235 L346.096379,266.847311 L346.385515,266.654781 L323.640111,253.562705 L346.289136,240.470629 L369.03454,253.562705 L369.323677,253.370174 L346.578273,240.278098 L369.227298,227.186023 L391.972702,240.278098 L392.261838,240.085568 L369.516435,226.993492 L392.16546,213.901416 L414.910864,226.993492 L415.2,226.800962 L392.454596,213.708886 L415.103621,200.61681 L437.849025,213.708886 L438.138162,213.516355 L415.392758,200.424279 L438.041783,187.332203 L460.787187,200.424279 L461.076323,200.231749 L438.330919,187.139673 L460.979944,174.047597 L483.725348,187.139673 L484.014485,186.947142 L461.269081,173.855066 L483.918106,160.762991 L506.66351,173.855066 L506.952646,173.662536 L484.207242,160.57046 L506.856267,147.478384 L529.601671,160.57046 L529.890808,160.37793 L507.145404,147.285854 L529.794429,134.193778 L552.539833,147.285854 L552.828969,147.093323 L529.890808,133.808717 L552.250696,120.52411 L552.539833,120.716641 L575.381616,133.808717 L552.443454,147.093323 L529.505292,160.37793 L506.567131,173.662536 L483.628969,186.947142 L460.690808,200.328014 L437.752646,213.61262 L414.814485,226.897227 L391.876323,240.181833 L368.938162,253.46644 L346,266.751046 L323.061838,280.035652 L300.123677,293.320259 L277.185515,306.604865 L254.247354,319.889472 L231.887465,333.174078 L254.53649,320.082002 L277.281894,333.174078 L277.571031,332.981548 L254.825627,319.889472 L277.474652,306.797396 L300.220056,319.889472 L300.509192,319.696941 L277.763788,306.604865 L300.412813,293.512789 L323.158217,306.604865 L323.447354,306.412335 L300.70195,293.320259 L323.350975,280.228183 L346.096379,293.320259 L346.385515,293.127728 L323.640111,280.035652 L346.289136,266.943577 L369.03454,280.035652 L369.323677,279.843122 L346.578273,266.751046 L369.227298,253.65897 L391.972702,266.751046 L392.261838,266.558515 L369.516435,253.46644 L392.16546,240.374364 L414.910864,253.46644 L415.2,253.273909 L392.454596,240.181833 L415.103621,227.089757 L437.849025,240.181833 L438.138162,239.989303 L415.392758,226.897227 L438.041783,213.805151 L460.787187,226.897227 L461.076323,226.704696 L438.330919,213.61262 L460.979944,200.520545 L483.725348,213.61262 L484.014485,213.42009 L461.269081,200.328014 L483.918106,187.235938 L506.66351,200.328014 L506.952646,200.135483 L484.207242,187.043408 L506.856267,173.951332 L529.601671,187.043408 L529.890808,186.850877 L507.145404,173.758801 L529.794429,160.666725 L552.539833,173.758801 L552.828969,173.566271 L530.083565,160.37793 L552.732591,147.285854 L575.477994,160.37793 L575.767131,160.185399 L553.021727,147.093323 L575.381616,133.808717 L575.670752,134.001247 L598.416156,147.093323 L575.477994,160.37793 L552.539833,173.662536 L529.601671,186.947142 L506.66351,200.231749 L483.821727,213.61262 L460.883565,226.897227 L437.945404,240.181833 L415.007242,253.46644 L392.069081,266.751046 L369.130919,280.228183 L346.192758,293.512789 L323.254596,306.797396 L300.316435,320.082002 L277.378273,333.366609 L255.018384,346.651215 L277.667409,333.559139 L300.412813,346.651215 L300.70195,346.458684 L277.956546,333.366609 L300.605571,320.274533 L323.350975,333.366609 L323.640111,333.174078 L300.894708,320.082002 L323.543733,306.989926 L346.289136,320.082002 L346.578273,319.889472 L323.832869,306.797396 L346.481894,293.70532 L369.227298,306.797396 L369.516435,306.604865 L346.771031,293.512789 L369.420056,280.420713 L392.16546,293.512789 L392.454596,293.320259 L369.709192,280.228183 L392.358217,267.136107 L415.103621,280.228183 L415.392758,280.035652 L392.647354,266.943577 L415.296379,253.851501 L438.041783,266.943577 L438.330919,266.751046 L415.585515,253.65897 L438.23454,240.566894 L460.979944,253.65897 L461.269081,253.46644 L438.523677,240.278098 L461.172702,227.186023 L483.918106,240.278098 L484.207242,240.085568 L461.461838,226.993492 L484.110864,213.901416 L506.856267,226.993492 L507.145404,226.800962 L484.4,213.708886 L507.049025,200.61681 L529.794429,213.708886 L530.083565,213.516355 L507.338162,200.424279 L529.987187,187.332203 L552.732591,200.424279 L553.021727,200.231749 L530.276323,187.139673 L552.925348,174.047597 L575.670752,187.139673 L575.959889,186.947142 L553.214485,173.855066 L575.86351,160.762991 L598.608914,173.855066 L598.89805,173.662536 L576.152646,160.57046 L598.512535,147.285854 L598.801671,147.478384 L621.547075,160.666725 L598.608914,173.951332 L575.670752,187.235938 L552.732591,200.520545 L529.794429,213.805151 L506.856267,227.089757 L483.918106,240.374364 L460.979944,253.65897 L438.041783,266.943577 L415.103621,280.228183 L392.261838,293.512789 L369.323677,306.797396 L346.385515,320.082002 L323.447354,333.366609 L300.509192,346.651215 L278.149304,360.032087 L300.798329,346.940011 L323.543733,360.032087 L323.832869,359.839556 L301.087465,346.74748 L323.73649,333.655404 L346.481894,346.74748 L346.771031,346.55495 L324.025627,333.462874 L346.674652,320.370798 L369.420056,333.462874 L369.709192,333.270343 L346.963788,320.082002 L369.612813,306.989926 L392.358217,320.082002 L392.647354,319.889472 L369.90195,306.797396 L392.550975,293.70532 L415.296379,306.797396 L415.585515,306.604865 L392.840111,293.512789 L415.489136,280.420713 L438.23454,293.512789 L438.523677,293.320259 L415.778273,280.228183 L438.427298,267.136107 L461.172702,280.228183 L461.461838,280.035652 L438.716435,266.943577 L461.36546,253.851501 L484.110864,266.943577 L484.4,266.751046 L461.654596,253.65897 L484.303621,240.566894 L507.049025,253.65897 L507.338162,253.46644 L484.592758,240.374364 L507.241783,227.282288 L529.987187,240.374364 L530.276323,240.181833 L507.530919,227.089757 L530.179944,213.997681 L552.925348,227.089757 L553.214485,226.897227 L530.469081,213.805151 L553.118106,200.713075 L575.86351,213.805151 L576.152646,213.61262 L553.407242,200.520545 L576.056267,187.428469 L598.801671,200.520545 L599.090808,200.328014 L576.345404,187.235938 L598.994429,174.143862 L621.739833,187.235938 L622.028969,187.043408 L599.283565,173.951332 L621.643454,160.666725 L621.932591,160.859256 L644.677994,173.951332 L621.643454,187.043408 L598.705292,200.328014 L575.767131,213.61262 L552.828969,226.897227 L529.890808,240.181833 L506.952646,253.46644 L484.014485,266.751046 L461.076323,280.035652 L438.138162,293.320259 L415.2,306.604865 L392.261838,319.889472 L369.323677,333.174078 L346.385515,346.458684 L323.640111,360.032087 L301.280223,373.316693 L323.929248,360.224617 L346.674652,373.316693 L346.963788,373.124163 L324.218384,360.032087 L346.867409,346.940011 L369.612813,360.032087 L369.90195,359.839556 L347.156546,346.74748 L369.805571,333.655404 L392.550975,346.74748 L392.840111,346.55495 L370.094708,333.462874 L392.743733,320.370798 L415.489136,333.462874 L415.778273,333.270343 L393.032869,320.178267 L415.681894,307.086192 L438.427298,320.178267 L438.716435,319.985737 L415.971031,306.893661 L438.620056,293.801585 L461.36546,306.893661 L461.654596,306.701131 L438.909192,293.609055 L461.558217,280.516979 L484.303621,293.609055 L484.592758,293.416524 L461.847354,280.324448 L484.496379,267.232372 L507.241783,280.324448 L507.530919,280.131918 L484.785515,267.039842 L507.43454,253.947766 L530.179944,267.039842 L530.469081,266.847311 L507.723677,253.755235 L530.372702,240.66316 L553.118106,253.755235 L553.407242,253.562705 L530.661838,240.470629 L553.310864,227.378553 L576.056267,240.470629 L576.345404,240.278098 L553.6,227.186023 L576.249025,214.093947 L598.994429,227.186023 L599.283565,226.993492 L576.345404,213.61262 L598.994429,200.520545 L621.739833,213.61262 L622.028969,213.42009 L599.283565,200.328014 L621.932591,187.235938 L644.677994,200.328014 L644.967131,200.135483 L622.221727,187.043408 L644.581616,173.758801 L644.870752,173.951332 L667.616156,187.139673 L667.905292,187.332203 L690.650696,200.520545 L668.09805,213.516355 Z" id="XMLID_2631_"></path>
                        </g>
                        <path d="M208.754814,55.3467466 C208.754814,61.4256261 208.754814,217.546689 208.754814,217.546689 L269.160462,204.038068 L269.160462,24.5663886 C269.160462,17.5226077 261.11914,10.9612774 255.566798,14.1454524 C240.058533,23.1190364 216.508946,37.013618 214.019965,38.1714998 C211.913905,39.2328915 209.807844,41.7416354 209.424924,43.6714384 C208.754814,46.8556134 208.754814,51.4871406 208.754814,55.3467466 Z" id="XMLID_2629_" fill="url(#linearGradient-2)" fill-rule="nonzero"></path>
                        <g id="XMLID_2609_" transform="translate(200.759949, 27.526316)">
                            <path d="M71.3743141,1.34763436 C75.0246828,-0.770076776 78.0026152,0.96259597 78.0026152,5.10175864 L78.4829268,167.587958 C78.4829268,171.727121 75.5049945,176.925139 71.9506881,178.946591 L7.97317372,216.006536 C4.32280503,218.124247 1.34487268,216.391574 1.34487268,212.252411 L0.864561005,49.7662117 C0.864561005,45.627049 3.84249336,40.4290308 7.39679971,38.4075792 L71.3743141,1.34763436 Z" id="XMLID_2627_" fill="#25368D" fill-rule="nonzero"></path>
                            <path d="M75.1207451,3.94664348 C78.6750515,1.82893234 81.6529838,3.56160509 81.6529838,7.70076776 L82.1332955,168.550554 C82.1332955,172.689717 79.2514255,177.791476 75.6010568,179.812927 L12.2959787,216.487834 C8.74167239,218.605545 5.76374004,216.872872 5.76374004,212.733709 L5.28342837,51.8839228 C5.28342837,47.7447601 8.16529838,42.6430015 11.8156671,40.6215499 L75.1207451,3.94664348 Z" id="XMLID_2625_" fill="#8597EF" fill-rule="nonzero"></path>
                            <g id="XMLID_2620_" transform="translate(11.527480, 21.177111)" fill="url(#linearGradient-3)" fill-rule="nonzero">
                                <polygon id="XMLID_2624_" points="63.4972027 0.866336373 63.8814521 140.635271 0.864561005 177.117659 0.48031167 37.3487237"></polygon>
                            </g>
                            <g id="XMLID_2616_" transform="translate(31.700570, 36.578647)" fill="#5180D8" fill-rule="nonzero">
                                <ellipse id="XMLID_2617_" transform="translate(2.095552, 2.430064) rotate(-59.835119) translate(-2.095552, -2.430064) " cx="2.09555178" cy="2.4300639" rx="1.82522031" ry="1.05887643"></ellipse>
                            </g>
                            <g id="XMLID_2612_" transform="translate(37.464310, 25.990091)" fill="#5180D8" fill-rule="nonzero">
                                <path d="M16.0424098,0.481297985 C16.5227214,0.192519194 17.0030331,0.385038388 17.0030331,1.05885557 C17.0030331,1.63641315 16.6187838,2.40648993 16.0424098,2.69526872 L1.44093501,11.1661133 C0.960623339,11.454892 0.48031167,11.2623729 0.48031167,10.5885557 C0.48031167,10.0109981 0.864561005,9.24092132 1.44093501,8.95214252 L16.0424098,0.481297985 Z" id="XMLID_2613_"></path>
                            </g>
                            <g id="XMLID_2610_" transform="translate(36.503687, 180.968042)" stroke="#7793EB" stroke-width="0.5">
                                <ellipse id="XMLID_2611_" transform="translate(7.449144, 8.582823) rotate(-59.835119) translate(-7.449144, -8.582823) " cx="7.44914408" cy="8.58282333" rx="7.10875279" ry="4.13924423"></ellipse>
                            </g>
                        </g>
                        <g id="XMLID_2592_" transform="translate(412.179718, 0.000000)">
                            <path d="M74.8026761,38.5038388 C78.4562773,40.6215499 81.3406992,45.7233086 81.3406992,49.8624713 L80.8599622,212.348671 C80.8599622,216.487834 77.8793929,218.220506 74.2257917,216.102795 L10.1916243,179.04285 C6.53802311,176.925139 3.65360115,171.823381 3.65360115,167.684218 L4.13433814,5.19801824 C4.13433814,1.05885557 7.1149075,-0.673817179 10.7685086,1.44389396 L74.8026761,38.5038388 Z" id="XMLID_2607_" fill="#25368D" fill-rule="nonzero"></path>
                            <path d="M70.3798958,40.7178095 C73.9373495,42.8355207 76.9179189,47.8410197 76.9179189,51.9801824 L76.4371819,212.829969 C76.4371819,216.969132 73.4566126,218.605545 69.8991588,216.584093 L6.53802311,179.909187 C2.98056936,177.791476 1.137e-13,172.785977 1.137e-13,168.646814 L0.480736993,7.79702736 C0.480736993,3.65786469 3.46130635,2.02145154 7.0187601,4.04290308 L70.3798958,40.7178095 Z" id="XMLID_2605_" fill="#8597EF" fill-rule="nonzero"></path>
                            <g id="XMLID_2603_" transform="translate(6.730318, 22.139707)" fill="url(#linearGradient-4)" fill-rule="nonzero">
                                <polygon id="XMLID_2604_" points="0.384589595 0.096259597 0 139.768935 63.0726935 176.251322 63.4572831 36.5786469"></polygon>
                            </g>
                            <g id="XMLID_2599_" transform="translate(46.150751, 36.578647)" fill="#9CA9FF" fill-rule="nonzero">
                                <ellipse id="XMLID_2600_" transform="translate(2.221370, 2.482833) rotate(-30.164881) translate(-2.221370, -2.482833) " cx="2.22137027" cy="2.48283341" rx="1.05764223" ry="1.82896838"></ellipse>
                            </g>
                            <g id="XMLID_2595_" transform="translate(26.921272, 25.990091)" fill="#9CA9FF" fill-rule="nonzero">
                                <path d="M1.63450578,0.577557582 C1.15376878,0.288778791 0.67303179,0.481297985 0.67303179,1.15511516 C0.67303179,1.73267275 1.05762138,2.50274952 1.63450578,2.79152831 L16.2489104,11.2623729 C16.7296474,11.5511516 17.2103844,11.3586325 17.2103844,10.6848153 C17.2103844,10.1072577 16.8257948,9.33718091 16.2489104,9.04840212 L1.63450578,0.577557582 Z" id="XMLID_2596_"></path>
                            </g>
                            <g id="XMLID_2593_" transform="translate(30.767168, 180.968042)" stroke="#7793EB" stroke-width="0.5">
                                <ellipse id="XMLID_2594_" transform="translate(7.498901, 8.607533) rotate(-30.164881) translate(-7.498901, -8.607533) " cx="7.49890098" cy="8.60753317" rx="4.13441961" ry="7.12335054"></ellipse>
                            </g>
                        </g>
                        <g id="XMLID_2574_" transform="translate(214.084724, 229.089983)" fill-rule="nonzero">
                            <g id="XMLID_2585_" transform="translate(0.000000, 77.194814)" fill="#25368D">
                                <path d="M271.942813,1.44740277 C271.942813,1.54389629 271.942813,1.64038981 271.942813,1.73688332 C271.942813,1.83337684 271.942813,1.92987036 271.942813,2.02636388 C271.942813,2.1228574 271.942813,2.21935091 271.846448,2.31584443 C271.846448,2.41233795 271.846448,2.50883147 271.750083,2.60532499 C271.750083,2.7018185 271.653718,2.79831202 271.653718,2.89480554 C271.653718,2.99129906 271.557352,3.08779257 271.557352,3.18428609 C271.557352,3.28077961 271.460987,3.37727313 271.460987,3.47376665 C271.460987,3.57026016 271.364622,3.66675368 271.364622,3.7632472 C271.364622,3.85974072 271.268256,3.95623424 271.268256,4.05272775 C271.268256,4.14922127 271.171891,4.24571479 271.171891,4.34220831 C271.075526,4.43870183 271.075526,4.53519534 270.979161,4.63168886 C270.979161,4.72818238 270.882795,4.8246759 270.78643,4.92116942 C270.690065,5.01766293 270.593699,5.21064997 270.593699,5.30714349 C270.497334,5.40363701 270.497334,5.50013052 270.400969,5.50013052 C270.304604,5.59662404 270.208238,5.78961108 270.111873,5.8861046 C270.111873,5.98259811 270.015508,5.98259811 270.015508,6.07909163 C269.822777,6.27207867 269.630047,6.4650657 269.437316,6.75454626 C269.340951,6.85103978 269.340951,6.85103978 269.244586,6.94753329 C269.051855,7.14052033 268.95549,7.23701385 268.762759,7.43000088 C268.666394,7.5264944 268.570029,7.62298792 268.570029,7.62298792 C268.473663,7.71948144 268.377298,7.81597496 268.280933,7.91246847 C268.184568,8.00896199 268.088202,8.10545551 267.991837,8.20194903 C267.895472,8.29844254 267.799106,8.39493606 267.702741,8.49142958 C267.606376,8.5879231 267.510011,8.68441662 267.413645,8.68441662 C267.31728,8.78091013 267.220915,8.87740365 267.028184,8.97389717 C266.931819,9.07039069 266.835454,9.16688421 266.642723,9.16688421 C266.546358,9.26337772 266.353627,9.35987124 266.257262,9.45636476 C266.064531,9.55285828 265.968166,9.6493518 265.775436,9.74584531 L151.871677,76.0368922 L151.871677,85.1072828 L265.775436,18.816236 C265.871801,18.7197425 265.968166,18.7197425 266.064531,18.623249 C266.160897,18.5267554 266.257262,18.5267554 266.257262,18.4302619 C266.353627,18.3337684 266.546358,18.2372749 266.642723,18.1407814 C266.739088,18.0442879 266.835454,17.9477943 267.028184,17.9477943 C267.124549,17.8513008 267.31728,17.7548073 267.413645,17.6583138 C267.510011,17.5618203 267.606376,17.4653268 267.702741,17.4653268 C267.799106,17.3688332 267.895472,17.2723397 267.991837,17.1758462 C268.088202,17.0793527 268.184568,16.9828592 268.280933,16.8863656 C268.377298,16.7898721 268.473663,16.6933786 268.570029,16.5968851 C268.570029,16.5968851 268.666394,16.5003916 268.666394,16.5003916 C268.666394,16.5003916 268.762759,16.4038981 268.762759,16.4038981 C268.95549,16.210911 269.051855,16.1144175 269.244586,15.9214305 C269.340951,15.8249369 269.340951,15.8249369 269.437316,15.7284434 C269.630047,15.5354564 269.822777,15.3424694 270.015508,15.0529888 C270.015508,15.0529888 270.015508,15.0529888 270.015508,15.0529888 C270.015508,14.9564953 270.111873,14.9564953 270.111873,14.8600018 C270.208238,14.7635082 270.304604,14.5705212 270.400969,14.4740277 C270.497334,14.3775342 270.497334,14.2810407 270.593699,14.2810407 C270.690065,14.1845471 270.78643,13.9915601 270.78643,13.8950666 C270.78643,13.8950666 270.78643,13.7985731 270.882795,13.7985731 C270.882795,13.7020796 270.979161,13.7020796 270.979161,13.605586 C271.075526,13.5090925 271.075526,13.412599 271.171891,13.3161055 C271.171891,13.219612 271.268256,13.1231184 271.268256,13.0266249 C271.268256,12.9301314 271.364622,12.8336379 271.364622,12.7371444 C271.364622,12.6406509 271.364622,12.6406509 271.460987,12.5441573 C271.460987,12.5441573 271.460987,12.4476638 271.460987,12.4476638 C271.460987,12.3511703 271.557352,12.2546768 271.557352,12.1581833 C271.557352,12.0616897 271.653718,11.9651962 271.653718,11.8687027 C271.653718,11.7722092 271.750083,11.6757157 271.750083,11.5792222 C271.750083,11.4827286 271.750083,11.4827286 271.750083,11.3862351 C271.750083,11.3862351 271.750083,11.2897416 271.750083,11.2897416 C271.750083,11.1932481 271.750083,11.0967546 271.846448,11.000261 C271.846448,10.9037675 271.846448,10.807274 271.846448,10.7107805 C271.846448,10.614287 271.846448,10.5177935 271.846448,10.4212999 C271.846448,10.3248064 271.846448,10.3248064 271.846448,10.2283129 L271.846448,10.0353259 L271.846448,0.96493518 C271.942813,1.15792222 271.942813,1.35090925 271.942813,1.44740277 Z" id="XMLID_2588_"></path>
                                <path d="M6.93829999,9.74584531 C2.69822777,7.33350737 0.578191665,4.14922127 0.674556943,0.868441662 L0.674556943,9.93883235 C0.674556943,13.1231184 2.79459305,16.3074045 6.93829999,18.816236 L121.61298,85.1072828 L121.61298,76.0368922 L6.93829999,9.74584531 Z" id="XMLID_2587_"></path>
                                <path d="M150.040737,86.072218 C150.137102,85.9757245 150.329833,85.9757245 150.426198,85.879231 C150.908025,85.686244 151.389851,85.3967634 151.871677,85.1072828 L151.871677,76.0368922 C151.389851,76.3263727 150.908025,76.5193597 150.426198,76.8088403 C150.329833,76.9053338 150.137102,76.9053338 150.040737,77.0018273 C149.558911,77.1948144 149.17345,77.3878014 148.691623,77.5807884 C148.595258,77.5807884 148.595258,77.677282 148.498893,77.677282 C148.017066,77.870269 147.438875,78.063256 146.957048,78.1597496 C146.571587,78.2562431 146.186126,78.3527366 145.89703,78.4492301 C145.607934,78.5457236 145.318839,78.6422171 145.029743,78.6422171 C144.644282,78.7387107 144.258821,78.8352042 143.873359,78.9316977 C143.584264,79.0281912 143.295168,79.0281912 143.006072,79.1246847 C142.909707,79.1246847 142.716976,79.1246847 142.620611,79.2211782 C142.138784,79.3176718 141.656958,79.4141653 141.175132,79.4141653 C141.078766,79.4141653 140.886036,79.4141653 140.789671,79.5106588 C140.500575,79.5106588 140.211479,79.6071523 139.922383,79.6071523 C139.440557,79.6071523 138.95873,79.7036458 138.476904,79.7036458 C138.187808,79.7036458 137.898712,79.7036458 137.513251,79.7036458 C137.12779,79.7036458 136.742329,79.7036458 136.356868,79.7036458 C136.067772,79.7036458 135.682311,79.7036458 135.393215,79.7036458 C135.007754,79.7036458 134.718658,79.7036458 134.333197,79.6071523 C134.044101,79.6071523 133.65864,79.5106588 133.369544,79.5106588 C132.984083,79.5106588 132.694987,79.4141653 132.309526,79.4141653 C132.02043,79.4141653 131.634969,79.3176718 131.345873,79.3176718 C130.960412,79.2211782 130.574951,79.2211782 130.18949,79.1246847 C129.900394,79.0281912 129.611298,79.0281912 129.322203,78.9316977 C128.840376,78.8352042 128.454915,78.7387107 127.973089,78.6422171 C127.683993,78.5457236 127.394897,78.4492301 127.105801,78.4492301 C126.913071,78.4492301 126.816705,78.3527366 126.623975,78.3527366 C126.142148,78.2562431 125.756687,78.063256 125.274861,77.870269 C125.178496,77.870269 124.985765,77.7737755 124.8894,77.7737755 C124.503939,77.5807884 124.118478,77.4842949 123.733016,77.2913079 C123.540286,77.1948144 123.347555,77.0983209 123.154825,77.0983209 C122.576633,76.8088403 122.094807,76.6158533 121.61298,76.3263727 L121.61298,85.3967634 C122.094807,85.686244 122.672998,85.9757245 123.154825,86.1687115 C123.347555,86.2652051 123.540286,86.3616986 123.733016,86.4581921 C124.022112,86.5546856 124.407573,86.7476726 124.696669,86.8441662 C124.793034,86.8441662 124.793034,86.8441662 124.8894,86.9406597 C124.985765,86.9406597 125.178496,87.0371532 125.274861,87.0371532 C125.660322,87.2301402 126.142148,87.3266338 126.527609,87.5196208 C126.72034,87.5196208 126.816705,87.6161143 127.009436,87.6161143 C127.105801,87.6161143 127.202166,87.7126078 127.298532,87.7126078 C127.491262,87.8091013 127.683993,87.8091013 127.876723,87.8091013 C128.35855,87.9055949 128.744011,88.0020884 129.225837,88.0985819 C129.322203,88.0985819 129.418568,88.1950754 129.611298,88.1950754 C129.804029,88.1950754 129.996759,88.2915689 130.18949,88.2915689 C130.574951,88.3880625 130.960412,88.3880625 131.345873,88.484556 C131.538604,88.484556 131.634969,88.5810495 131.8277,88.5810495 C132.02043,88.5810495 132.116796,88.5810495 132.309526,88.677543 C132.694987,88.677543 132.984083,88.7740365 133.369544,88.7740365 C133.562275,88.7740365 133.755005,88.7740365 133.851371,88.87053 C134.044101,88.87053 134.140466,88.87053 134.333197,88.87053 C134.718658,88.87053 135.007754,88.87053 135.393215,88.9670236 C135.585946,88.9670236 135.778676,88.9670236 135.971407,88.9670236 C136.164137,88.9670236 136.260503,88.9670236 136.453233,88.9670236 C136.838694,88.9670236 137.224155,88.9670236 137.609616,88.9670236 C137.802347,88.9670236 137.995077,88.9670236 138.187808,88.9670236 C138.284173,88.9670236 138.380539,88.9670236 138.573269,88.9670236 C139.055096,88.9670236 139.536922,88.87053 140.018748,88.87053 C140.211479,88.87053 140.404209,88.87053 140.59694,88.87053 C140.693305,88.87053 140.789671,88.87053 140.886036,88.87053 C140.982401,88.87053 141.175132,88.87053 141.271497,88.7740365 C141.753323,88.677543 142.23515,88.677543 142.716976,88.5810495 C142.813341,88.5810495 143.006072,88.5810495 143.102437,88.484556 C143.198802,88.484556 143.198802,88.484556 143.295168,88.484556 C143.487898,88.484556 143.776994,88.3880625 143.969725,88.2915689 C144.355186,88.1950754 144.740647,88.0985819 145.126108,88.0020884 C145.415204,87.9055949 145.7043,87.8091013 145.993396,87.8091013 C146.378857,87.7126078 146.764318,87.6161143 147.053414,87.5196208 C147.149779,87.5196208 147.246144,87.5196208 147.246144,87.4231273 C147.727971,87.3266338 148.113432,87.1336467 148.498893,86.9406597 C148.595258,86.9406597 148.595258,86.8441662 148.691623,86.8441662 C149.077084,86.4581921 149.558911,86.2652051 150.040737,86.072218 Z" id="XMLID_2586_"></path>
                            </g>
                            <path d="M265.67907,70.7297487 C274.062849,75.5544246 274.062849,83.466893 265.775436,88.2915689 L151.871677,154.582616 C143.584264,159.407292 129.996759,159.407292 121.61298,154.582616 L6.93829999,88.2915689 C-1.44547916,83.466893 -1.44547916,75.5544246 6.84193471,70.7297487 L120.745693,4.43870183 C129.033107,-0.385974072 142.620611,-0.385974072 151.00439,4.43870183 L265.67907,70.7297487 Z" id="XMLID_2584_" fill="#4F68E8"></path>
                            <path d="M241.973212,89.1600106 L141.656958,147.538589 C138.766,149.275472 135.104119,149.275472 132.213161,147.538589 L31.1259847,89.1600106 C27.5604694,87.1336467 26.4040861,83.3703995 26.5004513,79.8001394 C26.5004513,77.0018273 26.4040861,73.9140348 26.4040861,73.9140348 L131.442239,14.3775342 C134.333197,12.6406509 137.995077,12.6406509 140.886036,14.3775342 L246.598745,74.3965024 L246.598745,81.3440356 C246.50238,84.4318282 244.960536,87.4231273 241.973212,89.1600106 Z" id="XMLID_2581_" fill="#25368D"></path>
                            <path d="M241.973212,83.080919 L141.656958,141.459497 C138.766,143.196381 135.104119,143.196381 132.213161,141.459497 L31.1259847,82.9844254 C24.8622416,79.3176718 24.8622416,70.2472811 31.1259847,66.6770209 L131.442239,8.29844254 C134.333197,6.56155922 137.995077,6.56155922 140.886036,8.29844254 L241.973212,66.6770209 C248.236955,70.3437746 248.236955,79.4141653 241.973212,83.080919 Z" id="XMLID_2580_" fill="url(#linearGradient-5)"></path>
                        </g>
                        <g id="XMLID_2525_" transform="translate(317.129653, 110.105263)" fill-rule="nonzero">
                            <path d="M34.8742683,50.03447 C32.1693389,49.5524424 29.5610141,51.3841475 29.077991,54.0835023 C28.5949679,56.7828571 30.4304557,59.3858065 33.1353851,59.8678341 C35.8403145,60.3498618 38.4486393,58.5181567 38.9316624,55.8188018 C39.4146855,53.119447 37.5791977,50.5164977 34.8742683,50.03447" id="XMLID_2572_" fill="#F8B3AD"></path>
                            <path d="M28.5949679,60.7354839 C31.2032927,60.5426728 33.1353851,58.2289401 32.9421759,55.5295853 C32.652362,52.9266359 30.3338511,50.9985253 27.7255263,51.1913364 L4.73362644,53.4086636 C2.12530167,53.6978802 0.193209243,56.0116129 0.386418485,58.6145622 C0.579627728,61.2175115 2.99474326,63.1456221 5.60306804,62.9528111 L28.5949679,60.7354839 Z" id="XMLID_2569_" fill="#FFFFFF"></path>
                            <path d="M14.3940886,190.786544 C15.6499487,192.425438 18.4514827,194.546359 22.1224583,192.039816 C26.5662709,189.051244 34.4878498,184.327373 33.1353851,180.856774 C32.5557574,179.21788 21.4462259,182.88129 21.4462259,182.88129 L21.5428306,180.663963 L14.9737163,180.374747 C15.0703209,180.374747 13.9110655,190.208111 14.3940886,190.786544" id="XMLID_2566_" fill="#5A39FF"></path>
                            <path d="M14.3940886,138.534747 C14.4906932,142.005346 17.3888318,144.7047 20.8665982,144.7047 C24.3443646,144.608295 27.049294,141.716129 26.9526893,138.24553 L27.3391078,89.5607373 C27.2425032,86.0901382 23.0885045,83.3907834 19.6107381,83.4871889 C16.1329718,83.5835945 12.1721823,86.4757604 12.2687869,89.9463594 L14.3940886,138.534747 Z" id="XMLID_2563_" fill="#7677FF"></path>
                            <path d="M13.2348331,180.567558 C12.9450193,184.038157 14.3940886,185.677051 17.8718549,185.966267 C21.3496213,186.255484 22.9918999,184.809401 23.2817137,181.338802 L26.7594801,140.848479 C26.9526893,137.37788 24.3443646,134.389309 20.9632028,134.100092 C17.4854365,133.810876 14.4906932,136.51023 14.2008793,139.884424 L13.2348331,180.567558 Z" id="XMLID_2560_" fill="#7677FF"></path>
                            <path d="M73.0330937,60.9282949 C75.6414185,60.1570507 77.1870924,57.3612903 76.4142555,54.6619355 C75.6414185,52.0589862 72.8398845,50.5164977 70.1349551,51.3841475 C67.5266303,52.1553917 65.9809564,54.9511521 66.7537933,57.6505069 C67.6232349,60.2534562 70.4247689,61.7959447 73.0330937,60.9282949" id="XMLID_2559_" fill="#F8B3AD"></path>
                            <path d="M36.1301284,200.330691 C37.3859884,201.969585 39.5112901,202.258802 43.8584981,201.583963 C50.1377985,200.716313 59.5084467,198.981014 58.2525866,195.510415 C57.6729589,193.871521 43.1822657,192.425438 43.1822657,192.425438 L43.2788703,190.208111 L36.7097561,189.918894 C36.7097561,190.0153 35.6471053,199.752258 36.1301284,200.330691" id="XMLID_2556_" fill="#5A39FF"></path>
                            <path d="M34.0048267,146.729217 C34.2946406,150.199816 37.3859884,152.706359 40.8637548,152.417143 C44.3415212,152.127926 46.8532413,149.042949 46.5634275,145.57235 L44.9211489,96.8875576 C44.631335,93.4169585 40.2841271,91.0068203 36.8063607,91.2960369 C33.3285944,91.5852535 29.5610141,94.7666359 29.850828,98.237235 L34.0048267,146.729217 Z" id="XMLID_2553_" fill="#7677FF"></path>
                            <path d="M35.0674775,188.665622 C35.0674775,192.136221 36.6131515,193.67871 40.0909178,193.775115 C43.5686842,193.775115 45.1143582,192.232627 45.1143582,188.762028 L46.4668228,148.1753 C46.4668228,144.7047 43.6652888,141.90894 40.1875225,141.90894 C36.7097561,141.90894 33.9082221,144.7047 33.9082221,148.1753 L35.0674775,188.665622 Z" id="XMLID_2550_" fill="#7677FF"></path>
                            <path d="M27.3391078,24.8726267 C27.3391078,24.8726267 34.5844544,30.6569585 39.4146855,29.7893088 C42.2162195,29.5000922 45.6939859,21.3056221 45.404172,17.3529954 C45.1143582,13.4003687 44.8245443,7.80884793 39.9943132,4.33824885 C37.0961746,2.21732719 29.7542234,-0.77124424 24.9239923,4.62746544 C20.0937612,10.0261751 20.8665982,21.2092166 27.3391078,24.8726267" id="XMLID_2549_" fill="#F8B3AD"></path>
                            <path d="M25.6968293,32.7778802 C25.50362,34.8988018 26.9526893,36.8269124 29.077991,37.0197235 C31.2032927,37.3089401 33.1353851,35.7664516 33.3285944,33.64553 L34.0048267,27.1863594 C34.1980359,25.0654378 32.7489666,23.1373272 30.623665,22.9445161 C28.4983633,22.7517051 26.5662709,24.197788 26.3730616,26.3187097 L25.6968293,32.7778802 Z" id="XMLID_2548_" fill="#F8B3AD"></path>
                            <path d="M11.6891592,81.6554839 C11.6891592,81.6554839 10.2400899,90.8140092 15.2635302,94.1882028 C20.2869705,97.5623963 31.1066881,102.961106 34.8742683,104.214378 C38.6418485,105.46765 44.4381258,101.900645 44.4381258,96.1163134 C44.4381258,90.235576 20.4801797,73.7502304 11.6891592,81.6554839" id="XMLID_2545_" fill="#7677FF"></path>
                            <path d="M46.4668228,43.2860829 C43.6652888,40.4903226 38.3520347,36.1520737 29.2712003,32.0066359 C25.3104108,30.2713364 18.8379012,27.8611982 16.1329718,26.9935484 C13.3314377,26.0294931 12.0755777,29.5000922 12.3653915,32.2958525 C12.6552054,35.0916129 12.3653915,60.3498618 12.3653915,63.5312442 C12.3653915,68.2551152 11.3993453,78.5705069 11.1095315,81.3662673 C11.1095315,81.3662673 11.7857638,84.8368664 21.3496213,90.235576 C24.9239923,92.2600922 31.3965019,95.0558525 36.9029653,96.5019355 C40.3807317,97.4659908 43.4720796,96.598341 45.3075674,95.8270968 C44.7279397,92.3564977 43.9551027,71.3400922 44.5347304,66.7126267 C45.2109628,61.9887558 47.3362644,56.0116129 48.0124968,52.9266359 C48.5921245,49.841659 48.3023107,45.117788 46.4668228,43.2860829" id="XMLID_2542_" fill="#F9DA4A"></path>
                            <path d="M44.2449166,74.5214747 C44.8245443,77.0280184 47.4328691,78.6669124 49.9445892,78.0884793 C52.552914,77.5100461 54.0985879,74.9070968 53.5189602,72.400553 L47.7226829,46.3710599 C47.1430552,43.7681106 44.5347304,42.2256221 42.0230103,42.8040553 C39.4146855,43.3824885 37.8690116,45.9854378 38.4486393,48.4919816 L44.2449166,74.5214747 Z" id="XMLID_2539_" fill="#F9DA4A"></path>
                            <path d="M70.1349551,63.1456221 C72.2602567,61.6031336 72.6466752,58.6145622 71.1010013,56.4936406 C69.5553273,54.3727189 66.5605841,53.9870968 64.4352824,55.5295853 L45.9837997,69.4119816 C43.8584981,70.95447 43.4720796,73.9430415 45.0177535,76.0639631 C46.5634275,78.1848848 49.5581707,78.5705069 51.6834724,77.0280184 L70.1349551,63.1456221 Z" id="XMLID_2536_" fill="#F9DA4A"></path>
                            <path d="M1.06265083,54.6619355 C0.0966046213,57.0720737 1.3524647,59.8678341 3.76758023,60.8318894 C6.18269576,61.7959447 8.98422978,60.5426728 9.95027599,58.1325346 L19.9971566,33.3563134 C20.9632028,30.9461751 19.7073427,28.1504147 17.2922272,27.1863594 C14.8771117,26.2223041 12.0755777,27.475576 11.1095315,29.8857143 L1.06265083,54.6619355 Z" id="XMLID_2533_" fill="#F9DA4A"></path>
                            <path d="M40.2841271,38.562212 C40.2841271,38.562212 31.2998973,29.11447 27.7255263,28.1504147 C24.1511553,27.0899539 19.900552,28.3432258 19.900552,28.3432258 C19.900552,28.3432258 21.6394352,33.0670968 24.7307831,34.3203687 C27.9187356,35.477235 40.2841271,38.562212 40.2841271,38.562212" id="XMLID_2530_" fill="#F9DA4A"></path>
                            <path d="M24.3443646,25.4510599 C24.3443646,25.4510599 29.1745956,25.836682 31.0100834,24.5834101 C32.8455712,23.3301382 40.5739409,18.9918894 40.1875225,15.8105069 C39.801104,12.72553 38.5452439,9.73695853 38.5452439,9.73695853 C38.5452439,9.73695853 43.4720796,10.8938249 44.1483119,6.84479263 C45.2109628,0.57843318 39.028267,2.50654378 39.028267,2.50654378 C34.6810591,-0.09640553 27.5323171,-1.44608295 22.0258537,3.47059908 C13.9110655,10.8938249 18.0650642,19.5703226 24.3443646,25.4510599" id="XMLID_2527_" fill="#2D2F3A"></path>
                            <path d="M32.9421759,20.8235945 C32.9421759,22.2696774 34.1014313,23.5229493 35.6471053,23.5229493 C37.0961746,23.5229493 38.3520347,22.2696774 38.3520347,20.8235945 C38.3520347,19.3775115 37.0961746,18.1242396 35.6471053,18.1242396 C34.1980359,18.1242396 32.9421759,19.3775115 32.9421759,20.8235945" id="XMLID_2526_" fill="#F8B3AD"></path>
                        </g>
                        <g id="XMLID_2480_" transform="translate(262.942234, 11.543294)" fill="#F9DA4A" fill-rule="nonzero">
                            <ellipse id="XMLID_2524_" cx="36.8747865" cy="40.710304" rx="2.79208566" ry="2.79101375"></ellipse>
                            <ellipse id="XMLID_2523_" cx="141.048465" cy="120.013591" rx="1.15534579" ry="1.15490224"></ellipse>
                            <ellipse id="XMLID_2522_" cx="145.958685" cy="138.973236" rx="1.25162461" ry="1.25114409"></ellipse>
                            <ellipse id="XMLID_2521_" cx="3.17720093" cy="138.973236" rx="2.50324921" ry="2.50228819"></ellipse>
                            <ellipse id="XMLID_2520_" cx="114.571791" cy="168.615727" rx="1.8292975" ry="1.82859521"></ellipse>
                            <ellipse id="XMLID_2519_" cx="20.411109" cy="63.5196232" rx="1.44418224" ry="1.4436278"></ellipse>
                            <path d="M160.593065,191.040079 C160.593065,193.253641 158.763767,195.082237 156.549355,195.082237 C154.334942,195.082237 152.505644,193.253641 152.505644,191.040079 C152.505644,188.826516 154.334942,186.997921 156.549355,186.997921 C158.763767,186.997921 160.593065,188.826516 160.593065,191.040079 Z" id="XMLID_2518_"></path>
                            <path d="M122.274096,230.114271 C122.274096,231.750383 120.926193,233.097769 119.289453,233.097769 C117.652713,233.097769 116.30481,231.750383 116.30481,230.114271 C116.30481,228.47816 117.652713,227.130774 119.289453,227.130774 C120.926193,227.130774 122.274096,228.47816 122.274096,230.114271 Z" id="XMLID_2517_"></path>
                            <ellipse id="XMLID_2516_" cx="9.62788159" cy="211.635835" rx="2.11813395" ry="2.11732077"></ellipse>
                            <ellipse id="XMLID_2515_" cx="124.39223" cy="241.567052" rx="1.34790342" ry="1.34738595"></ellipse>
                            <ellipse id="XMLID_2514_" cx="6.83579593" cy="250.902512" rx="3.65859501" ry="3.65719043"></ellipse>
                            <ellipse id="XMLID_2513_" cx="152.601923" cy="33.8771324" rx="1.15534579" ry="1.15490224"></ellipse>
                            <ellipse id="XMLID_2512_" cx="91.4648751" cy="3.94591599" rx="3.56231619" ry="3.56094857"></ellipse>
                            <ellipse id="XMLID_2511_" cx="76.1565434" cy="250.902512" rx="1.34790342" ry="1.34738595"></ellipse>
                            <ellipse id="XMLID_2510_" cx="94.0644032" cy="254.559702" rx="2.59952803" ry="2.59853004"></ellipse>
                            <path d="M144.70706,252.538623 C144.70706,254.559702 143.07032,256.195814 141.048465,256.195814 C139.02661,256.195814 137.38987,254.559702 137.38987,252.538623 C137.38987,250.517544 139.02661,248.881433 141.048465,248.881433 C143.07032,248.785191 144.70706,250.421302 144.70706,252.538623 Z" id="XMLID_2509_"></path>
                            <ellipse id="XMLID_2508_" cx="74.9049188" cy="295.46249" rx="2.79208566" ry="2.79101375"></ellipse>
                            <ellipse id="XMLID_2507_" cx="40.6296603" cy="287.6669" rx="1.63673987" ry="1.63611151"></ellipse>
                            <ellipse id="XMLID_2506_" cx="87.8062801" cy="144.170296" rx="1.34790342" ry="1.34738595"></ellipse>
                            <ellipse id="XMLID_2505_" cx="77.5044468" cy="89.6011655" rx="1.44418224" ry="1.4436278"></ellipse>
                            <path d="M124.39223,106.828457 C124.39223,108.175843 123.236884,109.330745 121.888981,109.330745 C120.541078,109.330745 119.385732,108.175843 119.385732,106.828457 C119.385732,105.481071 120.541078,104.326169 121.888981,104.326169 C123.236884,104.326169 124.39223,105.481071 124.39223,106.828457 Z" id="XMLID_2504_"></path>
                        </g>
                        <g id="XMLID_2420_" transform="translate(422.839538, 35.517827)" fill-rule="nonzero">
                            <path d="M55.2385965,35.3784531 L1.82845528,2.70654832 C0.866110398,2.12657368 0.288703466,1.06328684 0.288703466,1.42e-14 L53.6988447,32.6719048 C54.6611896,33.2518794 55.2385965,34.2185038 55.2385965,35.3784531 Z" id="XMLID_2429_" fill="url(#linearGradient-6)"></path>
                            <path d="M47.3473684,50.5544562 L1.82845528,22.7156734 C0.866110398,22.1356988 0.288703466,21.0724119 0.288703466,20.0091251 L45.8076166,47.8479078 C46.7699615,48.4278825 47.3473684,49.3945069 47.3473684,50.5544562 Z" id="XMLID_2428_" fill="url(#linearGradient-7)"></path>
                            <path d="M40.5147197,39.6316004 L1.92468977,16.0459651 C0.962344887,15.4659904 0.384937955,14.4027036 0.384937955,13.3394167 L38.9749679,36.9250521 C39.9373128,37.5050268 40.5147197,38.4716512 40.5147197,39.6316004 Z" id="XMLID_2427_" fill="url(#linearGradient-8)"></path>
                            <path d="M31.5649123,27.452133 L1.82845528,9.37625669 C0.866110398,8.79628205 0.288703466,7.73299521 0.288703466,6.66970837 L30.0251605,24.7455847 C30.9875053,25.3255593 31.5649123,26.3888461 31.5649123,27.452133 Z" id="XMLID_2426_" fill="url(#linearGradient-9)"></path>
                            <path d="M56.7783483,76.3633277 L1.82845528,42.7247985 C0.866110398,42.1448239 0.288703466,41.081537 0.288703466,40.0182502 L55.2385965,73.6567794 C56.2009414,74.236754 56.7783483,75.2033784 56.7783483,76.3633277 Z" id="XMLID_2425_" fill="url(#linearGradient-10)"></path>
                            <path d="M54.2762516,68.1470203 L1.82845528,36.1517526 C0.866110398,35.571778 0.288703466,34.5084911 0.288703466,33.4452043 L52.7364998,65.4404719 C53.6988447,66.0204466 54.2762516,66.987071 54.2762516,68.1470203 Z" id="XMLID_2424_" fill="url(#linearGradient-11)"></path>
                            <path d="M38.4937955,51.7144055 L1.82845528,29.3853818 C0.866110398,28.8054071 0.288703466,27.7421203 0.288703466,26.6788335 L36.9540436,49.0078571 C37.9163885,49.5878318 38.4937955,50.6511186 38.4937955,51.7144055 Z" id="XMLID_2423_" fill="url(#linearGradient-12)"></path>
                            <path d="M45.4226786,75.9766779 L1.82845528,49.3945069 C0.866110398,48.8145322 0.288703466,47.7512454 0.288703466,46.6879586 L43.8829268,73.2701296 C44.8452717,73.8501042 45.4226786,74.9133911 45.4226786,75.9766779 Z" id="XMLID_2422_" fill="url(#linearGradient-13)"></path>
                            <path d="M33.5858365,75.3967033 L1.82845528,56.0642153 C0.866110398,55.4842406 0.288703466,54.4209538 0.288703466,53.3576669 L32.0460847,72.690155 C33.0084296,73.2701296 33.5858365,74.3334164 33.5858365,75.3967033 Z" id="XMLID_2421_" fill="url(#linearGradient-14)"></path>
                        </g>
                        <path d="M227.37255,155.390492 L270.04878,131.012122 L270.04878,24.8264951 C270.04878,18.3705631 265.97514,13.4563462 261.125569,12.4927743 C259.476714,12.2037027 257.439894,12.9745603 255.597057,13.9381322 C253.75422,14.9017042 214.084724,37.8347162 214.084724,37.8347162 C215.345613,37.0638587 216.897476,36.8711443 218.54633,37.1602159 C223.395902,38.1237878 227.37255,43.0380047 227.37255,49.4939366 L227.37255,155.390492 Z" id="XMLID_2417_" fill="url(#linearGradient-15)" fill-rule="nonzero"></path>
                        <g id="XMLID_2404_" transform="translate(231.851091, 79.027165)" fill-rule="nonzero">
                            <polygon id="XMLID_2416_" fill="#8597EF" points="8.98978177 38.4815922 0.684005135 43.4126504 0.684005135 33.1637842 8.98978177 28.2327259"></polygon>
                            <polygon id="XMLID_2415_" fill="#8597EF" points="8.98978177 24.558604 0.684005135 29.4896623 0.684005135 19.2407961 8.98978177 14.3097378"></polygon>
                            <polygon id="XMLID_2414_" fill="#8597EF" points="8.98978177 10.6356159 0.684005135 15.5666742 0.684005135 5.31780796 8.98978177 0.38674967"></polygon>
                            <path d="M8.01263158,3.09399736 L4.10403081,12.279302 C4.10403081,12.3759894 4.00631579,12.3759894 3.90860077,12.279302 L1.46572529,8.41180532 C1.46572529,8.3151179 1.46572529,8.21843048 1.56344031,8.3151179 L3.71317073,9.47536691 C3.71317073,9.47536691 3.81088575,9.47536691 3.81088575,9.47536691 L7.71948652,2.99730994 C7.91491656,2.99730994 8.1103466,2.99730994 8.01263158,3.09399736 Z" id="XMLID_2411_" fill="#F9DA4A"></path>
                            <path d="M8.01263158,16.9202981 L4.10403081,26.1056027 C4.10403081,26.2022901 4.00631579,26.2022901 3.90860077,26.1056027 L1.46572529,22.238106 C1.46572529,22.1414186 1.46572529,22.0447312 1.56344031,22.1414186 L3.71317073,23.3016676 C3.71317073,23.3016676 3.81088575,23.3016676 3.81088575,23.3016676 L7.71948652,16.8236106 C7.91491656,16.7269232 8.1103466,16.8236106 8.01263158,16.9202981 Z" id="XMLID_2408_" fill="#F9DA4A"></path>
                            <path d="M8.01263158,31.036661 L4.10403081,40.2219657 C4.10403081,40.3186531 4.00631579,40.3186531 3.90860077,40.2219657 L1.46572529,36.354469 C1.46572529,36.2577816 1.46572529,36.1610941 1.56344031,36.2577816 L3.71317073,37.4180306 C3.71317073,37.4180306 3.81088575,37.4180306 3.81088575,37.4180306 L7.71948652,30.9399736 C7.91491656,30.9399736 8.1103466,30.9399736 8.01263158,31.036661 Z" id="XMLID_2405_" fill="#F9DA4A"></path>
                        </g>
                        <g id="XMLID_2397_" transform="translate(243.399230, 71.035654)" fill-rule="nonzero">
                            <path d="M11.4519042,36.5478438 C12.3180145,35.9677193 12.8954215,35.0008451 12.8954215,33.9372835 L2.40586222,40.0285908 C1.44351733,40.6087153 0.866110398,41.5755895 0.866110398,42.6391511 L0.866110398,42.8325259 L11.4519042,36.5478438 Z" id="XMLID_2403_" fill="url(#linearGradient-16)"></path>
                            <path d="M20.882884,17.1136729 C21.7489944,16.5335484 22.3264014,15.5666742 22.3264014,14.5031126 L2.40586222,26.1056027 C1.44351733,26.6857272 0.962344887,27.6526014 0.962344887,28.716163 L0.962344887,28.9095378 L20.882884,17.1136729 Z" id="XMLID_2402_" fill="url(#linearGradient-17)"></path>
                            <path d="M14.3389388,16.8236106 C15.2050492,16.2434861 15.7824561,15.276612 15.7824561,14.2130504 L2.40586222,22.0447312 C1.44351733,22.6248557 0.962344887,23.5917299 0.962344887,24.6552915 L0.962344887,24.8486663 L14.3389388,16.8236106 Z" id="XMLID_2401_" fill="url(#linearGradient-18)"></path>
                            <path d="M7.12135216,12.1826146 C8.08369705,11.6024901 8.56486949,10.6356159 8.56486949,9.57205433 L2.30962773,13.0528014 C1.34728284,13.5362384 0.769875909,14.5998 0.769875909,15.6633616 L0.769875909,15.760049 L7.12135216,12.1826146 Z" id="XMLID_2400_" fill="url(#linearGradient-19)"></path>
                            <path d="M16.2636286,2.61056027 C17.2259735,2.03043577 17.7071459,1.06356159 17.7071459,0 L2.50209671,8.79855499 C1.53975182,9.37867949 0.962344887,10.3455537 0.962344887,11.4091153 L0.962344887,11.6024901 L16.2636286,2.61056027 Z" id="XMLID_2399_" fill="url(#linearGradient-20)"></path>
                            <path d="M16.2636286,29.876412 C17.2259735,29.2962875 17.7071459,28.3294133 17.7071459,27.2658517 L2.50209671,36.0644067 C1.53975182,36.6445312 0.962344887,37.6114054 0.962344887,38.674967 L0.962344887,38.8683418 L16.2636286,29.876412 Z" id="XMLID_2398_" fill="url(#linearGradient-21)"></path>
                        </g>
                        <g id="XMLID_1807_" transform="translate(223.856226, 131.415959)" fill-rule="nonzero">
                            <path d="M20.4096078,3.48201552 C31.2431436,-2.80495695 40.0453915,2.22462103 40.0453915,14.7018433 C40.0453915,27.082343 31.3398716,42.2677995 20.5063358,48.4580494 C9.67279989,54.7450218 0.87055199,49.7154439 0.87055199,37.2382216 C0.87055199,24.8577219 9.57607189,9.76898799 20.4096078,3.48201552 Z" id="XMLID_13_" fill="#4F68E8"></path>
                            <path d="M23.3114477,6.38369512 C34.1449836,0.0967226534 42.9472315,5.12630063 42.9472315,17.6035229 C42.9472315,29.9840226 34.2417116,45.1694791 23.4081757,51.359729 C12.5746399,57.6467014 3.77239196,52.6171235 3.77239196,40.1399012 C3.77239196,27.7594015 12.4779119,12.6706676 23.3114477,6.38369512 Z M19.0554158,42.6546902 C24.7623677,33.1758701 30.3725916,23.8904954 36.0795436,14.508398 C34.9188076,13.7346168 33.7580716,12.9608356 32.5973356,12.283777 C28.1478477,19.7314213 23.6983597,26.9856203 19.2488718,34.336542 C17.5077678,33.2725928 15.9601198,32.2086436 14.2190158,31.1446944 C12.9615518,33.1758701 11.8008159,35.2070458 10.5433519,37.2382216 C13.4451918,38.9792293 16.2503038,40.8169597 19.0554158,42.6546902 Z" id="XMLID_1809_" fill="url(#linearGradient-22)"></path>
                            <path d="M32.5973356,12.283777 C33.7580716,13.0575582 34.9188076,13.7346168 36.0795436,14.508398 C30.3725916,23.8904954 24.7623677,33.1758701 19.0554158,42.6546902 C16.2503038,40.8169597 13.4451918,38.9792293 10.5433519,37.1414989 C11.8008159,35.1103232 12.9615518,33.1758701 14.2190158,31.0479717 C15.8633918,32.1119209 17.5077678,33.1758701 19.2488718,34.2398193 C23.6983597,26.9856203 28.0511197,19.6346986 32.5973356,12.283777 Z" id="XMLID_1808_" fill="#4F68E8"></path>
                        </g>
                        <g id="XMLID_3_" transform="translate(422.839538, 99.449915)" fill-rule="nonzero">
                            <path d="M55.2385965,35.3784531 L1.82845528,2.70654832 C0.866110398,2.12657368 0.288703466,1.06328684 0.288703466,0 L53.6988447,32.6719048 C54.6611896,33.2518794 55.2385965,34.2185038 55.2385965,35.3784531 Z" id="XMLID_12_" fill="url(#linearGradient-6)"></path>
                            <path d="M47.3473684,50.5544562 L1.82845528,22.7156734 C0.866110398,22.1356988 0.288703466,21.0724119 0.288703466,20.0091251 L45.8076166,47.8479078 C46.7699615,48.4278825 47.3473684,49.3945069 47.3473684,50.5544562 Z" id="XMLID_11_" fill="url(#linearGradient-7)"></path>
                            <path d="M40.5147197,39.6316004 L1.92468977,16.0459651 C0.962344887,15.4659904 0.384937955,14.4027036 0.384937955,13.3394167 L38.9749679,36.9250521 C39.9373128,37.5050268 40.5147197,38.4716512 40.5147197,39.6316004 Z" id="XMLID_10_" fill="url(#linearGradient-8)"></path>
                            <path d="M31.5649123,27.452133 L1.82845528,9.37625669 C0.866110398,8.79628205 0.288703466,7.73299521 0.288703466,6.66970837 L30.0251605,24.7455847 C30.9875053,25.3255593 31.5649123,26.3888461 31.5649123,27.452133 Z" id="XMLID_9_" fill="url(#linearGradient-9)"></path>
                            <path d="M56.7783483,76.3633277 L1.82845528,42.7247985 C0.866110398,42.1448239 0.288703466,41.081537 0.288703466,40.0182502 L55.2385965,73.6567794 C56.2009414,74.236754 56.7783483,75.2033784 56.7783483,76.3633277 Z" id="XMLID_8_" fill="url(#linearGradient-10)"></path>
                            <path d="M54.2762516,68.1470203 L1.82845528,36.1517526 C0.866110398,35.571778 0.288703466,34.5084911 0.288703466,33.4452043 L52.7364998,65.4404719 C53.6988447,66.0204466 54.2762516,66.987071 54.2762516,68.1470203 Z" id="XMLID_7_" fill="url(#linearGradient-11)"></path>
                            <path d="M38.4937955,51.7144055 L1.82845528,29.3853818 C0.866110398,28.8054071 0.288703466,27.7421203 0.288703466,26.6788335 L36.9540436,49.0078571 C37.9163885,49.5878318 38.4937955,50.6511186 38.4937955,51.7144055 Z" id="XMLID_6_" fill="url(#linearGradient-12)"></path>
                            <path d="M45.4226786,75.9766779 L1.82845528,49.3945069 C0.866110398,48.8145322 0.288703466,47.7512454 0.288703466,46.6879586 L43.8829268,73.2701296 C44.8452717,73.8501042 45.4226786,74.9133911 45.4226786,75.9766779 Z" id="XMLID_5_" fill="url(#linearGradient-13)"></path>
                            <path d="M33.5858365,75.3967033 L1.82845528,56.0642153 C0.866110398,55.4842406 0.288703466,54.4209538 0.288703466,53.3576669 L32.0460847,72.690155 C33.0084296,73.2701296 33.5858365,74.3334164 33.5858365,75.3967033 Z" id="XMLID_4_" fill="url(#linearGradient-14)"></path>
                        </g>
                    </g>
                </g>
            </g>
        </g>
    </g>
</svg>